<?xml version="1.0" encoding="UTF-8"?>
<svg version="1.1" xmlns="http://www.w3.org/2000/svg" width="512" height="512">
<path d="M0 0 C0.79375031 0.00215515 1.58750061 0.0043103 2.40530396 0.00653076 C14.2724814 0.05820316 25.73934986 0.46562884 37.3125 3.3125 C38.13105469 3.50585938 38.94960938 3.69921875 39.79296875 3.8984375 C84.56096428 14.73911803 121.82780772 43.21446766 145.79296875 82.29296875 C161.39073236 108.58822605 168.77065723 137.52252186 168.625 168 C168.62226578 169.18863144 168.62226578 169.18863144 168.61947632 170.40127563 C168.5736337 182.24375183 168.19861082 193.76805672 165.3125 205.3125 C165.13557617 206.02277344 164.95865234 206.73304688 164.77636719 207.46484375 C163.48196716 212.4814822 161.95861264 217.40124405 160.3125 222.3125 C160.09754883 222.96782715 159.88259766 223.6231543 159.66113281 224.29833984 C153.89070185 241.63982184 145.10758636 261.01542263 131.70845032 273.79641724 C128.08013601 278.17894863 128.60847903 283.10202193 128.65307617 288.55029297 C128.64259247 289.67282974 128.63210876 290.79536652 128.62130737 291.95191956 C128.5925632 295.65312358 128.59884871 299.35339187 128.60546875 303.0546875 C128.59235346 305.62445244 128.57704976 308.19420706 128.55964661 310.76394653 C128.52383838 316.83057702 128.510061 322.89688911 128.5070222 328.96361268 C128.5018661 336.55137367 128.46289707 344.13891331 128.42382812 351.7265625 C128.35431735 365.25527161 128.33580402 378.78345723 128.3125 392.3125 C165.2725 392.3125 202.2325 392.3125 240.3125 392.3125 C240.3125 397.5925 240.3125 402.8725 240.3125 408.3125 C81.9125 408.3125 -76.4875 408.3125 -239.6875 408.3125 C-239.6875 403.0325 -239.6875 397.7525 -239.6875 392.3125 C-202.7275 392.3125 -165.7675 392.3125 -127.6875 392.3125 C-127.60380957 371.15039254 -127.60380957 371.15039254 -127.60805416 349.98881054 C-127.62464059 342.41746489 -127.62805262 334.84688279 -127.58129883 327.27563477 C-127.54034417 320.6357821 -127.54671155 313.99703966 -127.58142281 307.35708046 C-127.58700427 304.82905969 -127.57695869 302.30095266 -127.55073357 299.77306175 C-126.82303107 284.09299713 -126.82303107 284.09299713 -133.109375 270.38500977 C-134.60256654 268.99145414 -136.12404127 267.62673554 -137.6875 266.3125 C-140.76887264 262.27820828 -143.16660364 257.70906329 -145.6875 253.3125 C-146.02136719 252.73516113 -146.35523438 252.15782227 -146.69921875 251.56298828 C-154.22939358 238.4320656 -159.77173064 224.73790201 -163.5 210.0625 C-163.69489014 209.29591064 -163.88978027 208.52932129 -164.09057617 207.73950195 C-167.22037573 194.64510476 -168.09488187 181.71413964 -168.0625 168.3125 C-168.06228851 167.50123657 -168.06207703 166.68997314 -168.06185913 165.85412598 C-168.02757914 152.64056978 -167.00794419 140.1489854 -163.6875 127.3125 C-163.51089844 126.57805664 -163.33429688 125.84361328 -163.15234375 125.08691406 C-153.04911432 83.45786688 -124.42442373 46.74595817 -88.23828125 24.43359375 C-73.45213001 15.52602814 -58.20475924 8.75970333 -41.4375 4.5 C-40.67091064 4.30510986 -39.90432129 4.11021973 -39.11450195 3.90942383 C-26.11069483 0.80127694 -13.30627138 -0.06513036 0 0 Z M-105.6875 60.3125 C-106.96560547 61.49585938 -106.96560547 61.49585938 -108.26953125 62.703125 C-119.31564881 73.20998328 -127.64914492 85.86474924 -134.6875 99.3125 C-135.29335937 100.47007812 -135.89921875 101.62765625 -136.5234375 102.8203125 C-141.59485144 112.8945336 -144.85473588 123.4200073 -147.6875 134.3125 C-148.03039062 135.58609375 -148.37328125 136.8596875 -148.7265625 138.171875 C-153.12226669 157.97308455 -152.92094766 182.73700875 -147.6875 202.3125 C-147.41341309 203.4252832 -147.41341309 203.4252832 -147.13378906 204.56054688 C-143.57141327 218.89194375 -138.30327969 237.69672031 -127.6875 248.3125 C-127.6875 219.2725 -127.6875 190.2325 -127.6875 160.3125 C-109.2075 160.3125 -90.7275 160.3125 -71.6875 160.3125 C-70.88145598 149.92085574 -70.88145598 149.92085574 -75.39575195 142.63452148 C-75.94577881 142.11575439 -76.49580566 141.5969873 -77.0625 141.0625 C-77.91751099 140.22344116 -77.91751099 140.22344116 -78.78979492 139.36743164 C-83.6255833 135.16588711 -87.70195036 134.40207036 -94 134.75 C-95.47528222 134.91516991 -96.95054324 135.08052937 -98.42578125 135.24609375 C-103.29182119 135.6414039 -106.69087 133.97287775 -110.6875 131.3125 C-116.29318973 126.4751577 -118.88982629 120.84008302 -119.65234375 113.4921875 C-119.75864532 106.90149007 -117.86547174 101.41890991 -113.6875 96.3125 C-108.26735501 90.9371496 -103.4789723 89.02133652 -95.875 88.9375 C-88.77910251 89.06355043 -84.12999391 90.0552524 -78.9453125 94.9609375 C-76.01749129 98.16893299 -73.86963399 101.08046031 -72.6875 105.3125 C-72.87857493 107.32285214 -73.0743478 109.33329498 -73.32446289 111.3371582 C-73.85064453 116.39443838 -74.32200379 121.13109589 -71.14208984 125.375 C-69.08355665 127.39534621 -66.96128286 129.27321141 -64.75 131.125 C-59.77638979 135.29432354 -56.37346764 138.35495115 -55.40234375 144.98046875 C-54.97719456 150.17657863 -55.40919064 155.02462219 -55.6875 160.3125 C-47.7675 160.3125 -39.8475 160.3125 -31.6875 160.3125 C-31.6875 149.7525 -31.6875 139.1925 -31.6875 128.3125 C-26.4075 128.3125 -21.1275 128.3125 -15.6875 128.3125 C-13.83452778 116.67600331 -13.83452778 116.67600331 -17.2578125 105.79492188 C-21.51940949 100.71860782 -26.47997306 96.39473023 -31.6875 92.3125 C-32.5391272 92.62973022 -32.5391272 92.62973022 -33.40795898 92.95336914 C-41.62354446 95.87604845 -50.91668116 97.43297499 -59.1875 93.75 C-65.78713166 89.69412358 -69.38270616 84.3179401 -71.28125 76.859375 C-72.41790266 69.73343717 -70.82822142 63.21893446 -66.6875 57.3125 C-61.55170113 51.81072971 -56.42839328 49.13230968 -48.8671875 48.34765625 C-42.27649007 48.24135468 -36.79390991 50.13452826 -31.6875 54.3125 C-27.85013107 58.181847 -24.69948735 62.20717636 -24.67773438 67.84228516 C-24.71189453 68.71159668 -24.74605469 69.5809082 -24.78125 70.4765625 C-24.37180421 75.85143645 -22.61526986 77.89393121 -18.59375 81.3984375 C-17.01588708 82.7152419 -15.42937516 84.02032218 -13.83621216 85.318573 C-6.42112707 91.47532398 -0.02762185 97.28075755 1.05859375 107.25390625 C1.58472166 114.29764752 1.05925551 121.30486712 0.3125 128.3125 C5.5925 128.3125 10.8725 128.3125 16.3125 128.3125 C16.51035885 121.42587066 16.65547813 114.54089669 16.75195312 107.65209961 C16.79216907 105.30935856 16.84675187 102.96681809 16.91601562 100.62475586 C17.01314768 97.25584486 17.0584455 93.88958748 17.09375 90.51953125 C17.13504028 89.47352249 17.17633057 88.42751373 17.21887207 87.34980774 C17.22065411 84.4577201 17.14689079 82.08327508 16.3125 79.3125 C14.42830918 77.465567 12.69966413 76.41934725 10.3157959 75.30522156 C6.39293601 73.3612713 4.10938045 69.93712599 2.203125 66.05078125 C0.08786334 59.5472794 0.03682594 51.11007934 2.875 44.8125 C6.24169624 39.24909415 11.12693794 35.27900817 17.3125 33.3125 C25.1563829 32.50655743 32.90434467 32.21578111 39.3125 37.3125 C44.01697914 41.76382332 46.97247071 46.00314516 47.6484375 52.58203125 C47.73945099 60.8369544 47.52316695 66.95529012 41.62890625 73.0546875 C38.62140559 75.75820423 35.97485223 77.48132389 32.3125 79.3125 C32.3125 95.4825 32.3125 111.6525 32.3125 128.3125 C37.5925 128.3125 42.8725 128.3125 48.3125 128.3125 C48.2815625 126.1778125 48.2815625 126.1778125 48.25 124 C48.31756831 108.78631998 48.31756831 108.78631998 51.1953125 104.5234375 C52.65076198 103.33169315 54.13189092 102.17040038 55.640625 101.046875 C57.57154769 99.40540933 57.57154769 99.40540933 57.546875 96.765625 C57.30703575 94.8781944 57.02422625 92.99573698 56.69921875 91.12109375 C55.89819887 85.30358572 57.3542897 80.12625521 60.0625 75 C64.63925715 69.53331785 69.28124295 65.72670323 76.58203125 64.9765625 C84.85621997 64.8853366 90.89678015 65.13439736 97.0546875 70.9609375 C102.98647269 77.46035764 103.77546445 83.17311866 103.62109375 91.86328125 C103.03589005 98.4042289 100.66797257 102.31312765 95.875 106.6875 C89.56432748 111.92931151 83.67900438 111.46911838 75.90625 110.97070312 C71.90296135 110.84059624 69.78959174 111.03805054 66.25 113.07421875 C63.28564046 117.39982295 63.28564046 117.39982295 64.3125 128.3125 C85.4325 128.3125 106.5525 128.3125 128.3125 128.3125 C128.3125 167.9125 128.3125 207.5125 128.3125 248.3125 C138.79697686 235.20690392 144.28491355 218.42974826 148.3125 202.3125 C148.65152344 201.04664063 148.99054688 199.78078125 149.33984375 198.4765625 C153.76700734 178.68693725 153.54401423 153.88075935 148.3125 134.3125 C148.03841309 133.1997168 148.03841309 133.1997168 147.75878906 132.06445312 C142.95599362 112.74286227 134.60782335 94.03804037 122.3125 78.3125 C121.6421875 77.42304688 120.971875 76.53359375 120.28125 75.6171875 C106.30191349 57.72572323 89.37124144 43.81095042 69.3125 33.3125 C68.15492188 32.70664063 66.99734375 32.10078125 65.8046875 31.4765625 C8.7119766 2.73580256 -60.54119693 16.74033581 -105.6875 60.3125 Z M18.9375 50.9375 C16.82543494 54.02436432 16.70054855 55.6407913 17.3125 59.3125 C18.8125 61.8125 18.8125 61.8125 21.3125 63.3125 C24.9842087 63.92445145 26.60063568 63.79956506 29.6875 61.6875 C31.79956506 58.60063568 31.92445145 56.9842087 31.3125 53.3125 C29.8125 50.8125 29.8125 50.8125 27.3125 49.3125 C23.6407913 48.70054855 22.02436432 48.82543494 18.9375 50.9375 Z M-53.0625 66.9375 C-55.17456506 70.02436432 -55.29945145 71.6407913 -54.6875 75.3125 C-53.1875 77.8125 -53.1875 77.8125 -50.6875 79.3125 C-47.0157913 79.92445145 -45.39936432 79.79956506 -42.3125 77.6875 C-40.20043494 74.60063568 -40.07554855 72.9842087 -40.6875 69.3125 C-42.1875 66.8125 -42.1875 66.8125 -44.6875 65.3125 C-48.3592087 64.70054855 -49.97563568 64.82543494 -53.0625 66.9375 Z M74.9375 82.9375 C72.82543494 86.02436432 72.70054855 87.6407913 73.3125 91.3125 C74.8125 93.8125 74.8125 93.8125 77.3125 95.3125 C80.9842087 95.92445145 82.60063568 95.79956506 85.6875 93.6875 C87.79956506 90.60063568 87.92445145 88.9842087 87.3125 85.3125 C85.8125 82.8125 85.8125 82.8125 83.3125 81.3125 C79.6407913 80.70054855 78.02436432 80.82543494 74.9375 82.9375 Z M-101.0625 106.9375 C-103.17456506 110.02436432 -103.29945145 111.6407913 -102.6875 115.3125 C-101.1875 117.8125 -101.1875 117.8125 -98.6875 119.3125 C-95.0157913 119.92445145 -93.39936432 119.79956506 -90.3125 117.6875 C-88.20043494 114.60063568 -88.07554855 112.9842087 -88.6875 109.3125 C-90.1875 106.8125 -90.1875 106.8125 -92.6875 105.3125 C-96.3592087 104.70054855 -97.97563568 104.82543494 -101.0625 106.9375 Z M-15.6875 144.3125 C-15.6875 226.1525 -15.6875 307.9925 -15.6875 392.3125 C-5.1275 392.3125 5.4325 392.3125 16.3125 392.3125 C16.3125 379.1125 16.3125 365.9125 16.3125 352.3125 C37.4325 352.3125 58.5525 352.3125 80.3125 352.3125 C80.3125 365.5125 80.3125 378.7125 80.3125 392.3125 C90.8725 392.3125 101.4325 392.3125 112.3125 392.3125 C112.3125 310.4725 112.3125 228.6325 112.3125 144.3125 C70.0725 144.3125 27.8325 144.3125 -15.6875 144.3125 Z M-111.6875 176.3125 C-111.6875 247.5925 -111.6875 318.8725 -111.6875 392.3125 C-106.4075 392.3125 -101.1275 392.3125 -95.6875 392.3125 C-95.6875 379.1125 -95.6875 365.9125 -95.6875 352.3125 C-79.8475 352.3125 -64.0075 352.3125 -47.6875 352.3125 C-47.6875 365.5125 -47.6875 378.7125 -47.6875 392.3125 C-42.4075 392.3125 -37.1275 392.3125 -31.6875 392.3125 C-31.6875 321.0325 -31.6875 249.7525 -31.6875 176.3125 C-58.0875 176.3125 -84.4875 176.3125 -111.6875 176.3125 Z M-79.6875 368.3125 C-79.6875 376.2325 -79.6875 384.1525 -79.6875 392.3125 C-74.4075 392.3125 -69.1275 392.3125 -63.6875 392.3125 C-63.6875 384.3925 -63.6875 376.4725 -63.6875 368.3125 C-68.9675 368.3125 -74.2475 368.3125 -79.6875 368.3125 Z M32.3125 368.3125 C32.3125 376.2325 32.3125 384.1525 32.3125 392.3125 C42.8725 392.3125 53.4325 392.3125 64.3125 392.3125 C64.3125 384.3925 64.3125 376.4725 64.3125 368.3125 C53.7525 368.3125 43.1925 368.3125 32.3125 368.3125 Z " fill="#000000" transform="translate(255.6875,87.6875)"/>
<path d="M0 0 C0.99261337 0.00222061 1.98522675 0.00444122 3.00791931 0.00672913 C4.12900589 0.00680466 5.25009247 0.00688019 6.40515137 0.00695801 C8.2348069 0.01469994 8.2348069 0.01469994 10.10142517 0.02259827 C11.96377052 0.02472069 11.96377052 0.02472069 13.86373901 0.02688599 C17.16982383 0.03154861 20.47584039 0.04053955 23.78190613 0.05158997 C27.15338042 0.06180625 30.52486175 0.06638407 33.89634705 0.07142639 C40.51550667 0.08248056 47.13463385 0.09923715 53.75376892 0.12025452 C56.00227042 5.48029183 58.0738692 10.6193669 59.15611267 16.35462952 C61.31947374 27.84635727 61.31947374 27.84635727 68.04722595 36.83314514 C74.02259607 39.59392447 80.26263314 40.45174918 86.75376892 41.12025452 C87.51173767 41.26140686 88.26970642 41.4025592 89.05064392 41.54798889 C93.21803207 42.31813703 93.21803207 42.31813703 97.00376892 40.71400452 C97.87001892 39.67759827 97.87001892 39.67759827 98.75376892 38.62025452 C99.41634705 37.87646545 100.07892517 37.13267639 100.76158142 36.36634827 C101.74771423 35.25453186 101.74771423 35.25453186 102.75376892 34.12025452 C104.02380141 32.95048775 105.31537776 31.80362046 106.62876892 30.68275452 C111.40611836 26.57156934 116.07772845 22.34593863 120.75376892 18.12025452 C124.98597509 19.4076889 128.61227175 21.01713239 132.42955017 23.24525452 C133.49769958 23.86521301 134.565849 24.48517151 135.66636658 25.12391663 C136.78833435 25.78270813 137.91030212 26.44149963 139.06626892 27.12025452 C140.22794964 27.79722468 141.38989811 28.47373557 142.55210876 29.14979553 C145.95692279 31.13270064 149.35570858 33.12579615 152.75376892 35.12025452 C153.70203552 35.67567932 154.65030212 36.23110413 155.62730408 36.80335999 C160.34222973 39.56539953 165.05143238 42.33683804 169.75376892 45.12025452 C169.13887558 53.60041547 167.41267674 61.64141772 165.48228455 69.90541077 C165.15067322 71.36527405 165.15067322 71.36527405 164.81236267 72.85462952 C164.60925476 73.72313538 164.40614685 74.59164124 164.19688416 75.48646545 C163.49944136 79.63192709 163.11150146 82.80261695 164.99009705 86.65663147 C169.85893777 93.30757916 175.02875818 99.81162421 182.75376892 103.12025452 C192.62665761 103.58719069 202.2069504 100.28149894 211.43663025 97.06434631 C214.72301782 96.1290066 217.35884703 95.93851628 220.75376892 96.12025452 C221.70698306 97.7699426 222.66008213 99.41969716 223.61314392 101.06947327 C224.22939636 102.13601135 224.8456488 103.20254944 225.48057556 104.30140686 C226.83688027 106.65030614 228.18996236 109.00102211 229.54063416 111.35316467 C232.8168656 117.05495694 236.11175301 122.74088106 239.49205017 128.38197327 C240.05504822 129.33305969 240.61804626 130.28414612 241.19810486 131.26405334 C242.2601903 133.05668307 243.33471013 134.84201556 244.42271423 136.61903381 C244.89418884 137.42123352 245.36566345 138.22343323 245.85142517 139.04994202 C246.26916199 139.74329651 246.6868988 140.436651 247.11729431 141.15101624 C247.75376892 143.12025452 247.75376892 143.12025452 247.01109314 145.21253967 C245.20732667 147.94936126 243.05658561 150.22886913 240.81626892 152.62025452 C240.33770447 153.1407135 239.85914001 153.66117249 239.36607361 154.19740295 C236.81879205 156.96041519 234.22653107 159.65734028 231.54673767 162.29212952 C231.03683289 162.80839905 230.5269281 163.32466858 230.00157166 163.85658264 C228.57492404 165.29834552 227.12580343 166.71776774 225.67564392 168.13587952 C223.51348644 171.4933761 223.53126808 173.04650475 224.32164001 176.89808655 C224.79352552 179.32469775 224.8729956 181.63991969 224.96861267 184.10853577 C225.62070976 190.21293638 226.57639597 195.42515695 230.75376892 200.12025452 C239.75328539 205.81889316 251.36189278 207.95518724 261.61436462 210.33021545 C264.75376892 211.12025452 264.75376892 211.12025452 265.75376892 212.12025452 C265.84741899 213.86954172 265.8712133 215.62261705 265.86729431 217.37440491 C265.86721878 218.49549149 265.86714325 219.61657806 265.86706543 220.77163696 C265.86190414 221.99140732 265.85674286 223.21117767 265.85142517 224.46791077 C265.84930275 226.33025612 265.84930275 226.33025612 265.84713745 228.23022461 C265.84247483 231.53630942 265.83348389 234.84232598 265.82243347 238.14839172 C265.81221719 241.51986601 265.80763937 244.89134734 265.80259705 248.26283264 C265.79154287 254.88199226 265.77478628 261.50111945 265.75376892 268.12025452 C260.39373161 270.36875601 255.25465653 272.44035479 249.51939392 273.52259827 C238.02766616 275.68595934 238.02766616 275.68595934 229.0408783 282.41371155 C226.27906365 288.39132249 225.42800895 294.62814034 224.75376892 301.12025452 C224.6068158 301.87242249 224.45986267 302.62459045 224.30845642 303.39955139 C223.65032516 306.86119277 223.40244153 308.58650713 225.37876892 311.58900452 C226.16251892 312.25931702 226.94626892 312.92962952 227.75376892 313.62025452 C228.58779236 314.37306702 229.4218158 315.12587952 230.28111267 315.90150452 C231.50507751 316.99978577 231.50507751 316.99978577 232.75376892 318.12025452 C233.96618388 319.4309734 235.15584766 320.76328859 236.31626892 322.12025452 C238.91436559 325.14526848 241.53910477 328.142386 244.19126892 331.12025452 C244.87060486 331.88337952 245.5499408 332.64650452 246.24986267 333.43275452 C246.74615173 333.98962952 247.2424408 334.54650452 247.75376892 335.12025452 C246.46633454 339.35246069 244.85689105 342.97875735 242.62876892 346.79603577 C242.00881042 347.86418518 241.38885193 348.93233459 240.75010681 350.03285217 C240.09131531 351.15481995 239.4325238 352.27678772 238.75376892 353.43275452 C238.07679876 354.59443523 237.40028787 355.7563837 236.72422791 356.91859436 C234.7413228 360.32340838 232.74822728 363.72219417 230.75376892 367.12025452 C230.19834412 368.06852112 229.64291931 369.01678772 229.07066345 369.99378967 C226.3086239 374.70871533 223.5371854 379.41791798 220.75376892 384.12025452 C214.96341857 383.77614035 209.4681454 382.89885882 203.82798767 381.53431702 C202.61949158 381.24427795 201.41099548 380.95423889 200.1658783 380.65541077 C197.65890828 380.04280037 195.15626672 379.41222865 192.6580658 378.76478577 C186.65253293 377.0185258 186.65253293 377.0185258 180.78746033 378.07240295 C179.200281 379.54636117 179.200281 379.54636117 177.75376892 382.12025452 C174.07307005 380.583816 171.76601688 378.33874506 169.00376892 375.49525452 C168.20455017 374.67798889 167.40533142 373.86072327 166.58189392 373.01869202 C165.97861267 372.39220764 165.37533142 371.76572327 164.75376892 371.12025452 C166.16931865 369.42360272 167.59894999 367.74376565 169.05455017 366.08119202 C170.12691532 364.84365798 171.17079676 363.58030112 172.17173767 362.28431702 C173.61740842 360.55923091 174.86618846 359.34795985 176.75376892 358.12025452 C184.44596649 358.4245098 191.85163172 360.40231255 199.31626892 362.18275452 C200.51574158 362.46441467 201.71521423 362.74607483 202.95103455 363.03627014 C205.88641572 363.72626014 208.82057763 364.42102461 211.75376892 365.12025452 C212.02559998 364.40007141 212.29743103 363.67988831 212.57749939 362.93788147 C213.73721454 360.15990875 215.07105839 357.64452915 216.57408142 355.03822327 C217.10904236 354.10687561 217.6440033 353.17552795 218.19517517 352.21595764 C218.75076111 351.25625061 219.30634705 350.29654358 219.87876892 349.30775452 C220.44208923 348.32871155 221.00540955 347.34966858 221.58580017 346.34095764 C222.97221307 343.93235896 224.36161947 341.52554057 225.75376892 339.12025452 C223.54118909 335.67846368 221.42523073 332.55117565 218.44126892 329.74525452 C215.22430487 326.62493746 212.23880753 323.37424462 209.33580017 319.96009827 C208.03104313 318.44271415 206.6512623 316.99018523 205.25376892 315.55775452 C202.90021236 311.7332251 204.2672829 308.29677102 205.21659851 304.04957581 C205.7653964 301.7696571 206.34365618 299.49928257 206.93345642 297.22962952 C207.1468869 296.40319946 207.36031738 295.57676941 207.58021545 294.72529602 C208.03029048 292.9901802 208.48254524 291.25562847 208.93687439 289.5216217 C209.62963331 286.86694213 210.30706095 284.20863295 210.98423767 281.54994202 C211.42470657 279.85959332 211.86608135 278.16948036 212.30845642 276.47962952 C212.60863174 275.28898895 212.60863174 275.28898895 212.91487122 274.07429504 C213.9350312 270.247951 214.68970039 267.6643267 217.75376892 265.12025452 C220.11621365 264.1871151 222.40738279 263.38230768 224.82798767 262.63978577 C225.51182022 262.42207016 226.19565277 262.20435455 226.90020752 261.9800415 C229.07791966 261.28889957 231.25941491 260.61069374 233.44126892 259.93275452 C234.92135469 259.46550382 236.40117593 258.99741434 237.88072205 258.52845764 C241.50168033 257.38104237 245.12747345 256.25121735 248.75376892 255.12025452 C248.75376892 245.22025452 248.75376892 235.32025452 248.75376892 225.12025452 C246.4411908 224.56982483 244.12861267 224.01939514 241.74595642 223.45228577 C218.95057335 217.58516823 218.95057335 217.58516823 213.69859314 211.89271545 C211.07420432 206.88778347 210.55721078 201.58754103 210.09947205 196.01966858 C209.49012364 190.90906004 207.82260872 186.08875381 206.31626892 181.18275452 C203.0171532 170.12318575 203.0171532 170.12318575 204.75376892 165.12025452 C206.57408142 162.84681702 206.57408142 162.84681702 208.87876892 160.74525452 C215.01522012 154.94971727 220.38825322 148.62390991 225.75376892 142.12025452 C222.04599329 134.32549893 217.94010623 126.99554536 213.29283142 119.73744202 C211.75376892 117.12025452 211.75376892 117.12025452 211.75376892 115.12025452 C210.84087097 115.33754211 209.92797302 115.55482971 208.9874115 115.77870178 C205.58803645 116.58266209 202.18676425 117.37734743 198.78379822 118.16590881 C197.31353556 118.50858701 195.84411564 118.85490272 194.37559509 119.20497131 C192.26029508 119.70854595 190.14227425 120.1988093 188.02330017 120.68666077 C186.11448059 121.13440857 186.11448059 121.13440857 184.167099 121.59120178 C178.93581941 122.40202954 178.93581941 122.40202954 175.75376892 121.12025452 C173.05250563 119.05432088 170.6519419 116.72226704 168.23033142 114.33900452 C167.52476105 113.65149109 166.81919067 112.96397766 166.09223938 112.25563049 C164.6059941 110.79836975 163.12528237 109.33544691 161.64976501 107.86732483 C159.38960181 105.63097328 157.09489014 103.43464714 154.79673767 101.23744202 C153.35564655 99.81527862 151.91676725 98.39086976 150.48033142 96.96400452 C149.79089447 96.3136322 149.10145752 95.66325989 148.39112854 94.99317932 C143.88941857 90.4038609 143.88941857 90.4038609 143.5149231 86.86013794 C143.74588007 84.53381227 144.17510545 82.38361029 144.75376892 80.12025452 C144.97299011 78.99546692 145.1922113 77.87067932 145.41807556 76.71180725 C145.66420593 75.66968079 145.9103363 74.62755432 146.16392517 73.55384827 C146.43140564 72.4098053 146.69888611 71.26576233 146.97447205 70.08705139 C147.25226501 68.92238342 147.53005798 67.75771545 147.81626892 66.55775452 C148.09792908 65.35828186 148.37958923 64.1588092 148.66978455 62.92298889 C149.35977454 59.98760772 150.05453901 57.05344581 150.75376892 54.12025452 C150.03358582 53.84842346 149.31340271 53.57659241 148.57139587 53.29652405 C145.79342315 52.1368089 143.27804356 50.80296504 140.67173767 49.29994202 C139.27471619 48.49750061 139.27471619 48.49750061 137.84947205 47.67884827 C136.4099115 46.84546936 136.4099115 46.84546936 134.94126892 45.99525452 C133.96222595 45.4319342 132.98318298 44.86861389 131.97447205 44.28822327 C129.56587337 42.90181037 127.15905497 41.51240397 124.75376892 40.12025452 C121.31197808 42.33283434 118.18469005 44.44879271 115.37876892 47.43275452 C112.25845186 50.64971857 109.00775903 53.6352159 105.59361267 56.53822327 C104.07622855 57.84298031 102.62369964 59.22276113 101.19126892 60.62025452 C97.36673951 62.97381108 93.93028542 61.60674053 89.68309021 60.65742493 C87.40317151 60.10862704 85.13279697 59.53036726 82.86314392 58.94056702 C82.03671387 58.72713654 81.21028381 58.51370605 80.35881042 58.29380798 C78.62369461 57.84373296 76.88914287 57.39147819 75.15513611 56.93714905 C72.50045654 56.24439012 69.84214735 55.56696249 67.18345642 54.88978577 C65.49310772 54.44931686 63.80299476 54.00794209 62.11314392 53.56556702 C61.31938354 53.36545013 60.52562317 53.16533325 59.70780945 52.95915222 C55.88146541 51.93899223 53.2978411 51.18432305 50.75376892 48.12025452 C49.8206295 45.75780979 49.01582208 43.46664065 48.27330017 41.04603577 C48.05558456 40.36220322 47.83786896 39.67837067 47.61355591 38.97381592 C46.92241397 36.79610377 46.24420814 34.61460853 45.56626892 32.43275452 C45.09901823 30.95266875 44.63092875 29.4728475 44.16197205 27.99330139 C43.01455677 24.37234311 41.88473176 20.74654999 40.75376892 17.12025452 C30.85376892 17.12025452 20.95376892 17.12025452 10.75376892 17.12025452 C10.20333923 19.43283264 9.65290955 21.74541077 9.08580017 24.12806702 C3.21868263 46.92345009 3.21868263 46.92345009 -2.47377014 52.1754303 C-7.47870212 54.79981911 -12.77894456 55.31681265 -18.34681702 55.77455139 C-23.45742556 56.3838998 -28.27773179 58.05141472 -33.18373108 59.55775452 C-44.24329985 62.85687023 -44.24329985 62.85687023 -49.24623108 61.12025452 C-51.51966858 59.29994202 -51.51966858 59.29994202 -53.62123108 56.99525452 C-59.41676833 50.85880331 -65.74257568 45.48577022 -72.24623108 40.12025452 C-80.04098666 43.82803015 -87.37094023 47.93391721 -94.62904358 52.58119202 C-97.24623108 54.12025452 -97.24623108 54.12025452 -99.24623108 54.12025452 C-98.92029968 55.48960144 -98.92029968 55.48960144 -98.58778381 56.88661194 C-97.78382351 60.28598699 -96.98913816 63.68725919 -96.20057678 67.09022522 C-95.85789859 68.56048788 -95.51158287 70.02990779 -95.16151428 71.49842834 C-94.65793964 73.61372836 -94.1676763 75.73174919 -93.67982483 77.85072327 C-93.38132629 79.12326965 -93.08282776 80.39581604 -92.77528381 81.70692444 C-91.96445606 86.93820402 -91.96445606 86.93820402 -93.24623108 90.12025452 C-95.31216472 92.82151781 -97.64421856 95.22208154 -100.02748108 97.64369202 C-101.05875122 98.70204758 -101.05875122 98.70204758 -102.1108551 99.78178406 C-103.56811585 101.26802933 -105.03103869 102.74874107 -106.49916077 104.22425842 C-108.73551232 106.48442163 -110.93183846 108.7791333 -113.12904358 111.07728577 C-114.55120697 112.51837689 -115.97561583 113.95725618 -117.40248108 115.39369202 C-118.05285339 116.08312897 -118.70322571 116.77256592 -119.37330627 117.4828949 C-123.9626247 121.98460487 -123.9626247 121.98460487 -127.50634766 122.35910034 C-129.83267332 122.12814337 -131.98287531 121.69891799 -134.24623108 121.12025452 C-135.37101868 120.90103333 -136.49580627 120.68181213 -137.65467834 120.45594788 C-138.69680481 120.2098175 -139.73893127 119.96368713 -140.81263733 119.71009827 C-141.9566803 119.4426178 -143.10072327 119.17513733 -144.2794342 118.89955139 C-145.44410217 118.62175842 -146.60877014 118.34396545 -147.80873108 118.05775452 C-149.60794006 117.63526428 -149.60794006 117.63526428 -151.4434967 117.20423889 C-154.37887788 116.5142489 -157.31303979 115.81948443 -160.24623108 115.12025452 C-160.51806213 115.84043762 -160.78989319 116.56062073 -161.06996155 117.30262756 C-162.2296767 120.08060028 -163.56352055 122.59597988 -165.06654358 125.20228577 C-165.60150452 126.13363342 -166.13646545 127.06498108 -166.68763733 128.02455139 C-167.24322327 128.98425842 -167.7988092 129.94396545 -168.37123108 130.93275452 C-168.93455139 131.91179749 -169.4978717 132.89084045 -170.07826233 133.89955139 C-171.46467523 136.30815007 -172.85408163 138.71496846 -174.24623108 141.12025452 C-172.03365125 144.56204536 -169.91769289 147.68933339 -166.93373108 150.49525452 C-163.71676703 153.61557158 -160.73126969 156.86626441 -157.82826233 160.28041077 C-156.52350528 161.79779489 -155.14372446 163.2503238 -153.74623108 164.68275452 C-151.39267452 168.50728393 -152.75974506 171.94373801 -153.70906067 176.19093323 C-154.25785856 178.47085193 -154.83611833 180.74122646 -155.42591858 183.01087952 C-155.63934906 183.83730957 -155.85277954 184.66373962 -156.07267761 185.51521301 C-156.52275263 187.25032883 -156.9750074 188.98488057 -157.42933655 190.71888733 C-158.12209547 193.3735669 -158.79952311 196.03187609 -159.47669983 198.69056702 C-159.91716873 200.38091571 -160.35854351 202.07102867 -160.80091858 203.76087952 C-161.00103546 204.55463989 -161.20115234 205.34840027 -161.40733337 206.16621399 C-162.42749336 209.99255803 -163.18216255 212.57618233 -166.24623108 215.12025452 C-168.60867581 216.05339394 -170.89984495 216.85820135 -173.32044983 217.60072327 C-174.00428238 217.81843887 -174.68811493 218.03615448 -175.39266968 218.26046753 C-177.57038182 218.95160946 -179.75187706 219.6298153 -181.93373108 220.30775452 C-183.41381684 220.77500521 -184.89363809 221.24309469 -186.3731842 221.71205139 C-189.99414249 222.85946666 -193.61993561 223.98929168 -197.24623108 225.12025452 C-197.24623108 235.02025452 -197.24623108 244.92025452 -197.24623108 255.12025452 C-193.77736389 255.94589905 -193.77736389 255.94589905 -190.23841858 256.78822327 C-167.44303551 262.6553408 -167.44303551 262.6553408 -162.1910553 268.34779358 C-159.56666648 273.35272556 -159.04967294 278.652968 -158.5919342 284.22084045 C-157.9825858 289.33144899 -156.31507088 294.15175522 -154.80873108 299.05775452 C-151.50961536 310.11732328 -151.50961536 310.11732328 -153.24623108 315.12025452 C-155.06654358 317.39369202 -155.06654358 317.39369202 -157.37123108 319.49525452 C-163.50768228 325.29079176 -168.88071538 331.61659912 -174.24623108 338.12025452 C-170.53845545 345.9150101 -166.43256838 353.24496367 -161.78529358 360.50306702 C-160.24623108 363.12025452 -160.24623108 363.12025452 -160.24623108 365.12025452 C-158.87688416 364.79432312 -158.87688416 364.79432312 -157.47987366 364.46180725 C-154.08049861 363.65784694 -150.67922641 362.8631616 -147.27626038 362.07460022 C-145.80599772 361.73192202 -144.3365778 361.38560631 -142.86805725 361.03553772 C-140.75275724 360.53196308 -138.63473641 360.04169973 -136.51576233 359.55384827 C-135.24321594 359.25534973 -133.97066956 358.9568512 -132.65956116 358.64930725 C-128.68054023 358.03257466 -125.89979731 357.91653956 -122.57704163 360.33534241 C-122.10049133 360.83283997 -121.62394104 361.33033752 -121.13294983 361.84291077 C-120.60765686 362.38109436 -120.08236389 362.91927795 -119.54115295 363.47377014 C-119.01070374 364.03773499 -118.48025452 364.60169983 -117.93373108 365.18275452 C-117.38394592 365.75058655 -116.83416077 366.31841858 -116.26771545 366.90345764 C-114.91795743 368.30016377 -113.58081583 369.70904289 -112.24623108 371.12025452 C-113.71248964 374.4684635 -115.58281555 376.81291811 -118.12123108 379.43275452 C-118.79927795 380.15076233 -119.47732483 380.86877014 -120.17591858 381.60853577 C-122.24623108 383.12025452 -122.24623108 383.12025452 -124.40248108 382.98353577 C-126.24623108 382.12025452 -126.24623108 382.12025452 -127.87123108 379.99525452 C-130.69548372 377.76558138 -131.2202032 377.9469969 -134.66029358 378.34291077 C-141.56015245 379.17940818 -148.27176019 380.81275263 -155.03138733 382.39173889 C-156.00462952 382.61281311 -156.9778717 382.83388733 -157.98060608 383.06166077 C-158.84911194 383.26476868 -159.7176178 383.46787659 -160.61244202 383.67713928 C-163.53064078 384.16810431 -166.29237453 384.19342592 -169.24623108 384.12025452 C-170.19944521 382.47056643 -171.15254429 380.82081187 -172.10560608 379.17103577 C-173.02998474 377.57122864 -173.02998474 377.57122864 -173.97303772 375.93910217 C-175.32934243 373.5902029 -176.68242452 371.23948693 -178.03309631 368.88734436 C-181.30932776 363.18555209 -184.60421517 357.49962797 -187.98451233 351.85853577 C-188.54751038 350.90744934 -189.11050842 349.95636292 -189.69056702 348.97645569 C-190.75265246 347.18382596 -191.82717228 345.39849348 -192.91517639 343.62147522 C-193.62238831 342.41817566 -193.62238831 342.41817566 -194.34388733 341.19056702 C-194.76162415 340.49721252 -195.17936096 339.80385803 -195.60975647 339.0894928 C-196.24623108 337.12025452 -196.24623108 337.12025452 -195.50794983 335.03236389 C-193.67948475 332.26136186 -191.45745494 329.89889437 -189.18373108 327.49525452 C-188.19370659 326.43316557 -187.20413053 325.37065846 -186.21498108 324.30775452 C-185.71869202 323.77666077 -185.22240295 323.24556702 -184.71107483 322.69837952 C-181.7719093 319.53191852 -178.90438734 316.3006172 -176.02357483 313.08119202 C-174.79833307 311.72938683 -173.53630756 310.41033099 -172.24623108 309.12025452 C-172.41779545 307.23304639 -172.60999292 305.34522471 -172.91078186 303.47425842 C-173.24623108 301.12025452 -173.24623108 301.12025452 -173.35121155 298.67640686 C-173.64746585 291.81515718 -174.55877213 285.38865582 -179.24623108 280.12025452 C-188.24574754 274.42161588 -199.85435494 272.28532179 -210.10682678 269.91029358 C-213.24623108 269.12025452 -213.24623108 269.12025452 -214.24623108 268.12025452 C-214.33988114 266.37096732 -214.36367546 264.61789198 -214.35975647 262.86610413 C-214.35968094 261.74501755 -214.35960541 260.62393097 -214.35952759 259.46887207 C-214.3543663 258.24910172 -214.34920502 257.02933136 -214.34388733 255.77259827 C-214.34247238 254.5310347 -214.34105743 253.28947113 -214.33959961 252.01028442 C-214.33493699 248.70419961 -214.32594605 245.39818305 -214.31489563 242.09211731 C-214.30467935 238.72064302 -214.30010153 235.34916169 -214.2950592 231.97767639 C-214.28400503 225.35851677 -214.26724844 218.73938959 -214.24623108 212.12025452 C-208.88619377 209.87175302 -203.74711869 207.80015424 -198.01185608 206.71791077 C-186.52012832 204.5545497 -186.52012832 204.5545497 -177.53334045 197.82679749 C-174.77256113 191.85142736 -173.91473641 185.6113903 -173.24623108 179.12025452 C-173.10507874 178.36228577 -172.96392639 177.60431702 -172.8184967 176.82337952 C-172.04834856 172.65599137 -172.04834856 172.65599137 -173.65248108 168.87025452 C-174.34341858 168.29275452 -175.03435608 167.71525452 -175.74623108 167.12025452 C-176.49002014 166.45767639 -177.2338092 165.79509827 -178.00013733 165.11244202 C-178.74134827 164.45502014 -179.4825592 163.79759827 -180.24623108 163.12025452 C-181.41599784 161.85022203 -182.56286513 160.55864567 -183.68373108 159.24525452 C-187.79491625 154.46790508 -192.02054697 149.79629499 -196.24623108 145.12025452 C-194.9587967 140.88804834 -193.34935321 137.26175169 -191.12123108 133.44447327 C-190.19129333 131.84224915 -190.19129333 131.84224915 -189.24256897 130.20765686 C-188.58377747 129.08568909 -187.92498596 127.96372131 -187.24623108 126.80775452 C-186.56926092 125.6460738 -185.89275003 124.48412533 -185.21669006 123.32191467 C-183.23378495 119.91710065 -181.24068944 116.51831486 -179.24623108 113.12025452 C-178.69080627 112.17198792 -178.13538147 111.22372131 -177.56312561 110.24671936 C-174.80108606 105.53179371 -172.02964755 100.82259106 -169.24623108 96.12025452 C-160.76607013 96.73514786 -152.72506787 98.46134669 -144.46107483 100.39173889 C-143.48783264 100.61281311 -142.51459045 100.83388733 -141.51185608 101.06166077 C-140.64335022 101.26476868 -139.77484436 101.46787659 -138.88002014 101.67713928 C-133.15019997 102.67388714 -133.15019997 102.67388714 -127.89686584 100.64247131 C-125.50120395 98.39453616 -123.1373327 96.12527635 -120.80873108 93.80775452 C-119.96890686 93.04140686 -119.12908264 92.2750592 -118.2638092 91.48548889 C-113.81821707 87.16068807 -113.81821707 87.16068807 -111.84706116 81.457901 C-112.06213476 78.57127846 -112.56337278 75.93232493 -113.24623108 73.12025452 C-113.43918762 72.18447571 -113.63214417 71.2486969 -113.83094788 70.28456116 C-114.43778158 67.44379797 -115.1111231 64.62749771 -115.80873108 61.80775452 C-116.2745942 59.91735129 -116.73441906 58.02544785 -117.18763733 56.13197327 C-117.39074524 55.31172668 -117.59385315 54.4914801 -117.80311584 53.64637756 C-118.30833867 50.76618992 -118.31809725 48.03865751 -118.24623108 45.12025452 C-116.596543 44.16704038 -114.94678843 43.2139413 -113.29701233 42.26087952 C-112.23047424 41.64462708 -111.16393616 41.02837463 -110.06507874 40.39344788 C-107.71617946 39.03714317 -105.36546349 37.68406108 -103.01332092 36.33338928 C-97.31152865 33.05715784 -91.62560453 29.76227043 -85.98451233 26.38197327 C-85.0334259 25.81897522 -84.08233948 25.25597717 -83.10243225 24.67591858 C-81.30980252 23.61383314 -79.52447004 22.53931331 -77.74745178 21.4513092 C-76.94525208 20.97983459 -76.14305237 20.50835999 -75.31654358 20.02259827 C-74.62318909 19.60486145 -73.92983459 19.18712463 -73.21546936 18.75672913 C-71.24623108 18.12025452 -71.24623108 18.12025452 -69.15834045 18.85853577 C-66.38733842 20.68700085 -64.02487094 22.90903066 -61.62123108 25.18275452 C-60.55914213 26.17277901 -59.49663502 27.16235507 -58.43373108 28.15150452 C-57.63709045 28.89593811 -57.63709045 28.89593811 -56.82435608 29.65541077 C-53.65789508 32.5945763 -50.42659377 35.46209826 -47.20716858 38.34291077 C-45.85536339 39.56815252 -44.53630756 40.83017804 -43.24623108 42.12025452 C-41.35902295 41.94869014 -39.47120128 41.75649268 -37.60023499 41.45570374 C-35.24623108 41.12025452 -35.24623108 41.12025452 -32.80238342 41.01527405 C-25.94113375 40.71901974 -19.51463238 39.80771346 -14.24623108 35.12025452 C-8.54759244 26.12073805 -6.41129836 14.51213066 -4.03627014 4.25965881 C-3.00479834 0.16086527 -3.00479834 0.16086527 0 0 Z " fill="#000000" transform="translate(230.24623107910156,15.879745483398438)"/>
<path d="M0 0 C31.68 0 63.36 0 96 0 C96 5.28 96 10.56 96 16 C64.32 16 32.64 16 0 16 C0 10.72 0 5.44 0 0 Z " fill="#000000" transform="translate(256,408)"/>
<path d="M0 0 C5.28 0 10.56 0 16 0 C16 5.28 16 10.56 16 16 C10.72 16 5.44 16 0 16 C0 10.72 0 5.44 0 0 Z " fill="#000000" transform="translate(192,400)"/>
<path d="M0 0 C5.28 0 10.56 0 16 0 C16 5.28 16 10.56 16 16 C10.72 16 5.44 16 0 16 C0 10.72 0 5.44 0 0 Z " fill="#000000" transform="translate(160,400)"/>
<path d="M0 0 C5.28 0 10.56 0 16 0 C16 5.28 16 10.56 16 16 C10.72 16 5.44 16 0 16 C0 10.72 0 5.44 0 0 Z " fill="#000000" transform="translate(336,376)"/>
<path d="M0 0 C5.28 0 10.56 0 16 0 C16 5.28 16 10.56 16 16 C10.72 16 5.44 16 0 16 C0 10.72 0 5.44 0 0 Z " fill="#000000" transform="translate(296,376)"/>
<path d="M0 0 C5.28 0 10.56 0 16 0 C16 5.28 16 10.56 16 16 C10.72 16 5.44 16 0 16 C0 10.72 0 5.44 0 0 Z " fill="#000000" transform="translate(256,376)"/>
<path d="M0 0 C5.28 0 10.56 0 16 0 C16 5.28 16 10.56 16 16 C10.72 16 5.44 16 0 16 C0 10.72 0 5.44 0 0 Z " fill="#000000" transform="translate(192,360)"/>
<path d="M0 0 C5.28 0 10.56 0 16 0 C16 5.28 16 10.56 16 16 C10.72 16 5.44 16 0 16 C0 10.72 0 5.44 0 0 Z " fill="#000000" transform="translate(160,360)"/>
<path d="M0 0 C5.28 0 10.56 0 16 0 C16 5.28 16 10.56 16 16 C10.72 16 5.44 16 0 16 C0 10.72 0 5.44 0 0 Z " fill="#000000" transform="translate(336,344)"/>
<path d="M0 0 C5.28 0 10.56 0 16 0 C16 5.28 16 10.56 16 16 C10.72 16 5.44 16 0 16 C0 10.72 0 5.44 0 0 Z " fill="#000000" transform="translate(296,344)"/>
<path d="M0 0 C5.28 0 10.56 0 16 0 C16 5.28 16 10.56 16 16 C10.72 16 5.44 16 0 16 C0 10.72 0 5.44 0 0 Z " fill="#000000" transform="translate(256,344)"/>
<path d="M0 0 C5.28 0 10.56 0 16 0 C16 5.28 16 10.56 16 16 C10.72 16 5.44 16 0 16 C0 10.72 0 5.44 0 0 Z " fill="#000000" transform="translate(192,320)"/>
<path d="M0 0 C5.28 0 10.56 0 16 0 C16 5.28 16 10.56 16 16 C10.72 16 5.44 16 0 16 C0 10.72 0 5.44 0 0 Z " fill="#000000" transform="translate(160,320)"/>
<path d="M0 0 C5.28 0 10.56 0 16 0 C16 5.28 16 10.56 16 16 C10.72 16 5.44 16 0 16 C0 10.72 0 5.44 0 0 Z " fill="#000000" transform="translate(336,312)"/>
<path d="M0 0 C5.28 0 10.56 0 16 0 C16 5.28 16 10.56 16 16 C10.72 16 5.44 16 0 16 C0 10.72 0 5.44 0 0 Z " fill="#000000" transform="translate(296,312)"/>
<path d="M0 0 C5.28 0 10.56 0 16 0 C16 5.28 16 10.56 16 16 C10.72 16 5.44 16 0 16 C0 10.72 0 5.44 0 0 Z " fill="#000000" transform="translate(256,312)"/>
<path d="M0 0 C5.28 0 10.56 0 16 0 C16 5.28 16 10.56 16 16 C10.72 16 5.44 16 0 16 C0 10.72 0 5.44 0 0 Z " fill="#000000" transform="translate(336,280)"/>
<path d="M0 0 C5.28 0 10.56 0 16 0 C16 5.28 16 10.56 16 16 C10.72 16 5.44 16 0 16 C0 10.72 0 5.44 0 0 Z " fill="#000000" transform="translate(296,280)"/>
<path d="M0 0 C5.28 0 10.56 0 16 0 C16 5.28 16 10.56 16 16 C10.72 16 5.44 16 0 16 C0 10.72 0 5.44 0 0 Z " fill="#000000" transform="translate(256,280)"/>
<path d="M0 0 C5.28 0 10.56 0 16 0 C16 5.28 16 10.56 16 16 C10.72 16 5.44 16 0 16 C0 10.72 0 5.44 0 0 Z " fill="#000000" transform="translate(192,280)"/>
<path d="M0 0 C5.28 0 10.56 0 16 0 C16 5.28 16 10.56 16 16 C10.72 16 5.44 16 0 16 C0 10.72 0 5.44 0 0 Z " fill="#000000" transform="translate(160,280)"/>
<path d="M0 0 C5.28 0 10.56 0 16 0 C16 5.28 16 10.56 16 16 C10.72 16 5.44 16 0 16 C0 10.72 0 5.44 0 0 Z " fill="#000000" transform="translate(336,248)"/>
<path d="M0 0 C5.28 0 10.56 0 16 0 C16 5.28 16 10.56 16 16 C10.72 16 5.44 16 0 16 C0 10.72 0 5.44 0 0 Z " fill="#000000" transform="translate(296,248)"/>
<path d="M0 0 C5.28 0 10.56 0 16 0 C16 5.28 16 10.56 16 16 C10.72 16 5.44 16 0 16 C0 10.72 0 5.44 0 0 Z " fill="#000000" transform="translate(256,248)"/>
</svg>
