<?xml version="1.0" encoding="UTF-8"?>
<svg version="1.1" xmlns="http://www.w3.org/2000/svg" width="471" height="392">
<path d="M0 0 C155.43 0 310.86 0 471 0 C471 129.36 471 258.72 471 392 C315.57 392 160.14 392 0 392 C0 262.64 0 133.28 0 0 Z " fill="#FEFEFE" transform="translate(0,0)"/>
<path d="M0 0 C18.48 0 36.96 0 56 0 C55.37931641 6.00960937 55.37931641 6.00960937 54.74609375 12.140625 C54.5656697 23.86844816 57.83645479 30.80528574 65.69546509 39.28356934 C71.27999788 45.02551401 77.10472983 50.49324019 83.02813721 55.88208008 C86.44909594 59.02315059 89.7917645 62.24543181 93.14257812 65.4609375 C99.68909901 71.7207794 106.31518564 77.88828524 113 84 C122.48564109 76.0142539 131.52757448 67.54005025 140.47183037 58.95741749 C143.45456661 56.09862029 146.45636301 53.26947113 149.51953125 50.49682617 C152.511872 47.78661514 155.43149029 45.01346365 158.31641006 42.18933678 C159.40945559 41.14095286 160.5246213 40.11501963 161.66323471 39.11631203 C166.03924772 35.25611884 167.72516821 32.34955193 171 27 C171.33 18.09 171.66 9.18 172 0 C191.47 0 210.94 0 231 0 C231 17.16 231 34.32 231 52 C224.4 52 217.8 52 211 52 C211 101.5 211 151 211 202 C199.12 202 187.24 202 175 202 C174.67 160.09 174.34 118.18 174 75 C173.34 75 172.68 75 172 75 C171.79060791 75.56074219 171.58121582 76.12148437 171.36547852 76.69921875 C169.5294414 79.79287399 166.94281787 81.63267693 164.15234375 83.8125 C148.60488218 96.48206396 148.60488218 96.48206396 142.05859375 114.7265625 C141.3276764 123.50437888 142.39705412 132.22378777 143 141 C124.52 141 106.04 141 87 141 C86.8125 122.8125 86.8125 122.8125 86.79223633 117.09692383 C86.7657774 115.59192423 86.73749733 114.08695507 86.70703125 112.58203125 C86.71101929 111.8087146 86.71500732 111.03539795 86.71911621 110.23864746 C86.60728717 105.97748061 86.42720998 104.49041941 83.51831055 101.15112305 C82.68726807 100.44125244 81.85622559 99.73138184 81 99 C80.67 98.01 80.34 97.02 80 96 C78.515 95.505 78.515 95.505 77 95 C75.4921875 93.43359375 75.4921875 93.43359375 73.875 91.4375 C70.56164198 87.52043691 66.95517397 84.18738642 63.08984375 80.82421875 C60.59050276 78.642551 58.2355758 76.45192184 56 74 C56 73.34 56 72.68 56 72 C55.34 72 54.68 72 54 72 C53.67 95.43 53.34 118.86 53 143 C41.12 143 29.24 143 17 143 C17 113.96 17 84.92 17 55 C11.39 55 5.78 55 0 55 C0 36.85 0 18.7 0 0 Z " fill="#03A79D" transform="translate(165,125)"/>
<path d="M0 0 C1.42854437 -0.00644639 2.85708749 -0.01317603 4.28562927 -0.02017212 C7.27191213 -0.03209214 10.25807983 -0.03585874 13.24438477 -0.03466797 C17.02400537 -0.0344658 20.80286544 -0.06168464 24.58230686 -0.09621239 C27.53306797 -0.11873696 30.48365395 -0.12249772 33.43449211 -0.12144852 C34.82521097 -0.12376952 36.21593739 -0.13238872 37.60656929 -0.14811325 C59.99165901 -0.37742293 78.45563602 6.73628863 94.86328125 21.9609375 C106.06990726 33.13082048 114.68525462 48.055842 115.36634827 64.18344116 C115.36412766 65.16495148 115.36190704 66.14646179 115.35961914 67.15771484 C115.35954361 68.27842377 115.35946808 69.39913269 115.35939026 70.55380249 C115.35422897 71.74776642 115.34906769 72.94173035 115.34375 74.171875 C115.34162758 76.02360825 115.34162758 76.02360825 115.33946228 77.91275024 C115.33387647 81.84550425 115.3213265 85.77820078 115.30859375 89.7109375 C115.30301287 92.38150958 115.29901433 95.05208113 115.29492188 97.72265625 C115.28391167 104.26043619 115.2671876 110.79818274 115.24609375 117.3359375 C114.14873409 116.39977586 113.0520195 115.46285804 111.95556641 114.52563477 C111.34476227 114.00397232 110.73395813 113.48230988 110.10464478 112.94483948 C107.22056998 110.44816676 104.41831003 107.86655068 101.62109375 105.2734375 C101.07453125 104.77005859 100.52796875 104.26667969 99.96484375 103.74804688 C97.43299394 101.40699436 94.95878471 99.04490255 92.53515625 96.58984375 C90.26338808 94.21131216 90.26338808 94.21131216 87.24609375 92.3359375 C87.24609375 91.6759375 87.24609375 91.0159375 87.24609375 90.3359375 C86.66859375 90.0884375 86.09109375 89.8409375 85.49609375 89.5859375 C82.83799992 88.10921871 81.19578842 86.6779934 79.24609375 84.3359375 C78.77954102 81.74560547 78.77954102 81.74560547 78.8125 78.828125 C78.79799805 77.22324219 78.79799805 77.22324219 78.78320312 75.5859375 C78.79995414 73.35934055 78.82070084 71.13276959 78.84570312 68.90625 C78.75811891 60.2920848 76.88411954 54.03769793 71.58032227 47.18310547 C70.24609375 45.3359375 70.24609375 45.3359375 70.24609375 43.3359375 C69.15868141 42.92093239 69.15868141 42.92093239 68.04930115 42.49754333 C65.24609375 41.3359375 65.24609375 41.3359375 62.89222717 40.06898499 C54.94361783 35.87184458 47.70639371 35.61499599 38.8671875 35.70703125 C37.40470707 35.70620015 35.94222676 35.70373171 34.47975159 35.69972229 C31.43290683 35.69688285 28.38680474 35.71138257 25.34008789 35.73901367 C21.46117863 35.77312494 17.58359242 35.76705096 13.70461941 35.7483511 C10.690549 35.73771591 7.67677943 35.74677693 4.66273689 35.76173592 C3.23360148 35.76686853 1.80443399 35.76649669 0.37530327 35.76019096 C-11.99270184 35.72608386 -20.76753716 37.61380027 -29.84375 46.2578125 C-37.80797814 54.92237154 -38.05251455 64.50418464 -38.04443359 75.69995117 C-38.05042553 77.05095793 -38.0572326 78.40196129 -38.06478882 79.75296021 C-38.08239203 83.408212 -38.08714189 87.06337003 -38.08842039 90.71866012 C-38.08984619 93.0078215 -38.09412396 95.29695937 -38.09941483 97.58611488 C-38.11789889 105.58810553 -38.1260878 113.59002973 -38.12451172 121.59204102 C-38.12331193 129.02483706 -38.14438632 136.45734197 -38.17599905 143.89006442 C-38.20224737 150.2920524 -38.21287539 156.69394583 -38.2116009 163.09598714 C-38.21109362 166.91039583 -38.21664577 170.72454578 -38.237957 174.53890038 C-38.25748356 178.13172729 -38.25736703 181.72405256 -38.24292374 185.31689835 C-38.23987345 187.24446833 -38.25641216 189.17203915 -38.27380371 191.09953308 C-38.19206868 202.55695888 -36.00834937 212.13442263 -27.828125 220.49609375 C-18.55087917 228.72506321 -7.96077748 228.63762152 3.83203125 228.65478516 C5.30117843 228.66409548 6.77032038 228.67426578 8.23945618 228.68522644 C12.20785308 228.71241612 16.17621471 228.72764294 20.14468002 228.74065447 C24.29937514 228.75633353 28.45399873 228.78310842 32.60864258 228.8086853 C40.46715229 228.8553888 48.32567558 228.89217359 56.18425274 228.92535818 C65.1347355 228.96363927 74.08514626 229.01303367 83.03556824 229.06334233 C101.43903009 229.16653679 119.84252245 229.25437079 138.24609375 229.3359375 C138.24609375 240.8859375 138.24609375 252.4359375 138.24609375 264.3359375 C118.94758042 264.40383484 99.64916482 264.45902386 80.3505621 264.49137402 C71.38853089 264.5067985 62.42657954 264.52780281 53.46459961 264.56225586 C45.6471873 264.59229428 37.82983287 264.61154456 30.01236445 264.61820298 C25.87864768 264.62209095 21.7450964 264.63113437 17.61143303 264.65312767 C13.7085365 264.67372192 9.8058712 264.67972581 5.90292549 264.67526054 C4.48210003 264.67607562 3.06126559 264.6819032 1.64048767 264.69355392 C-10.90018337 264.79121313 -23.80069293 263.7822272 -35.00390625 257.6484375 C-35.65939453 257.30538574 -36.31488281 256.96233398 -36.99023438 256.60888672 C-42.91027402 253.42751644 -48.75279784 249.84964975 -53.75390625 245.3359375 C-53.75390625 244.6759375 -53.75390625 244.0159375 -53.75390625 243.3359375 C-54.74390625 243.0059375 -55.73390625 242.6759375 -56.75390625 242.3359375 C-75.43775137 221.33471624 -77.38730391 199.22923083 -77.29120827 172.3743248 C-77.28094496 168.59955504 -77.29051033 164.82482049 -77.29675293 161.05004883 C-77.30399115 154.71591096 -77.29454312 148.38196081 -77.27539062 142.04785156 C-77.25362917 134.76771782 -77.26068328 127.48803249 -77.28269625 120.20790958 C-77.30096035 113.91095985 -77.3033553 107.61414358 -77.29294157 101.31717587 C-77.28676657 97.5765799 -77.2857025 93.83619333 -77.29908752 90.09561157 C-77.38316329 62.91603916 -74.58477352 40.36419445 -54.63671875 20.1953125 C-38.94434946 5.56399309 -21.08556638 0.02259314 0 0 Z " fill="#A8A9AD" transform="translate(172.75390625,62.6640625)"/>
<path d="M0 0 C7.26 0 14.52 0 22 0 C22 0.33 22 0.66 22 1 C15.4 1 8.8 1 2 1 C2 50.5 2 100 2 151 C-9.88 151 -21.76 151 -34 151 C-34 109.42 -34 67.84 -34 25 C-33.67 25 -33.34 25 -33 25 C-33 65.92 -33 106.84 -33 149 C-22.11 149 -11.22 149 0 149 C0 99.83 0 50.66 0 0 Z " fill="#29A094" transform="translate(374,176)"/>
<path d="M0 0 C0.33 0 0.66 0 1 0 C1.06058594 0.75925781 1.12117188 1.51851563 1.18359375 2.30078125 C1.30927734 3.79158203 1.30927734 3.79158203 1.4375 5.3125 C1.51871094 6.29863281 1.59992188 7.28476563 1.68359375 8.30078125 C1.91812559 11.09375599 1.91812559 11.09375599 3 14 C3.12092382 16.76878903 3.18812 19.51165413 3.203125 22.28125 C3.20882507 23.0911438 3.21452515 23.9010376 3.22039795 24.73547363 C3.22983733 26.44684547 3.23637771 28.15823539 3.24023438 29.86962891 C3.24996372 32.49022882 3.28100579 35.11005208 3.3125 37.73046875 C3.31902799 39.39322451 3.32427926 41.05598587 3.328125 42.71875 C3.3404718 43.50318481 3.3528186 44.28761963 3.36553955 45.0958252 C3.34270266 50.65729734 3.34270266 50.65729734 0 54 C-5.94 54 -11.88 54 -18 54 C-18.33 102.18 -18.66 150.36 -19 200 C-19.33 200 -19.66 200 -20 200 C-20 150.83 -20 101.66 -20 51 C-13.4 51 -6.8 51 0 51 C0 34.17 0 17.34 0 0 Z " fill="#C9FBFA" transform="translate(396,126)"/>
<path d="M0 0 C0.66 0 1.32 0 2 0 C3.41015625 1.46875 3.41015625 1.46875 5.0625 3.5 C8.98725205 8.13683787 13.38478237 12.06502987 18 16 C17.67 16.66 17.34 17.32 17 18 C15.68 17.34 14.36 16.68 13 16 C13 15.01 13 14.02 13 13 C12.01 13 11.02 13 10 13 C8.64567325 11.68799596 7.31266518 10.35368596 6 9 C5.01 8.67 4.02 8.34 3 8 C3.00507568 9.02561035 3.01015137 10.0512207 3.01538086 11.10791016 C3.04834982 20.81348044 2.92242025 30.50354496 2.62768555 40.20458984 C2.56188714 42.39540586 2.50245088 44.58633768 2.44335938 46.77734375 C1.91007807 65.5696385 1.91007807 65.5696385 1 70 C0.01 70.495 0.01 70.495 -1 71 C-1.02558877 63.2994051 -1.04296597 55.59882137 -1.05493164 47.89819336 C-1.0599259 45.28458242 -1.06672361 42.67097422 -1.07543945 40.05737305 C-1.16597155 12.18946356 -1.16597155 12.18946356 0 0 Z " fill="#CCF3F1" transform="translate(219,197)"/>
<path d="M0 0 C-0.6612085 0.47791992 -1.32241699 0.95583984 -2.00366211 1.44824219 C-15.74666271 11.6991345 -15.74666271 11.6991345 -23.14013672 26.57519531 C-24.54124449 37.09484661 -23.55949667 47.36956331 -23 58 C-41.15 58 -59.3 58 -78 58 C-78 46.12 -78 34.24 -78 22 C-76 24 -76 24 -75.77294922 27.16455078 C-75.77344927 28.50817958 -75.78449321 29.85183538 -75.8046875 31.1953125 C-75.80968262 32.48969238 -75.81467773 33.78407227 -75.81982422 35.11767578 C-75.83803223 36.77009277 -75.85624023 38.42250977 -75.875 40.125 C-75.91625 45.36375 -75.9575 50.6025 -76 56 C-58.84 56.33 -41.68 56.66 -24 57 C-24 44.13 -24 31.26 -24 18 C-22.68 18 -21.36 18 -20 18 C-20.495 16.515 -20.495 16.515 -21 15 C-17.82679218 11.46413986 -15.83256305 9.41421969 -11 9 C-10.814375 8.0409375 -10.814375 8.0409375 -10.625 7.0625 C-10.41875 6.381875 -10.2125 5.70125 -10 5 C-9.34 4.67 -8.68 4.34 -8 4 C-7.5359375 3.01 -7.5359375 3.01 -7.0625 2 C-5.24114001 -1.42844234 -3.44339345 -1.14779782 0 0 Z " fill="#22978D" transform="translate(331,208)"/>
<path d="M0 0 C0.33 0 0.66 0 1 0 C1 23.43 1 46.86 1 71 C-10.55 71 -22.1 71 -34 71 C-34 65.39 -34 59.78 -34 54 C-33.67 54 -33.34 54 -33 54 C-33 58.62 -33 63.24 -33 68 C-22.44 68 -11.88 68 -1 68 C-0.67 45.56 -0.34 23.12 0 0 Z " fill="#1D998E" transform="translate(217,197)"/>
<path d="M0 0 C20.13 0 40.26 0 61 0 C61 0.33 61 0.66 61 1 C41.53 1 22.06 1 2 1 C2 9.91 2 18.82 2 28 C-3.34175856 34.46853575 -7.39524611 39.32199862 -14 44 C-14.495 42.515 -14.495 42.515 -15 41 C-14.34 41 -13.68 41 -13 41 C-12.7525 40.443125 -12.505 39.88625 -12.25 39.3125 C-10.76129471 36.55839521 -9.11590028 34.30825486 -7 32 C-6.01 32 -5.02 32 -4 32 C-3.67 30.68 -3.34 29.36 -3 28 C-2.01 28 -1.02 28 0 28 C0 18.76 0 9.52 0 0 Z " fill="#DCFEFE" transform="translate(335,124)"/>
<path d="M0 0 C1.32 0 2.64 0 4 0 C4 0.66 4 1.32 4 2 C4.66 2.33 5.32 2.66 6 3 C5.505 3.78375 5.01 4.5675 4.5 5.375 C2.83462035 7.78552327 2.83462035 7.78552327 3 10 C2.34 10 1.68 10 1 10 C0.7525 10.763125 0.505 11.52625 0.25 12.3125 C-1.13305995 15.28607889 -2.23004483 16.32123929 -5 18 C-5.99 18.33 -6.98 18.66 -8 19 C-9.34090759 19.65129797 -10.67592331 20.31513275 -12 21 C-13.24546405 18.50907189 -12.7767578 17.58919267 -12 15 C-11.34 15 -10.68 15 -10 15 C-10 13.68 -10 12.36 -10 11 C-7.625 8.25 -7.625 8.25 -5 6 C-4.34 6 -3.68 6 -3 6 C-2.690625 5.38125 -2.38125 4.7625 -2.0625 4.125 C-1.375 2.75 -0.6875 1.375 0 0 Z " fill="#10ADA6" transform="translate(316,204)"/>
<path d="M0 0 C0.33 0 0.66 0 1 0 C1.06058594 0.75925781 1.12117188 1.51851563 1.18359375 2.30078125 C1.30927734 3.79158203 1.30927734 3.79158203 1.4375 5.3125 C1.51871094 6.29863281 1.59992188 7.28476563 1.68359375 8.30078125 C1.91812559 11.09375599 1.91812559 11.09375599 3 14 C3.12092382 16.76878903 3.18812 19.51165413 3.203125 22.28125 C3.20882507 23.0911438 3.21452515 23.9010376 3.22039795 24.73547363 C3.22983733 26.44684547 3.23637771 28.15823539 3.24023438 29.86962891 C3.24996372 32.49022882 3.28100579 35.11005208 3.3125 37.73046875 C3.31902799 39.39322451 3.32427926 41.05598587 3.328125 42.71875 C3.3404718 43.50318481 3.3528186 44.28761963 3.36553955 45.0958252 C3.34354072 50.45320604 3.34354072 50.45320604 1.74389648 52.99926758 C-0.41261888 54.23678074 -1.74995807 54.34574557 -4.23046875 54.29296875 C-5.03291016 54.28330078 -5.83535156 54.27363281 -6.66210938 54.26367188 C-7.49548828 54.23853516 -8.32886719 54.21339844 -9.1875 54.1875 C-10.4549707 54.16719727 -10.4549707 54.16719727 -11.74804688 54.14648438 C-13.83230384 54.11115799 -15.91623277 54.05735139 -18 54 C-18 58.62 -18 63.24 -18 68 C-18.33 68 -18.66 68 -19 68 C-19 62.72 -19 57.44 -19 52 C-12.73 52 -6.46 52 0 52 C0 34.84 0 17.68 0 0 Z " fill="#DFFEFD" transform="translate(396,126)"/>
<path d="M0 0 C0 3.61537605 -0.89229241 5.11165997 -3 8 C-3.99 8 -4.98 8 -6 8 C-6.103125 8.556875 -6.20625 9.11375 -6.3125 9.6875 C-7.15531466 12.52242204 -8.25558821 14.60950977 -10 17 C-11.32594105 17.36162029 -12.65938457 17.69728039 -14 18 C-15.16666667 19.91666667 -15.16666667 19.91666667 -16 22 C-16.66 22.66 -17.32 23.32 -18 24 C-18.99 24 -19.98 24 -21 24 C-21.2475 24.515625 -21.495 25.03125 -21.75 25.5625 C-23.39581616 28.77184151 -25.1976096 31.87585664 -27 35 C-28.32 33.68 -29.64 32.36 -31 31 C-20.77 20.77 -10.54 10.54 0 0 Z " fill="#14A293" transform="translate(323,165)"/>
<path d="M0 0 C2.02907167 3.3146667 2.12742133 5.4315979 1.625 9.25 C1.45871094 10.58804688 1.45871094 10.58804688 1.2890625 11.953125 C1.14597656 12.96632812 1.14597656 12.96632812 1 14 C0.67 14 0.34 14 0 14 C-0.33 39.08 -0.66 64.16 -1 90 C-1.33 90 -1.66 90 -2 90 C-2 60.96 -2 31.92 -2 2 C-7.61 2 -13.22 2 -19 2 C-19 1.67 -19 1.34 -19 1 C-16.20837429 0.83262201 -13.41670379 0.66606598 -10.625 0.5 C-9.8309375 0.45230469 -9.036875 0.40460938 -8.21875 0.35546875 C-2.2265625 0 -2.2265625 0 0 0 Z " fill="#47ABA3" transform="translate(184,178)"/>
<path d="M0 0 C19.14 0 38.28 0 58 0 C57.67 0.99 57.34 1.98 57 3 C57 2.34 57 1.68 57 1 C38.52 1 20.04 1 1 1 C1 9.58 1 18.16 1 27 C-1 31 -1 31 -3.9375 32.9375 C-7.08167763 35.05500739 -8.32882685 36.6576537 -10 40 C-10.99 39.34 -11.98 38.68 -13 38 C-12.14535156 37.43539062 -11.29070312 36.87078125 -10.41015625 36.2890625 C-6.23587596 33.17216282 -6.23587596 33.17216282 -1 26 C-0.67 17.42 -0.34 8.84 0 0 Z " fill="#1B968C" transform="translate(337,126)"/>
<path d="M0 0 C0 18.15 0 36.3 0 55 C-0.66 55 -1.32 55 -2 55 C-2.33 37.18 -2.66 19.36 -3 1 C-1 0 -1 0 0 0 Z " fill="#BEF3EF" transform="translate(165,125)"/>
<path d="M0 0 C2 1 2 1 2 1 Z M-2 2 C-1.67 2.66 -1.34 3.32 -1 4 C-0.34 4 0.32 4 1 4 C1.66 5.32 2.32 6.64 3 8 C-0.75 9.125 -0.75 9.125 -3 8 C-2.67 9.32 -2.34 10.64 -2 12 C-2.99 12.33 -3.98 12.66 -5 13 C-6.20882096 15.00016466 -6.20882096 15.00016466 -7 17 C-7.99 16.01 -8.98 15.02 -10 14 C-10 15.98 -10 17.96 -10 20 C-10.66 20.33 -11.32 20.66 -12 21 C-13.54428931 15.06042573 -13.54428931 15.06042573 -12.09375 12.234375 C-10.20552115 9.86257534 -8.54156443 8.20491627 -5.6875 7.125 C-4.8521875 7.063125 -4.8521875 7.063125 -4 7 C-3.855625 6.360625 -3.71125 5.72125 -3.5625 5.0625 C-3 3 -3 3 -2 2 Z " fill="#12ADA5" transform="translate(196,232)"/>
<path d="M0 0 C0.66 0 1.32 0 2 0 C2 2.97 2 5.94 2 9 C1.34 9 0.68 9 0 9 C0 9.99 0 10.98 0 12 C-0.66 12 -1.32 12 -2 12 C-2 11.34 -2 10.68 -2 10 C-2.66 10 -3.32 10 -4 10 C-4 10.66 -4 11.32 -4 12 C-4.66 12 -5.32 12 -6 12 C-6 12.66 -6 13.32 -6 14 C-6.66 14 -7.32 14 -8 14 C-8.33 15.32 -8.66 16.64 -9 18 C-9.28875 17.195625 -9.5775 16.39125 -9.875 15.5625 C-10.73262568 12.8673532 -10.73262568 12.8673532 -13 12 C-12.51789063 11.68546875 -12.03578125 11.3709375 -11.5390625 11.046875 C-6.74628648 7.90611252 -6.74628648 7.90611252 -4 3 C-2.68 3 -1.36 3 0 3 C0 2.01 0 1.02 0 0 Z " fill="#0EAEA4" transform="translate(393,129)"/>
<path d="M0 0 C1.2684375 0.2475 1.2684375 0.2475 2.5625 0.5 C2.5625 2.48 2.5625 4.46 2.5625 6.5 C1.923125 6.78875 1.28375 7.0775 0.625 7.375 C-1.58956079 8.32823451 -1.58956079 8.32823451 -2.4375 10.5 C-3.4275 10.83 -4.4175 11.16 -5.4375 11.5 C-5.7675 12.16 -6.0975 12.82 -6.4375 13.5 C-7.0975 13.5 -7.7575 13.5 -8.4375 13.5 C-9.0975 11.85 -9.7575 10.2 -10.4375 8.5 C-4.52065098 0.65754923 -4.52065098 0.65754923 0 0 Z " fill="#0FAEA6" transform="translate(372.4375,151.5)"/>
<path d="M0 0 C0.99 0.33 1.98 0.66 3 1 C4.1875 3.5625 4.1875 3.5625 5 6 C4.01 6.33 3.02 6.66 2 7 C1.67 7.99 1.34 8.98 1 10 C-0.32 10 -1.64 10 -3 10 C-3.33 11.65 -3.66 13.3 -4 15 C-4.66 14.67 -5.32 14.34 -6 14 C-6 13.34 -6 12.68 -6 12 C-6.66 12 -7.32 12 -8 12 C-8.36625971 7.48279689 -8.36625971 7.48279689 -6.625 5.1875 C-5 4 -5 4 -3 4 C-2.67 3.01 -2.34 2.02 -2 1 C-1.34 0.67 -0.68 0.34 0 0 Z M1 1 C2 3 2 3 2 3 Z " fill="#0FAEA6" transform="translate(350,265)"/>
<path d="M0 0 C0.99 0.33 1.98 0.66 3 1 C2.9278125 1.78117188 2.855625 2.56234375 2.78125 3.3671875 C2.07952171 12.11929863 1.86128356 20.84517839 1.8125 29.625 C1.79960937 30.76308105 1.78671875 31.90116211 1.7734375 33.07373047 C1.77214844 34.15541504 1.77085937 35.23709961 1.76953125 36.3515625 C1.76542236 37.31916504 1.76131348 38.28676758 1.75708008 39.28369141 C2.01682216 42.18810388 2.91009067 44.31710228 4 47 C3.125 49.3125 3.125 49.3125 2 51 C1.34 51 0.68 51 0 51 C0 34.17 0 17.34 0 0 Z " fill="#0FA394" transform="translate(166,127)"/>
<path d="M0 0 C0.99 0.495 0.99 0.495 2 1 C2.02187378 2.10456543 2.02187378 2.10456543 2.04418945 3.23144531 C2.11871111 6.57149004 2.21535873 9.91053981 2.3125 13.25 C2.33505859 14.40886719 2.35761719 15.56773437 2.38085938 16.76171875 C2.41630859 17.87675781 2.45175781 18.99179688 2.48828125 20.140625 C2.51446533 21.16704102 2.54064941 22.19345703 2.56762695 23.25097656 C3.05770561 26.36689166 3.81070391 27.75678672 6 30 C6.99 30.33 7.98 30.66 9 31 C9 32.65 9 34.3 9 36 C7.87411986 35.04270084 6.7493285 34.08412105 5.625 33.125 C4.99851563 32.59132812 4.37203125 32.05765625 3.7265625 31.5078125 C0.02213601 28.27272511 0.02213601 28.27272511 -0.22705078 25.20263672 C-0.21134033 23.45877686 -0.21134033 23.45877686 -0.1953125 21.6796875 C-0.18886719 20.42285156 -0.18242187 19.16601562 -0.17578125 17.87109375 C-0.15902344 16.55238281 -0.14226562 15.23367187 -0.125 13.875 C-0.11496983 12.53516279 -0.10584404 11.19531848 -0.09765625 9.85546875 C-0.07402075 6.57013427 -0.04107234 3.28515535 0 0 Z " fill="#DFFEFE" transform="translate(221,125)"/>
<path d="M0 0 C5.66129431 4.69766975 10.85228904 9.74723372 16 15 C16.42410156 14.63648438 16.84820312 14.27296875 17.28515625 13.8984375 C21.5234375 10.265625 25.76171875 6.6328125 30 3 C28.66666667 5.66666667 27.33333333 8.33333333 26 11 C25.01 11 24.02 11 23 11 C22.9071875 11.8971875 22.9071875 11.8971875 22.8125 12.8125 C22 15 22 15 19.6875 16.8125 C17 18 17 18 14.9375 18.0625 C11.96880392 16.43450538 10.79508363 13.82861664 9 11 C6.6342386 8.51595053 4.17885496 6.16918712 1.6875 3.8125 C0 2 0 2 0 0 Z " fill="#1E9C93" transform="translate(262,194)"/>
<path d="M0 0 C0.33 0 0.66 0 1 0 C3.781893 24.37366255 3.781893 24.37366255 -2.5625 32.35546875 C-6.35583427 36.33401102 -10.51637078 39.8243444 -15 43 C-15.495 41.515 -15.495 41.515 -16 40 C-15.34 40 -14.68 40 -14 40 C-13.7525 39.443125 -13.505 38.88625 -13.25 38.3125 C-11.76129471 35.55839521 -10.11590028 33.30825486 -8 31 C-7.01 31 -6.02 31 -5 31 C-4.67 29.68 -4.34 28.36 -4 27 C-3.01 27 -2.02 27 -1 27 C-0.67 18.09 -0.34 9.18 0 0 Z " fill="#BBF5F3" transform="translate(336,125)"/>
<path d="M0 0 C11.88 0 23.76 0 36 0 C35.67 1.32 35.34 2.64 35 4 C34.505 3.01 34.505 3.01 34 2 C23.11 2 12.22 2 1 2 C0.67 1.34 0.34 0.68 0 0 Z " fill="#D2FEFC" transform="translate(182,268)"/>
<path d="M0 0 C0 1.66666667 0 3.33333333 0 5 C-0.66 5 -1.32 5 -2 5 C-2 5.66 -2 6.32 -2 7 C-2.639375 7.28875 -3.27875 7.5775 -3.9375 7.875 C-6.15206079 8.82823451 -6.15206079 8.82823451 -7 11 C-7.15644172 13.55106029 -7.25821389 16.07918663 -7.31640625 18.6328125 C-7.33718735 19.38464813 -7.35796844 20.13648376 -7.37937927 20.91110229 C-7.44482705 23.31564085 -7.50373738 25.72028967 -7.5625 28.125 C-7.60568977 29.75391771 -7.64930421 31.38282422 -7.69335938 33.01171875 C-7.80050351 37.00769915 -7.90178433 41.00379059 -8 45 C-8.33 45 -8.66 45 -9 45 C-9.22412857 40.03813826 -9.38652741 35.079278 -9.49438477 30.11352539 C-9.53937863 28.42843257 -9.6006011 26.74368586 -9.67895508 25.05981445 C-10.3145957 11.03833011 -10.3145957 11.03833011 -6.95654297 5.83154297 C-4.74650119 3.62150119 -2.58672343 1.74684029 0 0 Z " fill="#C3FAF9" transform="translate(317,221)"/>
<path d="M0 0 C-0.25 1.875 -0.25 1.875 -1 4 C-2.3153341 4.70151152 -3.65117592 5.36525925 -5 6 C-6.01241685 7.32392972 -7.01439389 8.65599167 -8 10 C-8.66 10 -9.32 10 -10 10 C-10.33 11.32 -10.66 12.64 -11 14 C-12.32 14.33 -13.64 14.66 -15 15 C-15.33 16.32 -15.66 17.64 -16 19 C-17.65 19.33 -19.3 19.66 -21 20 C-17.0060348 15.09312847 -12.6959047 10.55729437 -8.25 6.0625 C-7.67096924 5.47057861 -7.09193848 4.87865723 -6.49536133 4.26879883 C-2.2365407 0 -2.2365407 0 0 0 Z " fill="#DDFDFD" transform="translate(339,201)"/>
<path d="M0 0 C5.06623768 4.23816537 9.80038069 8.67408963 14.4375 13.375 C15.07365234 14.01566406 15.70980469 14.65632812 16.36523438 15.31640625 C17.91250332 16.87530879 19.45736492 18.43651416 21 20 C17.07290865 20 16.1810287 18.72099538 13.3125 16.125 C12.50425781 15.40570313 11.69601563 14.68640625 10.86328125 13.9453125 C9 12 9 12 9 10 C8.236875 9.731875 7.47375 9.46375 6.6875 9.1875 C4.04084828 8.01804924 2.70444384 7.30099918 1 5 C0.3125 2.3125 0.3125 2.3125 0 0 Z " fill="#1C9A8F" transform="translate(239,171)"/>
<path d="M0 0 C-4.95 4.95 -9.9 9.9 -15 15 C-16 12 -16 12 -15 9 C-13.68 9 -12.36 9 -11 9 C-10.814375 8.0409375 -10.814375 8.0409375 -10.625 7.0625 C-10.41875 6.381875 -10.2125 5.70125 -10 5 C-9.34 4.67 -8.68 4.34 -8 4 C-7.690625 3.34 -7.38125 2.68 -7.0625 2 C-5.24114001 -1.42844234 -3.44339345 -1.14779782 0 0 Z " fill="#34A49A" transform="translate(331,208)"/>
<path d="M0 0 C2 3.75 2 3.75 2 6 C2.66 6 3.32 6 4 6 C4 6.66 4 7.32 4 8 C3.01 8 2.02 8 1 8 C1 8.99 1 9.98 1 11 C-0.98 11.66 -2.96 12.32 -5 13 C-5.6875 11.1875 -5.6875 11.1875 -6 9 C-4.6875 7.25 -4.6875 7.25 -3 6 C-2.34 6 -1.68 6 -1 6 C-0.67 4.02 -0.34 2.04 0 0 Z " fill="#10AFA6" transform="translate(213,213)"/>
<path d="M0 0 C4.70038871 3.73754092 4.70038871 3.73754092 5.44692993 6.88320923 C5.57730576 9.13098074 5.5624006 11.33165214 5.48828125 13.58203125 C5.48120651 14.39621017 5.47413177 15.2103891 5.46684265 16.04924011 C5.43895598 18.63794643 5.37623316 21.22445273 5.3125 23.8125 C5.2874095 25.57223428 5.26459764 27.33200263 5.24414062 29.09179688 C5.18914872 33.39537296 5.10291992 37.6973141 5 42 C4.67 42 4.34 42 4 42 C3.67 29.46 3.34 16.92 3 4 C2.01 4 1.02 4 0 4 C0 2.68 0 1.36 0 0 Z " fill="#DEFEFE" transform="translate(247,224)"/>
<path d="M0 0 C0.99 0.33 1.98 0.66 3 1 C-0.96 4.96 -4.92 8.92 -9 13 C-10.65 11.35 -12.3 9.7 -14 8 C-11.525 8.495 -11.525 8.495 -9 9 C-8.34 8.01 -7.68 7.02 -7 6 C-6.01 6 -5.02 6 -4 6 C-3.71125 5.195625 -3.4225 4.39125 -3.125 3.5625 C-2 1 -2 1 0 0 Z " fill="#CDF6F5" transform="translate(288,197)"/>
<path d="M0 0 C3.96 0 7.92 0 12 0 C10.68 0.33 9.36 0.66 8 1 C8 1.99 8 2.98 8 4 C7.01 4.66 6.02 5.32 5 6 C5 6.99 5 7.98 5 9 C4.01 8.67 3.02 8.34 2 8 C1.6278958 6.67696283 1.29369827 5.34262065 1 4 C0.34 3.67 -0.32 3.34 -1 3 C-0.67 2.01 -0.34 1.02 0 0 Z " fill="#11ACA2" transform="translate(206,127)"/>
<path d="M0 0 C0.99 0.33 1.98 0.66 3 1 C3.125 6.75 3.125 6.75 2 9 C-1.36591866 7.55746343 -3.51047079 5.66735273 -6 3 C-5.195625 2.87625 -4.39125 2.7525 -3.5625 2.625 C-2.716875 2.41875 -1.87125 2.2125 -1 2 C-0.67 1.34 -0.34 0.68 0 0 Z " fill="#B3B4B7" transform="translate(125,304)"/>
<path d="M0 0 C2 0 2 0 3.625 1.5 C4.07875 1.995 4.5325 2.49 5 3 C4.67 3.99 4.34 4.98 4 6 C3.01 5.67 2.02 5.34 1 5 C1 5.66 1 6.32 1 7 C0.34 7 -0.32 7 -1 7 C-1 6.34 -1 5.68 -1 5 C-1.66 5 -2.32 5 -3 5 C-2.67 6.32 -2.34 7.64 -2 9 C-3.32 8.34 -4.64 7.68 -6 7 C-5.34 5.68 -4.68 4.36 -4 3 C-2.68 3 -1.36 3 0 3 C0 2.01 0 1.02 0 0 Z " fill="#10B1A6" transform="translate(326,196)"/>
<path d="M0 0 C1.65 0.33 3.3 0.66 5 1 C4.75 4.375 4.75 4.375 4 8 C1.9375 9.4375 1.9375 9.4375 0 10 C-0.33 9.01 -0.66 8.02 -1 7 C-0.33333333 5.66666667 0.33333333 4.33333333 1 3 C0.67 2.01 0.34 1.02 0 0 Z " fill="#10AEA6" transform="translate(360,255)"/>
<path d="M0 0 C2.02907167 3.3146667 2.12742133 5.4315979 1.625 9.25 C1.45871094 10.58804688 1.45871094 10.58804688 1.2890625 11.953125 C1.14597656 12.96632812 1.14597656 12.96632812 1 14 C0.67 14 0.34 14 0 14 C-0.33 10.04 -0.66 6.08 -1 2 C-6.94 2 -12.88 2 -19 2 C-19 1.67 -19 1.34 -19 1 C-16.20837429 0.83262201 -13.41670379 0.66606598 -10.625 0.5 C-9.8309375 0.45230469 -9.036875 0.40460938 -8.21875 0.35546875 C-2.2265625 0 -2.2265625 0 0 0 Z " fill="#2AA59C" transform="translate(184,178)"/>
<path d="M0 0 C4.26737546 0.47415283 6.14301573 2.99650372 9 6 C9.99 6.66 10.98 7.32 12 8 C11.67 9.32 11.34 10.64 11 12 C9.16364422 10.19047409 7.33083792 8.37759362 5.5 6.5625 C4.97535156 6.04623047 4.45070312 5.52996094 3.91015625 4.99804688 C2.58775448 3.68423213 1.29164432 2.34406495 0 1 C0 0.67 0 0.34 0 0 Z " fill="#CAF7F6" transform="translate(240,171)"/>
<path d="M0 0 C0.99 1.0209375 0.99 1.0209375 2 2.0625 C5.49468234 5.56725347 9.25130779 8.77221788 13 12 C12.67 12.66 12.34 13.32 12 14 C10.68 13.34 9.36 12.68 8 12 C8 11.01 8 10.02 8 9 C7.01 9 6.02 9 5 9 C2.33182899 6.88115832 1.15363095 5.56331349 0.25 2.25 C0.1675 1.5075 0.085 0.765 0 0 Z " fill="#C6F0F0" transform="translate(224,201)"/>
<path d="M0 0 C0.99 0.33 1.98 0.66 3 1 C-0.3 4.3 -3.6 7.6 -7 11 C-7.33 10.01 -7.66 9.02 -8 8 C-6.85546875 6.2109375 -6.85546875 6.2109375 -5.1875 4.375 C-4.64480469 3.76398438 -4.10210937 3.15296875 -3.54296875 2.5234375 C-2 1 -2 1 0 0 Z " fill="#C9F5F3" transform="translate(306,179)"/>
<path d="M0 0 C0.99 0.33 1.98 0.66 3 1 C-0.3810038 5.13621084 -3.66590534 8.81316569 -8 12 C-8.33 11.34 -8.66 10.68 -9 10 C-8.34 10 -7.68 10 -7 10 C-6.773125 9.21625 -6.54625 8.4325 -6.3125 7.625 C-5 5 -5 5 -2.375 3.6875 C-1.59125 3.460625 -0.8075 3.23375 0 3 C0 2.01 0 1.02 0 0 Z " fill="#CCF5F2" transform="translate(317,167)"/>
<path d="M0 0 C0.66 0.33 1.32 0.66 2 1 C0.66749209 4.5875213 -0.830717 7.8364623 -3 11 C-3.66 11 -4.32 11 -5 11 C-5 9.02 -5 7.04 -5 5 C-4.34 5 -3.68 5 -3 5 C-2.5359375 4.0409375 -2.5359375 4.0409375 -2.0625 3.0625 C-1 1 -1 1 0 0 Z " fill="#0FAEA7" transform="translate(370,245)"/>
<path d="M0 0 C2.475 0.495 2.475 0.495 5 1 C5 1.66 5 2.32 5 3 C5.99 3 6.98 3 8 3 C7.67 3.99 7.34 4.98 7 6 C6.01 5.34 5.02 4.68 4 4 C4 3.34 4 2.68 4 2 C3.34 2 2.68 2 2 2 C2 6.95 2 11.9 2 17 C1.67 17 1.34 17 1 17 C0.67 11.39 0.34 5.78 0 0 Z " fill="#40A9A1" transform="translate(217,195)"/>
<path d="M0 0 C1.32 0.33 2.64 0.66 4 1 C4 1.66 4 2.32 4 3 C5.2065625 3.3403125 5.2065625 3.3403125 6.4375 3.6875 C7.283125 4.120625 8.12875 4.55375 9 5 C9.8125 7.625 9.8125 7.625 10 10 C2.51708428 3.84965831 2.51708428 3.84965831 0 0 Z " fill="#CAF6F5" transform="translate(230,161)"/>
<path d="M0 0 C4.88049925 3.9419417 9.0580583 8.11950075 13 13 C10 13 10 13 8.28125 11.35546875 C7.6934375 10.64003906 7.105625 9.92460937 6.5 9.1875 C4.0034828 6.17056027 4.0034828 6.17056027 1.28125 3.36328125 C0 2 0 2 0 0 Z " fill="#24978C" transform="translate(262,194)"/>
<path d="M0 0 C4.52615993 3.67832017 8.39424999 7.41086363 12 12 C8.83831632 10.56869725 6.37725517 8.82485862 3.75 6.5625 C3.04359375 5.96566406 2.3371875 5.36882812 1.609375 4.75390625 C0 3 0 3 0 0 Z " fill="#2D9F94" transform="translate(248,180)"/>
<path d="M0 0 C5.61 0.33 11.22 0.66 17 1 C17 2.65 17 4.3 17 6 C16.01 6.495 16.01 6.495 15 7 C14.67 5.68 14.34 4.36 14 3 C7.07 2.505 7.07 2.505 0 2 C0 1.34 0 0.68 0 0 Z " fill="#EBFEFE" transform="translate(164,180)"/>
<path d="M0 0 C1.65 0 3.3 0 5 0 C4.38125 0.2475 3.7625 0.495 3.125 0.75 C0.58707638 2.24289625 0.2585312 3.40427941 -1 6 C-3.125 7.75 -3.125 7.75 -5 9 C-4.67 7.02 -4.34 5.04 -4 3 C-2.68 3 -1.36 3 0 3 C0 2.01 0 1.02 0 0 Z " fill="#31A399" transform="translate(336,198)"/>
<path d="M0 0 C0.66 0.33 1.32 0.66 2 1 C0.6875 3.9375 0.6875 3.9375 -1 7 C-1.99 7.33 -2.98 7.66 -4 8 C-4.33 7.01 -4.66 6.02 -5 5 C-3.35 3.35 -1.7 1.7 0 0 Z " fill="#1BA297" transform="translate(315,218)"/>
<path d="M0 0 C3.58273331 1.65356922 6.80973467 3.67980703 10 6 C10 6.66 10 7.32 10 8 C6.63486826 7.41980487 5.36548527 6.36548527 3 4 C0.89667109 3.28552357 0.89667109 3.28552357 -1 3 C-0.67 2.01 -0.34 1.02 0 0 Z " fill="#0FA096" transform="translate(252,187)"/>
<path d="M0 0 C0 1.66666667 0 3.33333333 0 5 C-0.66 5 -1.32 5 -2 5 C-2 5.66 -2 6.32 -2 7 C-2.61875 7.28875 -3.2375 7.5775 -3.875 7.875 C-6.13325765 8.93720042 -6.13325765 8.93720042 -8 11 C-7.43040847 7.37386801 -6.07625466 5.74482259 -3.4375 3.25 C-2.79683594 2.63640625 -2.15617187 2.0228125 -1.49609375 1.390625 C-1.00238281 0.93171875 -0.50867188 0.4728125 0 0 Z " fill="#DBFDFC" transform="translate(317,221)"/>
<path d="M0 0 C3 0 3 0 4.82421875 1.75 C5.43910156 2.4925 6.05398437 3.235 6.6875 4 C7.31011719 4.7425 7.93273437 5.485 8.57421875 6.25 C9.04472656 6.8275 9.51523438 7.405 10 8 C9.67 8.66 9.34 9.32 9 10 C6.95880212 8.38405168 4.95927063 6.7143618 3 5 C3 4.34 3 3.68 3 3 C2.01 2.67 1.02 2.34 0 2 C0 1.34 0 0.68 0 0 Z " fill="#269E91" transform="translate(242,218)"/>
<path d="M0 0 C0.66 0 1.32 0 2 0 C3.125 2.25 3.125 2.25 4 5 C3.125 7.3125 3.125 7.3125 2 9 C1.34 9 0.68 9 0 9 C0 6.03 0 3.06 0 0 Z " fill="#19ACA1" transform="translate(166,169)"/>
<path d="M0 0 C0 3 0 3 -1.9375 5 C-2.618125 5.66 -3.29875 6.32 -4 7 C-4.33 7.99 -4.66 8.98 -5 10 C-6.32 9.67 -7.64 9.34 -9 9 C-6.03 6.03 -3.06 3.06 0 0 Z " fill="#259C91" transform="translate(309,179)"/>
<path d="M0 0 C0.99 0.33 1.98 0.66 3 1 C0.36 3.64 -2.28 6.28 -5 9 C-5.33 8.01 -5.66 7.02 -6 6 C-5.34 6 -4.68 6 -4 6 C-3.71125 5.38125 -3.4225 4.7625 -3.125 4.125 C-2 2 -2 2 0 0 Z " fill="#C5F4F2" transform="translate(326,159)"/>
<path d="M0 0 C4.82029598 3.85623679 4.82029598 3.85623679 5.33203125 7.11328125 C5.3145776 9.07856214 5.16596091 11.04166127 5 13 C4.67 13 4.34 13 4 13 C3.67 10.03 3.34 7.06 3 4 C2.01 4 1.02 4 0 4 C0 2.68 0 1.36 0 0 Z " fill="#C8F3F2" transform="translate(247,224)"/>
<path d="M0 0 C2.97 0.495 2.97 0.495 6 1 C6.33 2.98 6.66 4.96 7 7 C5.83040013 6.02433888 4.66438823 5.044375 3.5 4.0625 C2.8503125 3.51722656 2.200625 2.97195312 1.53125 2.41015625 C1.0259375 1.94480469 0.520625 1.47945312 0 1 C0 0.67 0 0.34 0 0 Z " fill="#CBF6F5" transform="translate(256,187)"/>
<path d="M0 0 C0.66 0 1.32 0 2 0 C2 0.66 2 1.32 2 2 C2.99 2 3.98 2 5 2 C5.33 3.98 5.66 5.96 6 8 C1.2 4.55384615 1.2 4.55384615 0.1875 1.75 C0.125625 1.1725 0.06375 0.595 0 0 Z " fill="#B1B2B5" transform="translate(271,162)"/>
<path d="M0 0 C2.38564077 0.57584432 4.66682784 1.22227595 7 2 C7 3.65 7 5.3 7 7 C5.83040013 6.02433888 4.66438823 5.044375 3.5 4.0625 C2.8503125 3.51722656 2.200625 2.97195312 1.53125 2.41015625 C1.0259375 1.94480469 0.520625 1.47945312 0 1 C0 0.67 0 0.34 0 0 Z " fill="#CCF6F5" transform="translate(223,154)"/>
<path d="M0 0 C1.65 0 3.3 0 5 0 C6.0625 1.8125 6.0625 1.8125 7 4 C6.67 4.99 6.34 5.98 6 7 C1.125 2.25 1.125 2.25 0 0 Z " fill="#189B8F" transform="translate(235,211)"/>
<path d="M0 0 C0.66 0 1.32 0 2 0 C2 2.97 2 5.94 2 9 C1.01 8.34 0.02 7.68 -1 7 C-0.67 4.69 -0.34 2.38 0 0 Z " fill="#1BADA0" transform="translate(393,129)"/>
<path d="M0 0 C1.1446875 0.2784375 1.1446875 0.2784375 2.3125 0.5625 C5.08967375 1.22819173 5.08967375 1.22819173 8 0 C7.34 1.32 6.68 2.64 6 4 C5.01 4 4.02 4 3 4 C1.3125 2 1.3125 2 0 0 Z " fill="#B9F3F2" transform="translate(274,205)"/>
<path d="M0 0 C2.16874252 0.50603992 3.99967627 0.99983813 6 2 C6.33 1.34 6.66 0.68 7 0 C7.66 0 8.32 0 9 0 C9 0.99 9 1.98 9 3 C7.02 3.33 5.04 3.66 3 4 C2.01 2.68 1.02 1.36 0 0 Z " fill="#DFF6F5" transform="translate(270,201)"/>
<path d="M0 0 C0 3.57575896 -1.08840607 5.05295935 -3 8 C-4.32 7.67 -5.64 7.34 -7 7 C-4.69 4.69 -2.38 2.38 0 0 Z " fill="#279C94" transform="translate(323,165)"/>
</svg>
