<?xml version="1.0" encoding="UTF-8"?>
<svg version="1.1" xmlns="http://www.w3.org/2000/svg" width="512" height="512">
<path d="M0 0 C0.74072754 0.31420898 1.48145508 0.62841797 2.24462891 0.95214844 C22.91887608 9.87485465 40.57519185 22.68393086 57 38 C57.79019531 38.72445312 58.58039063 39.44890625 59.39453125 40.1953125 C70.8529043 51.11686355 80.20961056 64.26694169 88 78 C88.32806641 78.5686377 88.65613281 79.13727539 88.99414062 79.72314453 C101.47409965 101.47955494 111.46356157 128.64318228 111 154 C111.90878906 153.95359375 112.81757813 153.9071875 113.75390625 153.859375 C132.67693258 153.3159445 148.84337454 159.40300277 163 172 C163.69867188 172.60457031 164.39734375 173.20914063 165.1171875 173.83203125 C176.10926606 183.99008051 184.41780555 199.93194514 185.14717102 215.05064392 C185.16193733 216.75602074 185.16193733 216.75602074 185.17700195 218.49584961 C185.18983719 219.79167465 185.20267242 221.08749969 185.21589661 222.42259216 C185.22407013 223.83250541 185.23151268 225.24242306 185.23828125 226.65234375 C185.24235678 227.36946596 185.2464323 228.08658817 185.25063133 228.82544136 C185.27145609 232.6281721 185.28576804 236.43086725 185.29516602 240.23364258 C185.3061671 244.12338235 185.34050296 248.01254005 185.38033772 251.90207577 C185.40674703 254.9247987 185.41487955 257.94738866 185.41844749 260.97021675 C185.42325839 262.40167696 185.43471096 263.83313352 185.45348549 265.26447868 C185.68815308 284.35599632 179.65039764 301.87207521 166.41748047 315.84838867 C151.24790538 330.97403143 131.94286002 337.42590864 110.78515625 337.45898438 C110.1008252 337.45471436 109.41649414 337.45044434 108.71142578 337.44604492 C106.60483449 337.43741741 104.50086512 337.4666345 102.39453125 337.49804688 C87.72476538 337.5819641 87.72476538 337.5819641 83 333 C77.71228325 326.25473055 78.43813409 318.82626448 78.48583984 310.65161133 C78.4803742 309.08698335 78.47312996 307.52236073 78.46424866 305.95774841 C78.44893699 302.59489142 78.44609952 299.23233943 78.45301437 295.86945534 C78.46384542 290.53269792 78.44636072 285.19625559 78.42520142 279.85954285 C78.39494931 271.39792169 78.38324929 262.93639426 78.37962496 254.47472352 C78.37299274 239.37657214 78.34355682 224.27848843 78.2945286 209.18041629 C78.27820456 203.8957539 78.2728505 198.61122651 78.27586365 193.32654178 C78.53425921 163.15476065 78.53425921 163.15476065 73.875 133.4375 C73.66399658 132.57946777 73.45299316 131.72143555 73.2355957 130.83740234 C63.51769479 93.49353355 38.47932935 60.59292249 5.4296875 40.9375 C-30.15539912 20.83476314 -70.30662684 14.58542528 -110.10546875 24.94970703 C-131.18863791 30.83166209 -150.42111411 40.62786001 -167 55 C-168.22589844 56.04414063 -168.22589844 56.04414063 -169.4765625 57.109375 C-199.73520268 83.52713516 -216.85180596 120.46240875 -219.79360008 160.28772354 C-220.163157 166.93451623 -220.14451924 173.5812841 -220.1418457 180.23583984 C-220.14488541 181.82243953 -220.14840907 183.40903835 -220.15237427 184.99563599 C-220.1601965 188.38451607 -220.16538242 191.77338596 -220.16866493 195.16227341 C-220.17462563 200.52525733 -220.19120899 205.8881767 -220.21000671 211.25112915 C-220.21634181 213.09387013 -220.22266746 214.93661114 -220.22898388 216.77935219 C-220.23214969 217.70133754 -220.2353155 218.62332289 -220.23857725 219.57324719 C-220.28053651 232.03954332 -220.3136708 244.50580574 -220.32592773 256.97216797 C-220.33430886 265.41044604 -220.35678838 273.84856014 -220.3952834 282.28675616 C-220.41501676 286.74306975 -220.42745704 291.19913843 -220.42244911 295.6554985 C-220.41780201 299.84019448 -220.43161098 304.02442433 -220.45946121 308.20902634 C-220.46636781 309.74123606 -220.46650523 311.27349404 -220.45926094 312.80570221 C-220.39792007 327.23944843 -220.39792007 327.23944843 -225 333 C-234.87380449 340.64578692 -251.11952801 338.56266759 -262.7409668 337.17749023 C-282.52222654 334.56064364 -299.0311535 326.82631605 -312.19140625 311.4375 C-323.34947253 296.87061271 -327.48824668 281.7781187 -327.3984375 263.69140625 C-327.40046494 262.2337174 -327.4033819 260.77602955 -327.40713501 259.31834412 C-327.41152837 256.28008255 -327.40522585 253.24208768 -327.39111328 250.20385742 C-327.3740383 246.34328451 -327.38387062 242.48333835 -327.40183067 238.62278843 C-327.41276328 235.61727834 -327.40917897 232.61191248 -327.4014473 229.60639763 C-327.39947054 228.18448751 -327.40181387 226.76256354 -327.40888596 225.34066963 C-327.48073238 206.84031896 -322.46219123 190.92833137 -310 177 C-309.01773437 175.87851562 -309.01773437 175.87851562 -308.015625 174.734375 C-297.5294198 163.48275336 -283.24074758 156.24059995 -268 154 C-265.38518042 153.93225856 -262.80020744 153.90499742 -260.1875 153.9375 C-259.49462891 153.94201172 -258.80175781 153.94652344 -258.08789062 153.95117188 C-256.39188932 153.96286844 -254.69593297 153.98080076 -253 154 C-252.98582031 153.32839844 -252.97164063 152.65679687 -252.95703125 151.96484375 C-250.91943056 109.28536983 -229.9220731 70.38321795 -201 40 C-199.96166016 38.86498047 -199.96166016 38.86498047 -198.90234375 37.70703125 C-188.37501722 26.57118874 -175.2752029 17.54199483 -162 10 C-160.87851563 9.34644531 -159.75703125 8.69289063 -158.6015625 8.01953125 C-111.04377627 -19.01248968 -50.08916425 -21.35025505 0 0 Z " fill="#000000" transform="translate(327,28)"/>
<path d="M0 0 C1.04854156 -0.01283524 2.09708313 -0.02567047 3.17739868 -0.03889465 C4.30656708 -0.04628159 5.43573547 -0.05366852 6.59912109 -0.0612793 C8.35293594 -0.07338692 8.35293594 -0.07338692 10.1421814 -0.08573914 C12.61853559 -0.09956873 15.09490875 -0.11029591 17.57128906 -0.11816406 C21.33745027 -0.13533795 25.10272466 -0.17923165 28.86865234 -0.22338867 C31.27880216 -0.23351956 33.68895942 -0.24203442 36.09912109 -0.2487793 C37.2161441 -0.26628738 38.33316711 -0.28379547 39.48403931 -0.30183411 C50.08114474 -0.27279067 58.02987279 2.58503021 65.76708984 9.8840332 C72.3551532 17.51163318 74.10978034 25.71073989 74.02880859 35.52856445 C73.63157499 40.681567 72.20813746 44.6686387 69.74755859 49.17700195 C69.39693359 49.82282227 69.04630859 50.46864258 68.68505859 51.1340332 C63.47831386 59.43228262 54.9673878 63.06081351 45.74755859 65.17700195 C42.03177133 65.57034185 38.35675454 65.59889096 34.62255859 65.57543945 C33.08124268 65.57974472 33.08124268 65.57974472 31.50878906 65.58413696 C29.35074304 65.58616536 27.19267812 65.58072194 25.03466797 65.56811523 C21.75624972 65.55204456 18.4790641 65.56800649 15.20068359 65.5871582 C13.09130591 65.58517555 10.98192898 65.58133143 8.87255859 65.57543945 C7.90560059 65.58151215 6.93864258 65.58758484 5.94238281 65.59384155 C-4.60536716 65.48635395 -12.81216041 62.95383405 -20.81494141 55.92700195 C-28.16903214 47.63007907 -30.76704604 39.80277996 -30.55712891 28.7121582 C-29.74490943 19.28832966 -25.23842673 12.40177271 -18.25244141 6.17700195 C-12.32650926 2.09988279 -7.19776907 0.07699602 0 0 Z " fill="#000000" transform="translate(234.25244140625,432.822998046875)"/>
<path d="M0 0 C6.27 0 12.54 0 19 0 C19.825 2.660625 20.65 5.32125 21.5 8.0625 C25.92383191 21.63444044 32.21668023 34.67269909 42.73046875 44.640625 C44 46 44 46 44 48 C44.59941406 48.27585937 45.19882813 48.55171875 45.81640625 48.8359375 C48 50 48 50 50.9375 52.625 C67.20153573 66.75265815 86.56642285 71.81475887 107.5625 73.125 C109.50479492 73.25455078 109.50479492 73.25455078 111.48632812 73.38671875 C114.6571476 73.59732669 117.82852428 73.79951667 121 74 C121 80.27 121 86.54 121 93 C86.77563834 93.47206016 58.01710259 85.89846796 32 63 C31.39027344 62.4740625 30.78054687 61.948125 30.15234375 61.40625 C14.39989448 46.80823554 4.55126836 25.72084993 0 5 C0 3.35 0 1.7 0 0 Z " fill="#000000" transform="translate(67,382)"/>
</svg>
