<?xml version="1.0" encoding="UTF-8"?>
<svg version="1.1" xmlns="http://www.w3.org/2000/svg" width="512" height="512">
<path d="M0 0 C1.08655884 -0.00761353 2.17311768 -0.01522705 3.29260254 -0.02307129 C5.57151002 -0.03379344 7.85046633 -0.03675788 10.12939453 -0.03222656 C13.58580332 -0.03125224 17.04000296 -0.0730108 20.49609375 -0.1171875 C35.23603511 -0.19769291 46.3218779 0.33126589 57.5703125 10.8203125 C59.09375 12.46875 59.09375 12.46875 61.09375 15.46875 C63.61137829 16.21580325 66.03157139 16.81228545 68.59375 17.34375 C83.33820076 20.76144648 95.30395969 28.11117504 103.66796875 41.06640625 C109.59874574 51.05935927 112.58554473 60.37443082 112.38671875 72.0703125 C112.38247391 73.032789 112.37822906 73.9952655 112.37385559 74.98690796 C112.35723275 78.02282204 112.31961256 81.05804088 112.28125 84.09375 C112.26618193 86.16795908 112.25249727 88.24217869 112.24023438 90.31640625 C112.20738319 95.3674502 112.15571676 100.41798275 112.09375 105.46875 C113.03541016 105.61046631 113.97707031 105.75218262 114.94726562 105.89819336 C121.39341514 107.06708313 126.45950976 111.28732014 130.46875 116.34375 C136.53931271 125.34841802 137.03023835 133.91484202 136.09375 144.46875 C134.13612402 152.99603606 129.42513741 159.42047104 122.21875 164.28125 C118.29858926 166.58188487 114.53783335 167.59580506 110.09375 168.46875 C109.92875 169.62375 109.76375 170.77875 109.59375 171.96875 C105.54264295 190.05608713 92.12663604 207.93296925 76.96875 218.09375 C75.684806 218.89788102 74.39614649 219.69486223 73.09375 220.46875 C73.42506094 225.20017188 73.42506094 225.20017188 75.46875 229.34375 C78.2935541 231.29938361 80.8168504 231.59256203 84.14355469 231.59472656 C84.95580505 231.59853333 85.76805542 231.60234009 86.60491943 231.60626221 C87.48295227 231.60728943 88.36098511 231.60831665 89.265625 231.609375 C91.14714725 231.62773071 93.02865795 231.64730349 94.91015625 231.66796875 C97.85875599 231.69669046 100.80662334 231.71874377 103.75537109 231.71923828 C120.74116298 231.7393875 134.44880916 233.37913444 148.09375 244.46875 C148.92648437 245.09523438 149.75921875 245.72171875 150.6171875 246.3671875 C159.61558205 254.00304912 167.18113434 267.55568924 168.27429581 279.42988396 C168.33785391 281.58333282 168.34142885 283.72827876 168.32080078 285.88256836 C168.32109283 286.6931369 168.32138489 287.50370544 168.32168579 288.33883667 C168.32030184 290.99553448 168.30478505 293.65194544 168.2890625 296.30859375 C168.28532904 298.15946805 168.28248364 300.01034433 168.28048706 301.86122131 C168.27287682 306.71588668 168.25325087 311.57043104 168.2310791 316.42504883 C168.21056432 321.38556278 168.20147333 326.34609642 168.19140625 331.30664062 C168.17000239 341.02740528 168.13484164 350.74804861 168.09375 360.46875 C162.81375 360.46875 157.53375 360.46875 152.09375 360.46875 C152.09375 349.90875 152.09375 339.34875 152.09375 328.46875 C138.89375 328.46875 125.69375 328.46875 112.09375 328.46875 C112.14015625 332.75359375 112.1865625 337.0384375 112.234375 341.453125 C112.26010281 344.87185194 112.2817925 348.29055148 112.30075073 351.70932007 C112.32186516 355.31715349 112.35007493 358.92461045 112.39550781 362.53222656 C112.43900125 366.00762913 112.46289421 369.48266688 112.47325897 372.95832062 C112.48423615 374.92820784 112.515457 376.89794847 112.54693604 378.86761475 C112.54723816 380.06855774 112.54754028 381.26950073 112.54785156 382.50683594 C112.55673401 383.56384705 112.56561646 384.62085815 112.57476807 385.7098999 C112.09375 388.46875 112.09375 388.46875 110.70445251 390.80923462 C106.60385545 393.41581421 102.63108721 393.02257227 97.8684082 392.98291016 C96.30913857 392.99359779 96.30913857 392.99359779 94.71836853 393.00450134 C91.2768975 393.02382156 87.83603875 393.015493 84.39453125 393.0078125 C82.00041302 393.01771761 79.60630241 393.02965814 77.21220398 393.04354858 C70.90110041 393.07596752 64.59017034 393.08630661 58.2789917 393.09039307 C48.19509017 393.0991339 38.11133181 393.13475893 28.02754784 393.1825676 C24.51068637 393.19512098 20.99400634 393.19439679 17.47712708 393.19229126 C15.30677147 393.19887598 13.1364171 393.2058831 10.96606445 393.21337891 C9.99482635 393.20925491 9.02358826 393.20513092 8.0229187 393.20088196 C-1.17849808 393.25499394 -9.52425817 394.04190824 -16.3125 400.88671875 C-22.55737845 407.94851444 -22.97219779 415.84068862 -23.46875 424.84375 C-23.51193359 425.57980469 -23.55511719 426.31585938 -23.59960938 427.07421875 C-23.70468799 428.87223068 -23.80587093 430.67046958 -23.90625 432.46875 C-7.44155909 432.38460455 9.02302558 432.28938241 25.48757458 432.18122292 C33.13354205 432.13124883 40.77949962 432.08480513 48.42553711 432.046875 C55.09520844 432.01377921 61.76479924 431.97385307 68.43438131 431.92595994 C71.96097717 431.90086836 75.48752081 431.87903754 79.01418114 431.86540604 C82.96552374 431.85000435 86.91667335 431.81934282 90.86791992 431.78759766 C92.59315384 431.78435738 92.59315384 431.78435738 94.35324097 431.78105164 C111.57968138 431.60540987 125.42162694 428.7973037 138.03515625 416.58984375 C146.55809564 407.47784592 149.94396611 396.72528938 151.21875 384.53125 C151.34830078 383.36239258 151.34830078 383.36239258 151.48046875 382.16992188 C151.69026323 380.2701163 151.89276994 378.36950826 152.09375 376.46875 C157.37375 376.46875 162.65375 376.46875 168.09375 376.46875 C168.64985156 396.15886438 166.06334877 412.69014908 152.59375 427.90625 C151.44235946 429.10856743 150.28188725 430.30273232 149.09375 431.46875 C150.13015625 431.49453125 151.1665625 431.5203125 152.234375 431.546875 C153.60420801 431.60316951 154.97399805 431.66051655 156.34375 431.71875 C157.02566406 431.73292969 157.70757812 431.74710937 158.41015625 431.76171875 C161.50652379 431.91202785 163.69486132 432.20075498 166.29003906 433.94433594 C168.95859967 437.67916495 168.66815869 440.98196419 168.625 445.46875 C168.6288269 446.34144531 168.63265381 447.21414063 168.63659668 448.11328125 C168.6393149 449.95574092 168.63195994 451.79823924 168.61523438 453.640625 C168.59382248 456.45920934 168.61503801 459.27524485 168.640625 462.09375 C168.63798171 463.88542229 168.63285669 465.67709299 168.625 467.46875 C168.63309692 468.31050781 168.64119385 469.15226562 168.64953613 470.01953125 C168.63062317 471.20095703 168.63062317 471.20095703 168.61132812 472.40625 C168.60814575 473.09589844 168.60496338 473.78554688 168.60168457 474.49609375 C167.82973156 477.49411361 166.53402173 478.57513697 164.09375 480.46875 C161.34228809 480.86082261 158.99137761 481.00665488 156.24133301 480.97211456 C155.04083895 480.98083521 155.04083895 480.98083521 153.81609249 480.98973203 C151.11732769 481.00440335 148.41946225 480.99041387 145.72070312 480.97668457 C143.77319115 480.98129067 141.82568265 480.98764162 139.87818146 480.99559355 C134.5133045 481.01234995 129.14871077 481.00401187 123.78383255 480.99164867 C118.00324802 480.98262626 112.2227134 480.99655392 106.44213867 481.00756836 C95.11276483 481.02538826 83.78349678 481.02149815 72.45411873 481.0099178 C63.24943292 481.00089738 54.04477684 480.99965343 44.84008789 481.00401306 C43.53181424 481.00462599 42.22354058 481.00523893 40.87562227 481.00587043 C38.21818732 481.00714929 35.56075238 481.00844614 32.90331745 481.0097608 C8.67502352 481.02125327 -15.55321686 481.00933499 -39.78150165 480.98839041 C-61.90905289 480.96940732 -84.03651206 480.97110581 -106.1640625 480.99023438 C-131.01239708 481.01164306 -155.86068 481.02007803 -180.70902252 481.00778532 C-183.35687764 481.00651108 -186.00473276 481.00525359 -188.65258789 481.00401306 C-190.60696376 481.00308741 -190.60696376 481.00308741 -192.60082197 481.00214306 C-201.7982656 480.99868417 -210.99567665 481.00453009 -220.19311523 481.01393127 C-231.39626476 481.02513049 -242.59930212 481.02215502 -253.80243874 481.0008083 C-259.52237753 480.9902699 -265.24212909 480.98622348 -270.96206665 480.99940491 C-276.19277667 481.01127693 -281.42312496 481.00485231 -286.65380192 480.9834947 C-288.5514493 480.97900654 -290.4491269 480.98134412 -292.34675503 480.99099785 C-294.91622231 481.00307213 -297.48443261 480.99077924 -300.05383301 480.97211456 C-301.17223241 480.98616156 -301.17223241 480.98616156 -302.31322575 481.00049233 C-305.78074172 480.94976615 -307.58819395 480.71555656 -310.36528015 478.56058073 C-312.06141699 476.25811442 -312.41081214 475.22692853 -312.42382812 472.40625 C-312.44274109 471.22482422 -312.44274109 471.22482422 -312.46203613 470.01953125 C-312.45393921 469.17777344 -312.44584229 468.33601563 -312.4375 467.46875 C-312.4413269 466.59605469 -312.44515381 465.72335937 -312.44909668 464.82421875 C-312.4518149 462.98175908 -312.44445994 461.13926076 -312.42773438 459.296875 C-312.40632248 456.47829066 -312.42753801 453.66225515 -312.453125 450.84375 C-312.45048171 449.05207771 -312.44535669 447.26040701 -312.4375 445.46875 C-312.44964539 444.20611328 -312.44964539 444.20611328 -312.46203613 442.91796875 C-312.44942749 442.13035156 -312.43681885 441.34273438 -312.42382812 440.53125 C-312.42064575 439.84160156 -312.41746338 439.15195312 -312.41418457 438.44140625 C-311.65734908 435.50209802 -310.28392771 434.30441865 -307.90625 432.46875 C-305.37518311 431.94976807 -305.37518311 431.94976807 -302.49511719 431.92285156 C-301.41429871 431.90313293 -300.33348022 431.88341431 -299.21990967 431.86309814 C-298.05937073 431.86186951 -296.89883179 431.86064087 -295.703125 431.859375 C-294.51019836 431.84283875 -293.31727173 431.82630249 -292.0881958 431.80926514 C-288.2774954 431.7606747 -284.4671944 431.73938862 -280.65625 431.71875 C-278.07289645 431.69059973 -275.4895616 431.66067365 -272.90625 431.62890625 C-266.57273093 431.55156893 -260.24048532 431.51114783 -253.90625 431.46875 C-247.30625 415.95875 -240.70625 400.44875 -233.90625 384.46875 C-237.69996094 384.51515625 -241.49367188 384.5615625 -245.40234375 384.609375 C-249.09593367 384.6406124 -252.78950861 384.6648765 -256.4831543 384.68847656 C-259.04083901 384.70853303 -261.59847821 384.73578505 -264.15600586 384.77050781 C-267.84239975 384.81928672 -271.52818484 384.84177945 -275.21484375 384.859375 C-276.34957626 384.88002014 -277.48430878 384.90066528 -278.65342712 384.92193604 C-289.04652347 384.92484226 -297.32782177 381.68314893 -304.90625 374.46875 C-311.06231434 366.65648561 -312.20141707 359.22293522 -312.13330078 349.50634766 C-312.13373886 347.86643356 -312.13373886 347.86643356 -312.13418579 346.19338989 C-312.13279556 342.58978258 -312.11724852 338.98638357 -312.1015625 335.3828125 C-312.09783129 332.88032138 -312.09498483 330.3778288 -312.09298706 327.87533569 C-312.08613827 321.96811861 -312.07038491 316.06096805 -312.05028808 310.15378511 C-312.02569978 302.76529708 -312.01498951 295.37679974 -312.00390625 287.98828125 C-311.98247121 274.81506528 -311.94834533 261.64191502 -311.90625 248.46875 C-306.62625 248.46875 -301.34625 248.46875 -295.90625 248.46875 C-295.89745064 250.39315163 -295.89745064 250.39315163 -295.88847351 252.35643005 C-295.83118382 264.46513656 -295.75838929 276.57366455 -295.67053509 288.68218899 C-295.62586672 294.90684647 -295.58660258 301.13143903 -295.55981445 307.35620117 C-295.53374658 313.36691134 -295.49331893 319.37737121 -295.44306374 325.3879261 C-295.42641869 327.67752016 -295.41488975 329.96715749 -295.40863609 332.25680351 C-295.39896955 335.47151614 -295.37087872 338.68559181 -295.33862305 341.90014648 C-295.34077568 343.31032547 -295.34077568 343.31032547 -295.3429718 344.74899292 C-295.24471909 351.70327244 -294.53040003 358.6259208 -289.65625 363.90625 C-282.5304236 367.955015 -275.42113417 367.8019985 -267.41015625 367.8828125 C-266.22147446 367.90217865 -265.03279266 367.9215448 -263.80809021 367.9414978 C-260.0283821 368.00106089 -256.24864316 368.0475863 -252.46875 368.09375 C-249.89907559 368.13195114 -247.3294137 368.17100411 -244.75976562 368.2109375 C-238.47537186 368.30674337 -232.19090213 368.39185859 -225.90625 368.46875 C-225.72952255 367.91645218 -225.5527951 367.36415436 -225.37071228 366.79512024 C-223.62828838 361.44673018 -221.67091705 356.25043995 -219.47265625 351.07421875 C-219.15344711 350.3195784 -218.83423798 349.56493805 -218.50535583 348.78742981 C-217.83585126 347.20942359 -217.16436875 345.63225518 -216.4909668 344.0559082 C-215.46550478 341.64863182 -214.45437657 339.23563783 -213.44335938 336.82226562 C-212.78733017 335.28087865 -212.13045857 333.73984987 -211.47265625 332.19921875 C-211.02558067 331.12416328 -211.02558067 331.12416328 -210.56947327 330.02738953 C-208.85537186 326.06355417 -207.2971749 323.16361297 -203.90625 320.46875 C-201.02246094 319.96081543 -201.02246094 319.96081543 -197.640625 319.95117188 C-196.37250977 319.93856323 -195.10439453 319.92595459 -193.79785156 319.91296387 C-192.41731205 319.9201237 -191.03677761 319.92832769 -189.65625 319.9375 C-188.23665094 319.93480438 -186.81705369 319.93092137 -185.39746094 319.92590332 C-182.42495106 319.92001142 -179.45292259 319.92856046 -176.48046875 319.94726562 C-172.67366213 319.970056 -168.86798351 319.95693112 -165.06121826 319.93297577 C-162.13061044 319.91850886 -159.20026926 319.92312765 -156.26965332 319.93348694 C-154.86625026 319.93615181 -153.46282285 319.93289283 -152.05944824 319.92356873 C-150.09692865 319.91339059 -148.13432398 319.9316596 -146.171875 319.95117188 C-145.05586914 319.95435425 -143.93986328 319.95753662 -142.79003906 319.96081543 C-139.22043302 320.58954599 -138.03534532 321.57107921 -135.90625 324.46875 C-133.72013748 332.87863344 -137.54397563 343.28761348 -139.40625 351.59375 C-139.74443938 353.13781311 -140.08168658 354.6820829 -140.41796875 356.2265625 C-141.2365549 359.97642902 -142.06783325 363.72326971 -142.90625 367.46875 C-131.71833546 367.5384089 -120.53047293 367.59164187 -109.34238529 367.62418652 C-104.14671707 367.63981012 -98.95119777 367.66098789 -93.75561523 367.69506836 C-88.73705529 367.72777983 -83.71863815 367.74562785 -78.69997978 367.75338173 C-76.78991894 367.75890412 -74.87986548 367.76968784 -72.9698658 367.78594017 C-70.28451058 367.8078713 -67.59973769 367.81071041 -64.91430664 367.80932617 C-64.13314987 367.820112 -63.3519931 367.83089783 -62.54716492 367.8420105 C-55.98141801 367.80563628 -49.41533005 366.7848239 -44.46875 362.21875 C-40.17828451 354.66753074 -40.61551404 347.08151461 -40.6315918 338.59814453 C-40.62723959 337.19301077 -40.62205474 335.78787937 -40.61610413 334.38275146 C-40.60275701 330.58100311 -40.6021307 326.77935443 -40.60466743 322.97758722 C-40.60574014 319.79685608 -40.60084605 316.61614486 -40.596062 313.43541801 C-40.58498146 305.92747043 -40.5845211 298.41957289 -40.59057617 290.91162109 C-40.59661422 283.18230044 -40.58430598 275.4531619 -40.5630061 267.7238723 C-40.54535647 261.073103 -40.53939407 254.42239149 -40.54264385 247.77159965 C-40.54445163 243.80587488 -40.54187125 239.84028 -40.52792931 235.87457657 C-40.51530082 232.14311326 -40.5173421 228.41193259 -40.53034019 224.68047333 C-40.53381141 222.67004145 -40.52256487 220.65960073 -40.51077271 218.64920044 C-40.55601071 210.82032953 -40.60367765 203.04653671 -46.15625 197.03125 C-52.36075814 193.50596128 -58.2213503 193.17688125 -65.19137573 193.20805359 C-66.56289565 193.20231527 -66.56289565 193.20231527 -67.96212304 193.19646102 C-71.0150096 193.18617173 -74.06770666 193.19011545 -77.12060547 193.1940918 C-79.31390557 193.18974307 -81.50720416 193.18455938 -83.70050049 193.17860413 C-89.65093086 193.16522008 -95.60129768 193.16463482 -101.55174017 193.16716743 C-106.52190478 193.16823756 -111.49205655 193.16335266 -116.4622184 193.158562 C-128.85945876 193.14683476 -141.25666781 193.14769072 -153.65391006 193.15411881 C-164.40772115 193.15928674 -175.16144162 193.14803435 -185.91523479 193.12902059 C-196.97042052 193.10962455 -208.02556133 193.10168047 -219.08076394 193.10514385 C-225.28212467 193.10695597 -231.48340242 193.10432743 -237.6847496 193.09042931 C-243.5173648 193.07784656 -249.34979875 193.07979947 -255.18241119 193.09284019 C-257.32011349 193.09520455 -259.45782856 193.09247637 -261.5955162 193.08421707 C-264.51960582 193.07373612 -267.44308882 193.08186132 -270.36715698 193.0945282 C-271.20773899 193.08715391 -272.048321 193.07977963 -272.91437519 193.07218188 C-279.60838567 193.13294734 -286.28617461 194.05021887 -291.34375 198.71875 C-295.34786225 205.76598755 -295.30542242 212.9787611 -295.53125 220.90625 C-295.56992187 222.01935547 -295.60859375 223.13246094 -295.6484375 224.27929688 C-295.74215635 227.00885852 -295.82526731 229.73878081 -295.90625 232.46875 C-301.18625 232.46875 -306.46625 232.46875 -311.90625 232.46875 C-311.99879409 228.09347124 -312.07819885 223.72167439 -312.12597656 219.34619141 C-312.14591981 217.86234952 -312.1730849 216.37858445 -312.20800781 214.89501953 C-312.46841159 203.53681956 -311.73448102 193.69960847 -303.609375 185 C-295.96374409 178.12594652 -288.20426464 176.16705514 -278.14068604 176.20132446 C-277.16256258 176.19679335 -276.18443912 176.19226224 -275.17667556 176.18759382 C-271.90191525 176.17494222 -268.62732109 176.1765707 -265.35253906 176.17822266 C-263.0033751 176.17223786 -260.65421311 176.16543242 -258.30505371 176.15786743 C-251.92476525 176.14019452 -245.54453043 176.13551148 -239.16421986 176.13423586 C-234.50796059 176.1325758 -229.85171327 176.12677637 -225.19545822 176.1205629 C-212.66962829 176.10395728 -200.14382677 176.0964778 -187.61798623 176.09790237 C-186.90712695 176.09798228 -186.19626766 176.0980622 -185.46386719 176.09814453 C-184.39627004 176.09826717 -184.39627004 176.09826717 -183.30710527 176.09839229 C-171.77790299 176.09920483 -160.24883146 176.08007407 -148.71966699 176.0518678 C-136.87010941 176.02310742 -125.02061553 176.00932927 -113.17102218 176.01105535 C-106.52302545 176.01171821 -99.8751492 176.00588035 -93.22718048 175.98469925 C-86.97266504 175.96531601 -80.71843868 175.96519333 -74.46391296 175.97973251 C-72.17182238 175.98182163 -69.8797137 175.97711365 -67.58765411 175.9650116 C-64.45134772 175.94952807 -61.31603423 175.95888852 -58.17974854 175.97427368 C-57.27914208 175.96398656 -56.37853562 175.95369943 -55.45063806 175.94310057 C-46.71375949 176.03739283 -38.8845421 178.74433096 -32.4375 184.765625 C-26.24462347 191.65362033 -23.63680307 198.78788419 -23.7109375 208.0546875 C-23.71518234 209.10736313 -23.71518234 209.10736313 -23.71951294 210.18130493 C-23.73062488 212.40230028 -23.75571166 214.62287845 -23.78125 216.84375 C-23.79129146 218.35806705 -23.80041527 219.87239049 -23.80859375 221.38671875 C-23.83053446 225.08086258 -23.86500125 228.77476551 -23.90625 232.46875 C-22.13319336 232.21287595 -20.36280392 231.93847261 -18.59375 231.65625 C-17.60761719 231.50542969 -16.62148438 231.35460937 -15.60546875 231.19921875 C-12.75069718 230.42665394 -11.60410839 229.86197702 -9.90625 227.46875 C-9.90625 226.47875 -9.90625 225.48875 -9.90625 224.46875 C-12.41629824 222.78791412 -15.0406407 221.46125484 -17.71875 220.06640625 C-18.440625 219.53917969 -19.1625 219.01195312 -19.90625 218.46875 C-19.90625 213.65372681 -18.76896681 212.47606581 -15.90625 208.71875 C-15.16375 207.73390625 -14.42125 206.7490625 -13.65625 205.734375 C-13.07875 204.98671875 -12.50125 204.2390625 -11.90625 203.46875 C-8.22088264 204.86664796 -4.81739102 206.54891541 -1.34375 208.40625 C14.26905642 216.25091989 31.14665597 216.93479496 47.84375 212.46484375 C66.3386704 206.3201498 79.33662358 194.64037243 88.40625 177.53125 C95.16862919 163.30820245 95.20310261 148.23819987 95.65625 132.78125 C95.69957087 131.38605839 95.74318878 129.99087598 95.78710938 128.59570312 C95.89223102 125.2201304 95.99437877 121.84449607 96.09375 118.46875 C95.52527344 118.3555542 94.95679688 118.2423584 94.37109375 118.12573242 C78.68070463 114.84653278 65.63736389 107.49368216 56.09375 94.46875 C50.09375 84.19582889 50.09375 84.19582889 50.09375 79.46875 C49.55709717 79.73502197 49.02044434 80.00129395 48.4675293 80.27563477 C22.64066694 93.01769118 -5.81847608 104.56954485 -35.11743164 104.48291016 C-36.01506729 104.48086578 -36.91270294 104.47882141 -37.83753967 104.47671509 C-38.52021408 104.47408661 -39.20288849 104.47145813 -39.90625 104.46875 C-39.81125304 110.40567406 -39.70487859 116.34225792 -39.58886719 122.27880859 C-39.55106256 124.2898226 -39.51613473 126.30089317 -39.484375 128.31201172 C-39.27934043 141.14589454 -38.59889686 153.74107992 -36.90625 166.46875 C-38.18166176 166.95518671 -39.45785549 167.43957346 -40.734375 167.9230957 C-41.4449707 168.19305862 -42.15556641 168.46302155 -42.88769531 168.74116516 C-45.20054656 169.57482873 -47.49781651 170.16703695 -49.90625 170.65625 C-50.669375 170.81480469 -51.4325 170.97335938 -52.21875 171.13671875 C-52.775625 171.24628906 -53.3325 171.35585937 -53.90625 171.46875 C-53.90625 170.47875 -53.90625 169.48875 -53.90625 168.46875 C-55.040625 168.2625 -56.175 168.05625 -57.34375 167.84375 C-66.06997794 165.61972022 -72.3517682 160.0887484 -76.90625 152.46875 C-81.21908108 144.41813198 -81.23729997 134.26671341 -79.21484375 125.45703125 C-75.54234443 115.42296407 -69.1000804 110.4290577 -59.90625 105.46875 C-60.60492188 105.35917969 -61.30359375 105.24960938 -62.0234375 105.13671875 C-62.93351563 104.97816406 -63.84359375 104.81960937 -64.78125 104.65625 C-66.13863281 104.43001953 -66.13863281 104.43001953 -67.5234375 104.19921875 C-69.90625 103.46875 -69.90625 103.46875 -71.90625 100.46875 C-72.12725766 97.59750768 -72.23431684 94.82609572 -72.2421875 91.953125 C-72.2521727 90.68109222 -72.2521727 90.68109222 -72.26235962 89.38336182 C-72.27249433 87.5811174 -72.27717639 85.77883539 -72.27685547 83.9765625 C-72.28116807 81.2701635 -72.31730575 78.56547866 -72.35546875 75.859375 C-72.48984623 55.54381506 -67.45403784 37.50530975 -53.10620117 22.54541016 C-38.31887276 7.74036631 -21.07025064 0.00417712 0 0 Z M-34.90625 29.46875 C-31.60095655 30.56055878 -29.48538968 30.35172902 -26.140625 29.47265625 C-25.25117188 29.24384766 -24.36171875 29.01503906 -23.4453125 28.77929688 C-22.52492188 28.53244141 -21.60453125 28.28558594 -20.65625 28.03125 C-19.72039062 27.78826172 -18.78453125 27.54527344 -17.8203125 27.29492188 C-15.51340765 26.69465582 -13.20952049 26.08281381 -10.90625 25.46875 C-8.59625 30.41875 -6.28625 35.36875 -3.90625 40.46875 C-19.26041957 44.82601434 -34.02761792 47.20273253 -49.90625 48.46875 C-50.58153223 50.04842807 -51.24614694 51.63266903 -51.90625 53.21875 C-52.2775 54.10046875 -52.64875 54.9821875 -53.03125 55.890625 C-54.12050883 58.64628771 -54.12050883 58.64628771 -53.90625 62.46875 C-29.0695945 60.67641404 1.63288894 53.18170162 21.79296875 37.6640625 C25.09375 35.46875 25.09375 35.46875 27.16625977 35.70678711 C29.97101426 36.8155444 31.38630285 38.64068617 33.34375 40.90625 C34.05015625 41.70933594 34.7565625 42.51242188 35.484375 43.33984375 C37.09375 45.46875 37.09375 45.46875 37.09375 47.46875 C35.14507831 48.95727576 33.22305606 50.28551897 31.15625 51.59375 C30.52726807 51.99190918 29.89828613 52.39006836 29.25024414 52.80029297 C4.66212677 67.99123621 -24.04348426 75.08403996 -52.421875 79.02807617 C-54.84097287 79.21255914 -54.84097287 79.21255914 -55.90625 80.46875 C-55.97773199 81.82118917 -55.99024454 83.17709367 -55.96875 84.53125 C-55.948125 85.830625 -55.9275 87.13 -55.90625 88.46875 C-33.1379532 87.96402719 -12.61589747 85.44638343 9.09375 78.46875 C9.81159668 78.23816895 10.52944336 78.00758789 11.26904297 77.77001953 C22.75995905 73.98189613 33.71294813 68.67976468 44.09375 62.46875 C44.82134521 62.07606934 45.54894043 61.68338867 46.29858398 61.27880859 C50.08374396 57.46224719 48.87835962 50.71712882 48.88989258 45.58276367 C48.90609269 43.30338413 48.99138711 41.03341506 49.08007812 38.75585938 C49.25684244 30.88533271 49.25684244 30.88533271 46.34912109 23.70458984 C37.54796354 15.22521564 26.91467884 16.14987162 15.40625 16.21875 C14.13330078 16.21101563 12.86035156 16.20328125 11.54882812 16.1953125 C-5.33747769 16.22965171 -21.76820483 17.91838401 -34.90625 29.46875 Z M64.09375 34.46875 C64.04365717 38.539756 64.00770911 42.61063832 63.98388672 46.68188477 C63.97393734 48.06179944 63.96037295 49.44169365 63.94287109 50.8215332 C63.76918101 64.88532123 64.60135 77.30923416 73.46875 88.78125 C79.49815765 94.95421497 85.81563284 98.01139847 94.09375 100.46875 C94.75375 100.46875 95.41375 100.46875 96.09375 100.46875 C96.1526502 96.05214099 96.18764517 91.63563531 96.21875 87.21875 C96.23550781 85.98382813 96.25226563 84.74890625 96.26953125 83.4765625 C96.35471932 67.29082846 94.04618822 54.80846616 82.703125 42.7421875 C77.40402103 38.1253035 71.20427277 34.46875 64.09375 34.46875 Z M-56.90625 123.46875 C-61.62779582 128.89852769 -63.25860141 131.62255365 -63.1953125 138.921875 C-62.77838938 142.59530571 -61.30987785 144.72174675 -58.90625 147.46875 C-57.91625 148.12875 -56.92625 148.78875 -55.90625 149.46875 C-55.90625 140.88875 -55.90625 132.30875 -55.90625 123.46875 C-56.23625 123.46875 -56.56625 123.46875 -56.90625 123.46875 Z M112.09375 123.46875 C112.09375 132.04875 112.09375 140.62875 112.09375 149.46875 C117.66812276 145.21621272 117.66812276 145.21621272 119.4296875 139.1015625 C119.51912053 133.35996169 119.03253794 129.97022193 115.09375 125.46875 C114.10375 124.80875 113.11375 124.14875 112.09375 123.46875 Z M51.96875 229.125 C38.31702045 233.13148585 22.05645782 232.96352777 8.09375 230.46875 C7.80242187 231.03722656 7.51109375 231.60570312 7.2109375 232.19140625 C4.34917377 237.58196119 1.21300876 241.96630438 -2.90625 246.46875 C4.56757328 256.21936713 14.65564633 262.58352855 26.90625 264.28125 C39.53148741 265.16790789 50.70290656 260.51761552 60.21875 252.34375 C62.89952124 249.89865095 64.65389384 247.80862255 66.09375 244.46875 C65.62324219 243.9840625 65.15273438 243.499375 64.66796875 243 C60.35609932 238.35782173 57.9347967 234.53337441 56.09375 228.46875 C54.04157066 228.37039231 54.04157066 228.37039231 51.96875 229.125 Z M-23.90625 248.46875 C-23.90771656 249.03675009 -23.90918312 249.60475018 -23.91069412 250.18996239 C-23.94783678 264.04665171 -24.00719972 277.90309489 -24.09015274 291.75958824 C-24.1298671 298.46066761 -24.16180463 305.16160862 -24.17724609 311.86279297 C-24.19242728 318.33389981 -24.2268999 324.80464653 -24.27455902 331.2755928 C-24.28935754 333.74019866 -24.29729013 336.20485593 -24.29813385 338.66950607 C-24.30050973 342.13080665 -24.32764168 345.59111706 -24.36035156 349.05224609 C-24.3553212 350.06357605 -24.35029083 351.07490601 -24.34510803 352.11688232 C-24.45327629 359.55054352 -25.80048901 366.54807832 -30.52252579 372.50911522 C-32.73007454 375.63545302 -32.22036691 379.04361316 -32.09375 382.71875 C-32.08021484 383.46382812 -32.06667969 384.20890625 -32.05273438 384.9765625 C-32.01752204 386.80760416 -31.96371851 388.63827169 -31.90625 390.46875 C-31.39835937 390.08203125 -30.89046875 389.6953125 -30.3671875 389.296875 C-28.22290473 387.67460863 -26.06622706 386.07004447 -23.90625 384.46875 C-22.936875 383.746875 -21.9675 383.025 -20.96875 382.28125 C-13.64616612 377.94747587 -6.63961422 377.02369009 1.75415039 377.03637695 C3.29230911 377.02108948 3.29230911 377.02108948 4.86154175 377.00549316 C8.22155322 376.97550921 11.58127891 376.96611944 14.94140625 376.95703125 C17.2826786 376.94017377 19.62394195 376.9220221 21.9651947 376.90263367 C28.10534861 376.85524388 34.24546605 376.82536312 40.38574219 376.79919434 C47.76483201 376.76407629 55.14378185 376.7070949 62.52275848 376.65380096 C73.71307096 376.57541641 84.90320178 376.52471239 96.09375 376.46875 C96.09375 347.42875 96.09375 318.38875 96.09375 288.46875 C101.37375 288.46875 106.65375 288.46875 112.09375 288.46875 C112.09375 296.38875 112.09375 304.30875 112.09375 312.46875 C125.29375 312.46875 138.49375 312.46875 152.09375 312.46875 C153.05922188 283.73159101 153.05922188 283.73159101 139.3359375 259.51171875 C126.04426018 247.40100927 107.68277663 247.32738549 90.61328125 247.66796875 C85.09969922 248.0379184 85.09969922 248.0379184 80.54296875 250.86328125 C78.34658323 253.96474926 76.71793391 257.03897981 75.09375 260.46875 C67.07618901 270.58816631 54.7391626 277.31877542 42.09375 279.46875 C24.53273087 281.02828862 9.81728906 278.71903063 -4.90625 268.46875 C-5.63714844 267.7365625 -6.36804688 267.004375 -7.12109375 266.25 C-8.72190502 264.23330604 -8.72190502 264.23330604 -10.90625 264.46875 C-11.174375 263.89125 -11.4425 263.31375 -11.71875 262.71875 C-12.93107607 260.42171113 -14.30894549 258.51329977 -15.90625 256.46875 C-17.91617457 253.89604656 -19.52994461 251.43310008 -20.90625 248.46875 C-21.89625 248.46875 -22.88625 248.46875 -23.90625 248.46875 Z M-193.90625 336.46875 C-197.81998158 344.2204283 -197.81998158 344.2204283 -201.37890625 352.08496094 C-201.79745377 353.06944214 -202.21600128 354.05392334 -202.64723206 355.0682373 C-203.08333298 356.10275024 -203.5194339 357.13726318 -203.96875 358.203125 C-204.43768173 359.30789185 -204.90661346 360.41265869 -205.38975525 361.55090332 C-206.89809962 365.10565323 -208.40221941 368.66217306 -209.90625 372.21875 C-211.96844221 377.08401699 -214.03279698 381.94836441 -216.09765625 386.8125 C-216.60140274 387.99982727 -217.10514923 389.18715454 -217.62416077 390.41046143 C-220.4910411 397.1609613 -223.37816611 403.90183822 -226.30859375 410.625 C-226.62220856 411.34471985 -226.93582336 412.0644397 -227.25894165 412.80596924 C-228.65050027 415.99533977 -230.04788993 419.18197152 -231.45117188 422.36621094 C-231.91974609 423.43645508 -232.38832031 424.50669922 -232.87109375 425.609375 C-233.2693335 426.51204102 -233.66757324 427.41470703 -234.07788086 428.34472656 C-235.02736509 430.39932816 -235.02736509 430.39932816 -234.90625 432.46875 C-215.10625 432.46875 -195.30625 432.46875 -174.90625 432.46875 C-169.98466195 411.19820478 -169.98466195 411.19820478 -165.2578125 389.88671875 C-164.95250927 388.47854002 -164.64720111 387.07036235 -164.34188843 385.66218567 C-163.71727882 382.77874676 -163.09424706 379.89497215 -162.47216797 377.01098633 C-161.6767899 373.32530563 -160.87480234 369.64109309 -160.07149696 365.95713329 C-159.44522842 363.07969439 -158.82355706 360.20127655 -158.20316696 357.32256508 C-157.90903345 355.961483 -157.61321048 354.6007648 -157.31560135 353.24043846 C-156.90426624 351.35820765 -156.50007008 349.47442102 -156.09619141 347.59057617 C-155.86558014 346.52538254 -155.63496887 345.4601889 -155.39736938 344.36271667 C-154.76682299 341.13638731 -154.76682299 341.13638731 -154.90625 336.46875 C-167.77625 336.46875 -180.64625 336.46875 -193.90625 336.46875 Z M-146.90625 384.46875 C-148.83533943 389.70484987 -149.89033579 395.00010543 -150.90625 400.46875 C-148.92625 400.46875 -146.94625 400.46875 -144.90625 400.46875 C-143.9018366 398.1789266 -142.90257388 395.8870901 -141.90625 393.59375 C-141.62007812 392.94277344 -141.33390625 392.29179687 -141.0390625 391.62109375 C-139.44699235 388.17236661 -139.44699235 388.17236661 -138.90625 384.46875 C-141.54625 384.46875 -144.18625 384.46875 -146.90625 384.46875 Z M-120.90625 384.46875 C-123.87625 392.38875 -123.87625 392.38875 -126.90625 400.46875 C-125.153125 400.571875 -123.4 400.675 -121.59375 400.78125 C-116.46460647 401.08296433 -116.46460647 401.08296433 -114.26953125 402.59960938 C-112.27896926 405.32878963 -112.47033986 407.5359782 -112.39453125 410.88671875 C-112.35908203 412.14033203 -112.32363281 413.39394531 -112.28710938 414.68554688 C-112.26455078 415.99587891 -112.24199219 417.30621094 -112.21875 418.65625 C-112.18557334 419.99157013 -112.15108334 421.32685832 -112.11523438 422.66210938 C-112.03263491 425.93068825 -111.96776996 429.19970644 -111.90625 432.46875 C-106.62625 432.46875 -101.34625 432.46875 -95.90625 432.46875 C-95.86886719 430.48230469 -95.83148438 428.49585938 -95.79296875 426.44921875 C-95.74429184 424.52300387 -95.69551192 422.59679005 -95.64379883 420.6706543 C-95.59423681 418.6758437 -95.55973867 416.68067743 -95.52539062 414.68554688 C-95.48994141 413.43193359 -95.45449219 412.17832031 -95.41796875 410.88671875 C-95.39178467 409.72938232 -95.36560059 408.5720459 -95.33862305 407.37963867 C-94.90625 404.46875 -94.90625 404.46875 -93.54296875 402.59960938 C-91.15932831 400.95267881 -89.0832766 400.94975156 -86.21875 400.78125 C-85.22488281 400.71550781 -84.23101562 400.64976562 -83.20703125 400.58203125 C-82.44777344 400.54464844 -81.68851563 400.50726563 -80.90625 400.46875 C-79.9018366 398.1789266 -78.90257388 395.8870901 -77.90625 393.59375 C-77.47699219 392.61728516 -77.47699219 392.61728516 -77.0390625 391.62109375 C-75.44699235 388.17236661 -75.44699235 388.17236661 -74.90625 384.46875 C-90.08625 384.46875 -105.26625 384.46875 -120.90625 384.46875 Z M-56.90625 384.46875 C-59.87625 392.38875 -59.87625 392.38875 -62.90625 400.46875 C-57.95625 400.46875 -53.00625 400.46875 -47.90625 400.46875 C-47.90625 395.18875 -47.90625 389.90875 -47.90625 384.46875 C-50.87625 384.46875 -53.84625 384.46875 -56.90625 384.46875 Z M-153.90625 416.46875 C-157.1255145 426.37242748 -157.1255145 426.37242748 -156.90625 432.46875 C-147.33625 432.46875 -137.76625 432.46875 -127.90625 432.46875 C-127.90625 427.18875 -127.90625 421.90875 -127.90625 416.46875 C-136.48625 416.46875 -145.06625 416.46875 -153.90625 416.46875 Z M-79.90625 416.46875 C-79.90625 421.74875 -79.90625 427.02875 -79.90625 432.46875 C-66.70625 432.46875 -53.50625 432.46875 -39.90625 432.46875 C-39.90625 427.18875 -39.90625 421.90875 -39.90625 416.46875 C-53.10625 416.46875 -66.30625 416.46875 -79.90625 416.46875 Z M-295.90625 448.46875 C-295.90625 453.74875 -295.90625 459.02875 -295.90625 464.46875 C-148.06625 464.46875 -0.22625 464.46875 152.09375 464.46875 C152.09375 459.18875 152.09375 453.90875 152.09375 448.46875 C4.25375 448.46875 -143.58625 448.46875 -295.90625 448.46875 Z " fill="#000000" transform="translate(327.90625,15.53125)"/>
<path d="M0 0 C4.97179951 0.80893996 9.18809276 2.71864079 13.76953125 4.74609375 C21.30540197 7.67114152 28.03929649 8.38698785 36.0625 8.375 C37.0723999 8.37483887 38.0822998 8.37467773 39.12280273 8.37451172 C47.64965774 8.24545074 54.96275224 6.81252348 63 4 C64.12277344 3.62617188 65.24554688 3.25234375 66.40234375 2.8671875 C67.68818359 2.43792969 67.68818359 2.43792969 69 2 C70.17154293 4.28929053 71.33738074 6.58118362 72.5 8.875 C72.83386719 9.52597656 73.16773438 10.17695313 73.51171875 10.84765625 C76 15.7734375 76 15.7734375 76 18 C54.38311865 26.95101634 29.51745149 30.52524395 7 22 C2.17585206 19.95238932 -2.43520671 17.57538258 -7 15 C-6.42176904 10.93774452 -5.10882263 8.15237654 -2.9375 4.6875 C-2.38964844 3.80449219 -1.84179688 2.92148437 -1.27734375 2.01171875 C-0.64505859 1.01591797 -0.64505859 1.01591797 0 0 Z " fill="#000000" transform="translate(323,302)"/>
<path d="M0 0 C3.11608635 0.48688849 5.84782448 1.31010804 8.75 2.5 C19.4502883 6.56771259 28.8335024 4.56454995 39 0 C39.99 0 40.98 0 42 0 C43.54295801 2.14775034 44.8759056 4.21834754 46.1875 6.5 C46.55552734 7.12003906 46.92355469 7.74007812 47.30273438 8.37890625 C48.2116735 9.9134788 49.1071247 11.4560256 50 13 C47.2310575 16.0503131 44.91174212 17.73439627 41.0625 19.1875 C39.81146484 19.67283203 39.81146484 19.67283203 38.53515625 20.16796875 C25.89020611 24.31800632 10.09145919 23.39829852 -2 18 C-4.21377882 16.79322554 -6.02580154 15.57935877 -8 14 C-7.043419 12.22821947 -6.08467012 10.45760924 -5.125 8.6875 C-4.59132813 7.70136719 -4.05765625 6.71523437 -3.5078125 5.69921875 C-2 3 -2 3 0 0 Z " fill="#000000" transform="translate(331,170)"/>
<path d="M0 0 C4.8846525 2.26787438 7.73212562 5.1153475 10 10 C10.75381535 15.5997712 10.77303575 20.33499991 8.375 25.5 C3.80134327 30.3143755 0.6912538 32.25156236 -6 32.5 C-12.6912538 32.25156236 -15.80134327 30.3143755 -20.375 25.5 C-22.77303575 20.33499991 -22.75381535 15.5997712 -22 10 C-17.52212837 0.3553534 -9.85292056 -1.32635469 0 0 Z " fill="#000000" transform="translate(390,128)"/>
<path d="M0 0 C4.8846525 2.26787438 7.73212562 5.1153475 10 10 C10.75381535 15.5997712 10.77303575 20.33499991 8.375 25.5 C3.80134327 30.3143755 0.6912538 32.25156236 -6 32.5 C-12.6912538 32.25156236 -15.80134327 30.3143755 -20.375 25.5 C-22.77303575 20.33499991 -22.75381535 15.5997712 -22 10 C-17.52212837 0.3553534 -9.85292056 -1.32635469 0 0 Z " fill="#000000" transform="translate(326,128)"/>
<path d="M0 0 C10.56 0 21.12 0 32 0 C32 5.28 32 10.56 32 16 C21.44 16 10.88 16 0 16 C0 10.72 0 5.44 0 0 Z " fill="#000000" transform="translate(240,232)"/>
<path d="M0 0 C10.56 0 21.12 0 32 0 C32 5.28 32 10.56 32 16 C21.44 16 10.88 16 0 16 C0 10.72 0 5.44 0 0 Z " fill="#000000" transform="translate(192,232)"/>
<path d="M0 0 C10.56 0 21.12 0 32 0 C32 5.28 32 10.56 32 16 C21.44 16 10.88 16 0 16 C0 10.72 0 5.44 0 0 Z " fill="#000000" transform="translate(144,232)"/>
<path d="M0 0 C10.56 0 21.12 0 32 0 C32 5.28 32 10.56 32 16 C21.44 16 10.88 16 0 16 C0 10.72 0 5.44 0 0 Z " fill="#000000" transform="translate(96,232)"/>
<path d="M0 0 C10.56 0 21.12 0 32 0 C32 5.28 32 10.56 32 16 C21.44 16 10.88 16 0 16 C0 10.72 0 5.44 0 0 Z " fill="#000000" transform="translate(48,232)"/>
</svg>
