<?xml version="1.0" encoding="UTF-8"?>
<svg version="1.1" xmlns="http://www.w3.org/2000/svg" width="512" height="512">
<path d="M0 0 C1.58366626 -0.00472343 3.16732755 -0.01152376 4.75097656 -0.02029419 C8.05973943 -0.03057733 11.36717369 -0.01573893 14.67578125 0.01708984 C18.89977776 0.05697727 23.12066098 0.03399294 27.34454346 -0.0079174 C30.611726 -0.03331323 33.87818027 -0.02511702 37.14538574 -0.00702286 C38.70178606 -0.00238075 40.25825429 -0.00798679 41.8145752 -0.02437973 C55.42605499 -0.13631624 55.42605499 -0.13631624 60.63696289 4.16186523 C63.19792355 6.93416238 64.90446044 9.43152365 65.80859375 13.14453125 C66.16920898 14.54541992 66.16920898 14.54541992 66.53710938 15.97460938 C66.75173828 16.92916016 66.96636719 17.88371094 67.1875 18.8671875 C67.42919922 19.81787109 67.67089844 20.76855469 67.91992188 21.74804688 C69.24992104 27.12361453 70.18436456 32.42286886 70.75 37.9296875 C71.81089844 38.01476563 72.87179687 38.09984375 73.96484375 38.1875 C79.97121416 38.94900079 85.58919986 40.89052938 91.3125 42.8046875 C92.49110596 43.19817383 93.66971191 43.59166016 94.8840332 43.99707031 C108.72998683 48.76378622 122.94457543 54.47925336 134.87426758 63.11816406 C137.52906067 64.26674304 139.01673747 63.77085211 141.75 62.9296875 C144.05061101 61.84383712 144.05061101 61.84383712 146.2890625 60.4609375 C147.53042969 59.72810547 147.53042969 59.72810547 148.796875 58.98046875 C150.07304688 58.21283203 150.07304688 58.21283203 151.375 57.4296875 C153.07408998 56.4168666 154.77455375 55.40634581 156.4765625 54.3984375 C157.59925537 53.72458008 157.59925537 53.72458008 158.74462891 53.03710938 C161.83530798 51.33035015 164.51861793 50.73282781 168 50.6171875 C168.72703125 50.57980469 169.4540625 50.54242188 170.203125 50.50390625 C178.45064225 51.88270898 184.13190146 58.87513932 189.734375 64.515625 C190.68081751 65.4600426 191.62770463 66.40401482 192.57501221 67.3475647 C194.54987179 69.31802273 196.51925792 71.29374924 198.48486328 73.2734375 C200.99524147 75.80092982 203.51888301 78.31467998 206.04677963 80.82463646 C208.00141061 82.76839085 209.94879596 84.71927863 211.89411163 86.67235184 C213.26991146 88.0511036 214.65171559 89.42385556 216.03363037 90.79647827 C216.87170227 91.64400665 217.70977417 92.49153503 218.57324219 93.36474609 C219.67741486 94.47249893 219.67741486 94.47249893 220.80389404 95.60263062 C224.61286881 100.15721353 226.44342737 104.50774604 226.2265625 110.3828125 C224.6321496 118.90377326 218.89968622 126.52153047 213.97265625 133.45703125 C212.44277856 136.55100114 212.85492033 137.65241285 213.75 140.9296875 C214.72673317 143.14082441 214.72673317 143.14082441 215.97265625 145.30859375 C216.42487549 146.13689697 216.87709473 146.9652002 217.34301758 147.81860352 C217.82794678 148.70088623 218.31287598 149.58316895 218.8125 150.4921875 C238.75 187.75312373 238.75 187.75312373 238.75 205.9296875 C239.73613281 206.05923828 239.73613281 206.05923828 240.7421875 206.19140625 C247.25506916 207.15333593 253.67419794 208.47503224 260.0625 210.0546875 C260.81450684 210.21799561 261.56651367 210.38130371 262.34130859 210.54956055 C267.52604065 211.89988248 270.84566403 214.10015431 274.27708435 218.20993042 C277.40675373 223.98890388 276.74721591 230.76864096 276.6796875 237.1796875 C276.68441093 238.76335376 276.69121126 240.34701505 276.69998169 241.93066406 C276.71026483 245.23942693 276.69542643 248.54686119 276.66259766 251.85546875 C276.62271023 256.07946526 276.64569456 260.30034848 276.6876049 264.52423096 C276.71300073 267.7914135 276.70480452 271.05786777 276.68671036 274.32507324 C276.68206825 275.88147356 276.68767429 277.43794179 276.70406723 278.9942627 C276.81600374 292.60574249 276.81600374 292.60574249 272.51782227 297.81665039 C269.74552512 300.37761105 267.24816385 302.08414794 263.53515625 302.98828125 C262.60123047 303.22869141 261.66730469 303.46910156 260.70507812 303.71679688 C259.75052734 303.93142578 258.79597656 304.14605469 257.8125 304.3671875 C256.38647461 304.72973633 256.38647461 304.72973633 254.93164062 305.09960938 C249.55607297 306.42960854 244.25681864 307.36405206 238.75 307.9296875 C238.66492188 308.99058594 238.57984375 310.05148437 238.4921875 311.14453125 C237.73068671 317.15090166 235.78915812 322.76888736 233.875 328.4921875 C233.48151367 329.67079346 233.08802734 330.84939941 232.68261719 332.0637207 C227.91590128 345.90967433 222.20043414 360.12426293 213.56152344 372.05395508 C212.41294446 374.70874817 212.90883539 376.19642497 213.75 378.9296875 C214.83585038 381.23029851 214.83585038 381.23029851 216.21875 383.46875 C216.70730469 384.29632813 217.19585937 385.12390625 217.69921875 385.9765625 C218.21097656 386.82734375 218.72273438 387.678125 219.25 388.5546875 C220.2628209 390.25377748 221.27334169 391.95424125 222.28125 393.65625 C222.73048828 394.40471191 223.17972656 395.15317383 223.64257812 395.92431641 C225.34933735 399.01499548 225.94685969 401.69830543 226.0625 405.1796875 C226.09988281 405.90671875 226.13726562 406.63375 226.17578125 407.3828125 C224.79697852 415.63032975 217.80454818 421.31158896 212.1640625 426.9140625 C211.2196449 427.86050501 210.27567268 428.80739213 209.3321228 429.75469971 C207.36166477 431.72955929 205.38593826 433.69894542 203.40625 435.66455078 C200.87875768 438.17492897 198.36500752 440.69857051 195.85505104 443.22646713 C193.91129665 445.18109811 191.96040887 447.12848346 190.00733566 449.07379913 C188.6285839 450.44959896 187.25583194 451.83140309 185.88320923 453.21331787 C185.03568085 454.05138977 184.18815247 454.88946167 183.31494141 455.75292969 C182.20718857 456.85710236 182.20718857 456.85710236 181.07705688 457.98358154 C176.52247397 461.79255631 172.17194146 463.62311487 166.296875 463.40625 C157.77591424 461.8118371 150.15815703 456.07937372 143.22265625 451.15234375 C140.12868636 449.62246606 139.02727465 450.03460783 135.75 450.9296875 C133.53886309 451.90642067 133.53886309 451.90642067 131.37109375 453.15234375 C130.54279053 453.60456299 129.7144873 454.05678223 128.86108398 454.52270508 C127.97880127 455.00763428 127.09651855 455.49256348 126.1875 455.9921875 C88.92656377 475.9296875 88.92656377 475.9296875 70.75 475.9296875 C70.62044922 476.91582031 70.62044922 476.91582031 70.48828125 477.921875 C69.52635157 484.43475666 68.20465526 490.85388544 66.625 497.2421875 C66.46169189 497.99419434 66.29838379 498.74620117 66.13012695 499.52099609 C64.77980502 504.70572815 62.57953319 508.02535153 58.46975708 511.45677185 C52.69078362 514.58644123 45.91104654 513.92690341 39.5 513.859375 C37.91633374 513.86409843 36.33267245 513.87089876 34.74902344 513.87966919 C31.44026057 513.88995233 28.13282631 513.87511393 24.82421875 513.84228516 C20.60022224 513.80239773 16.37933902 513.82538206 12.15545654 513.8672924 C8.888274 513.89268823 5.62181973 513.88449202 2.35461426 513.86639786 C0.79821394 513.86175575 -0.75825429 513.86736179 -2.3145752 513.88375473 C-15.92605499 513.99569124 -15.92605499 513.99569124 -21.13696289 509.69750977 C-23.69792355 506.92521262 -25.40446044 504.42785135 -26.30859375 500.71484375 C-26.54900391 499.78091797 -26.78941406 498.84699219 -27.03710938 497.88476562 C-27.25173828 496.93021484 -27.46636719 495.97566406 -27.6875 494.9921875 C-27.92919922 494.04150391 -28.17089844 493.09082031 -28.41992188 492.11132812 C-29.74992104 486.73576047 -30.68436456 481.43650614 -31.25 475.9296875 C-32.25160156 475.80464844 -33.25320312 475.67960937 -34.28515625 475.55078125 C-56.65305468 472.31855551 -80.24034323 461.26384518 -98.9375 448.8671875 C-101.88053342 446.75034713 -101.88053342 446.75034713 -104.12400818 446.9928894 C-107.21100729 448.35314623 -109.27096866 450.5919464 -111.57836914 452.98095703 C-112.35741104 453.76897957 -112.35741104 453.76897957 -113.15219116 454.57292175 C-114.27893949 455.71442639 -115.40224017 456.85934206 -116.5224781 458.00723648 C-118.30362382 459.83141373 -120.09448148 461.64552386 -121.88829041 463.45724487 C-126.98658502 468.61047758 -132.06517329 473.78300652 -137.14135742 478.95800781 C-140.24964381 482.12542186 -143.36800416 485.2826516 -146.49209404 488.43447495 C-148.24310206 490.20741897 -149.98192229 491.99173279 -151.72071838 493.77664185 C-162.15318617 504.37090474 -173.12120468 513.17881387 -188.59399414 513.3984375 C-189.42922607 513.388125 -190.26445801 513.3778125 -191.125 513.3671875 C-192.00341553 513.35816406 -192.88183105 513.34914063 -193.78686523 513.33984375 C-205.7193859 513.02190815 -214.28932928 508.80337172 -223.25 500.9296875 C-233.54193769 489.98853668 -236.9023315 478.17672694 -236.5546875 463.4453125 C-235.72062347 446.91567999 -224.62225986 435.82517425 -213.37301445 424.91890335 C-211.57881723 423.17772271 -209.79618697 421.42539583 -208.01612854 419.66976929 C-202.96198184 414.6883222 -197.89030667 409.72498702 -192.80639648 404.77392578 C-189.67876617 401.72649285 -186.56578999 398.66471718 -183.46144295 395.59357834 C-182.28007462 394.43082968 -181.09304463 393.27380436 -179.90032768 392.12269974 C-178.24194058 390.52177905 -176.60270409 388.90337873 -174.96655273 387.27978516 C-174.02915756 386.36476227 -173.09176239 385.44973938 -172.1259613 384.50698853 C-169.97052357 382.1036681 -169.97052357 382.1036681 -170.34803772 379.28256226 C-171.57129413 376.09155395 -173.3375391 373.34398299 -175.1875 370.4921875 C-185.13519241 354.46378161 -191.79292331 336.91947359 -197.25 318.9296875 C-197.45753906 318.26694824 -197.66507813 317.60420898 -197.87890625 316.92138672 C-198.85232786 313.71607272 -199.25 311.33261127 -199.25 307.9296875 C-199.90742188 307.84332031 -200.56484375 307.75695312 -201.2421875 307.66796875 C-207.75506916 306.70603907 -214.17419794 305.38434276 -220.5625 303.8046875 C-221.31450684 303.64137939 -222.06651367 303.47807129 -222.84130859 303.30981445 C-228.02604065 301.95949252 -231.34566403 299.75922069 -234.77708435 295.64944458 C-237.90675373 289.87047112 -237.24721591 283.09073404 -237.1796875 276.6796875 C-237.18441093 275.09602124 -237.19121126 273.51235995 -237.19998169 271.92871094 C-237.21026483 268.61994807 -237.19542643 265.31251381 -237.16259766 262.00390625 C-237.12271023 257.77990974 -237.14569456 253.55902652 -237.1876049 249.33514404 C-237.21300073 246.0679615 -237.20480452 242.80150723 -237.18671036 239.53430176 C-237.18206825 237.97790144 -237.18767429 236.42143321 -237.20406723 234.8651123 C-237.31600374 221.25363251 -237.31600374 221.25363251 -233.01782227 216.04272461 C-230.24552512 213.48176395 -227.74816385 211.77522706 -224.03515625 210.87109375 C-222.63426758 210.51047852 -222.63426758 210.51047852 -221.20507812 210.14257812 C-219.77325195 209.82063477 -219.77325195 209.82063477 -218.3125 209.4921875 C-216.88647461 209.12963867 -216.88647461 209.12963867 -215.43164062 208.75976562 C-210.05607297 207.42976646 -204.75681864 206.49532294 -199.25 205.9296875 C-199.16492188 204.86878906 -199.07984375 203.80789062 -198.9921875 202.71484375 C-198.23068671 196.70847334 -196.28915812 191.09048764 -194.375 185.3671875 C-193.98151367 184.18858154 -193.58802734 183.00997559 -193.18261719 181.7956543 C-188.41590128 167.94970067 -182.70043414 153.73511207 -174.06152344 141.80541992 C-172.91294446 139.15062683 -173.40883539 137.66295003 -174.25 134.9296875 C-175.33585038 132.62907649 -175.33585038 132.62907649 -176.71875 130.390625 C-177.45158203 129.14925781 -177.45158203 129.14925781 -178.19921875 127.8828125 C-178.71097656 127.03203125 -179.22273438 126.18125 -179.75 125.3046875 C-180.7628209 123.60559752 -181.77334169 121.90513375 -182.78125 120.203125 C-183.23048828 119.45466309 -183.67972656 118.70620117 -184.14257812 117.93505859 C-185.84933735 114.84437952 -186.44685969 112.16106957 -186.5625 108.6796875 C-186.61857422 107.58914062 -186.61857422 107.58914062 -186.67578125 106.4765625 C-185.29697852 98.22904525 -178.30454818 92.54778604 -172.6640625 86.9453125 C-171.7196449 85.99886999 -170.77567268 85.05198287 -169.8321228 84.10467529 C-167.86166477 82.12981571 -165.88593826 80.16042958 -163.90625 78.19482422 C-161.37875768 75.68444603 -158.86500752 73.16080449 -156.35505104 70.63290787 C-154.41129665 68.67827689 -152.46040887 66.73089154 -150.50733566 64.78557587 C-149.1285839 63.40977604 -147.75583194 62.02797191 -146.38320923 60.64605713 C-145.11191666 59.38894928 -145.11191666 59.38894928 -143.81494141 58.10644531 C-143.07643951 57.3703302 -142.33793762 56.63421509 -141.57705688 55.87579346 C-137.02247397 52.06681869 -132.67194146 50.23626013 -126.796875 50.453125 C-118.27591424 52.0475379 -110.65815703 57.78000128 -103.72265625 62.70703125 C-100.62868636 64.23690894 -99.52727465 63.82476717 -96.25 62.9296875 C-94.03886309 61.95295433 -94.03886309 61.95295433 -91.87109375 60.70703125 C-91.04279053 60.25481201 -90.2144873 59.80259277 -89.36108398 59.33666992 C-88.47880127 58.85174072 -87.59651855 58.36681152 -86.6875 57.8671875 C-49.42656377 37.9296875 -49.42656377 37.9296875 -31.25 37.9296875 C-31.16363281 37.27226563 -31.07726562 36.61484375 -30.98828125 35.9375 C-30.02635157 29.42461834 -28.70465526 23.00548956 -27.125 16.6171875 C-26.96169189 15.86518066 -26.79838379 15.11317383 -26.63012695 14.33837891 C-25.27980502 9.15364685 -23.07953319 5.83402347 -18.96975708 2.40260315 C-13.19078362 -0.72706623 -6.41104654 -0.06752841 0 0 Z M1.75 30.9296875 C-0.05656181 38.50996355 -0.05656181 38.50996355 -1.83886719 46.09594727 C-5.18721012 59.81145266 -5.18721012 59.81145266 -10.80859375 63.69921875 C-15.56487423 65.39981847 -20.39204706 66.4973198 -25.3125 67.6171875 C-47.71551028 73.0213554 -69.55379474 81.87416158 -88.5 95.1796875 C-92.73203314 97.91527372 -96.07115697 99.07651687 -101.14453125 98.76171875 C-109.05617442 96.64199549 -116.32520851 91.69053653 -122.9765625 87.01171875 C-125.14169021 85.65679499 -125.14169021 85.65679499 -127.06689453 86.54907227 C-129.92289313 88.35523107 -132.07716736 90.53391494 -134.453125 92.9375 C-135.1771048 93.66572464 -135.1771048 93.66572464 -135.91571045 94.40866089 C-137.44858562 95.95268616 -138.97434004 97.50353574 -140.5 99.0546875 C-141.54120361 100.10592759 -142.58286541 101.15671407 -143.625 102.20703125 C-146.17199464 104.77601754 -148.71265177 107.35116911 -151.25 109.9296875 C-149.76481246 114.63086465 -147.90488396 118.3869101 -145.25 122.5546875 C-140.46927112 130.0948812 -137.98560969 134.82669257 -139.25 143.9296875 C-140.62251512 147.36028559 -142.54618767 150.26168815 -144.625 153.3046875 C-145.73785496 155.04869421 -146.84313299 156.79755525 -147.94140625 158.55078125 C-148.49844238 159.43878418 -149.05547852 160.32678711 -149.62939453 161.24169922 C-160.37153284 179.05895483 -167.23597685 199.13488154 -171.38989258 219.44750977 C-172.54282962 224.63223598 -173.82554593 227.63256008 -178.25 230.9296875 C-184.02402965 233.82645301 -190.50604006 235.11472169 -196.75 236.6171875 C-199.885 237.3803125 -203.02 238.1434375 -206.25 238.9296875 C-206.25 250.8096875 -206.25 262.6896875 -206.25 274.9296875 C-198.66972395 276.73624931 -198.66972395 276.73624931 -191.08374023 278.51855469 C-177.29114633 281.8857171 -177.29114633 281.8857171 -173.453125 287.609375 C-171.96818559 291.70742208 -170.95913488 295.80774097 -170 300.0546875 C-165.11277164 320.42752306 -157.7315401 340.31074233 -146.25 357.9296875 C-141.18376232 353.69152213 -136.44961931 349.25559787 -131.8125 344.5546875 C-131.17634766 343.91402344 -130.54019531 343.27335937 -129.88476562 342.61328125 C-128.33749668 341.05437871 -126.79263508 339.49317334 -125.25 337.9296875 C-126.51942762 333.7910944 -128.12016029 329.97032184 -129.96606445 326.07055664 C-135.00042478 315.34207921 -138.50036952 304.44557706 -141.25 292.9296875 C-141.42934082 292.19298828 -141.60868164 291.45628906 -141.79345703 290.69726562 C-151.46665041 248.85373993 -141.41448294 203.60815974 -119.375 167.4921875 C-114.81692232 160.27666967 -109.40910588 153.86881923 -103.6953125 147.54931641 C-102.13558058 145.80146817 -100.62199665 144.01918147 -99.109375 142.23046875 C-95.80067955 138.35980838 -92.17787214 135.16403486 -88.25 131.9296875 C-87.25097656 131.09308594 -86.25195312 130.25648438 -85.22265625 129.39453125 C-49.17547034 99.76641772 -4.98909433 89.54817676 40.87890625 93.17724609 C45.94078445 93.74102303 50.80855774 94.70614229 55.75 95.9296875 C57.01457031 96.21972656 58.27914063 96.50976562 59.58203125 96.80859375 C85.56253606 103.2033833 109.92750824 115.54188117 129.51953125 133.85546875 C131.56160319 135.75448837 133.66451582 137.52806405 135.8125 139.3046875 C140.77382845 143.63837802 144.71709594 148.74550998 148.75 153.9296875 C149.49378906 154.8578125 150.23757813 155.7859375 151.00390625 156.7421875 C157.1911356 164.66184107 162.12068636 173.03932569 166.75 181.9296875 C167.07242676 182.54714844 167.39485352 183.16460937 167.72705078 183.80078125 C177.61754753 203.05386754 183.74372609 225.08333773 183.98828125 246.77734375 C184.00310799 247.86543587 184.00310799 247.86543587 184.01823425 248.97550964 C184.43208964 287.27717473 176.83763567 325.52043215 151.75 355.9296875 C150.99847656 356.868125 150.24695313 357.8065625 149.47265625 358.7734375 C147.25794584 361.51510895 145.01039905 364.22565873 142.75 366.9296875 C142.21503906 367.5896875 141.68007813 368.2496875 141.12890625 368.9296875 C131.23726296 380.93905388 117.15357563 391.18912257 103.75 398.9296875 C103.110625 399.30448242 102.47125 399.67927734 101.8125 400.06542969 C67.28667776 420.07327061 22.87001579 427.45299843 -16.25 417.9296875 C-17.49813477 417.63167236 -17.49813477 417.63167236 -18.77148438 417.32763672 C-30.84408931 414.35841645 -42.07503804 410.23117358 -53.24975586 404.79589844 C-55.84920645 403.67019959 -58.56263937 402.82547438 -61.25 401.9296875 C-67.85 408.5296875 -74.45 415.1296875 -81.25 421.9296875 C-78.89531241 424.28437509 -77.54933303 425.48375925 -74.765625 426.98046875 C-74.0854834 427.34624023 -73.4053418 427.71201172 -72.70458984 428.08886719 C-71.9770752 428.46946289 -71.24956055 428.85005859 -70.5 429.2421875 C-69.74283691 429.63954102 -68.98567383 430.03689453 -68.20556641 430.44628906 C-61.06541054 434.12893366 -53.80433122 437.18045917 -46.25 439.9296875 C-45.07308594 440.35894531 -43.89617187 440.78820312 -42.68359375 441.23046875 C-37.170729 443.15134827 -31.7183681 444.85331179 -26.03515625 446.17578125 C-24.69070435 446.49083618 -24.69070435 446.49083618 -23.3190918 446.81225586 C-21.56277535 447.21476825 -19.80251491 447.60055014 -18.03833008 447.96704102 C-12.75669879 449.16533248 -9.59561753 450.40253218 -6.25 454.9296875 C-3.35600524 460.70629295 -2.06527705 467.18443412 -0.5625 473.4296875 C0.200625 476.5646875 0.96375 479.6996875 1.75 482.9296875 C13.63 482.9296875 25.51 482.9296875 37.75 482.9296875 C39.55656181 475.34941145 39.55656181 475.34941145 41.33886719 467.76342773 C44.68721012 454.04792234 44.68721012 454.04792234 50.30859375 450.16015625 C55.06487423 448.45955653 59.89204706 447.3620552 64.8125 446.2421875 C87.21551028 440.8380196 109.05379474 431.98521342 128 418.6796875 C132.23203314 415.94410128 135.57115697 414.78285813 140.64453125 415.09765625 C148.55617442 417.21737951 155.82520851 422.16883847 162.4765625 426.84765625 C164.64169021 428.20258001 164.64169021 428.20258001 166.56689453 427.31030273 C169.42289313 425.50414393 171.57716736 423.32546006 173.953125 420.921875 C174.4357782 420.43639191 174.9184314 419.95090881 175.41571045 419.45071411 C176.94858562 417.90668884 178.47434004 416.35583926 180 414.8046875 C181.04120361 413.75344741 182.08286541 412.70266093 183.125 411.65234375 C185.67199464 409.08335746 188.21265177 406.50820589 190.75 403.9296875 C189.26481246 399.22851035 187.40488396 395.4724649 184.75 391.3046875 C179.96927112 383.7644938 177.48560969 379.03268243 178.75 369.9296875 C180.12251512 366.49908941 182.04618767 363.59768685 184.125 360.5546875 C185.23785496 358.81068079 186.34313299 357.06181975 187.44140625 355.30859375 C187.99844238 354.42059082 188.55547852 353.53258789 189.12939453 352.61767578 C199.87153284 334.80042017 206.73597685 314.72449346 210.88989258 294.41186523 C212.04282962 289.22713902 213.32554593 286.22681492 217.75 282.9296875 C223.52402965 280.03292199 230.00604006 278.74465331 236.25 277.2421875 C239.385 276.4790625 242.52 275.7159375 245.75 274.9296875 C245.75 263.0496875 245.75 251.1696875 245.75 238.9296875 C238.16972395 237.12312569 238.16972395 237.12312569 230.58374023 235.34082031 C216.86823484 231.99247738 216.86823484 231.99247738 212.98046875 226.37109375 C211.27986903 221.61481327 210.1823677 216.78764044 209.0625 211.8671875 C203.6583321 189.46417722 194.80552592 167.62589276 181.5 148.6796875 C178.80610435 144.48844041 177.54943891 141.19402203 177.84765625 136.16796875 C179.78394068 129.21913848 183.82329397 123.06607437 187.60498047 116.97509766 C189.04331967 114.50926174 189.04331967 114.50926174 190.75 109.9296875 C182.83 102.0096875 174.91 94.0896875 166.75 85.9296875 C161.76099467 87.59268928 158.46843626 89.16290843 154.125 91.9296875 C146.5848063 96.71041638 141.85299493 99.19407781 132.75 97.9296875 C129.31940191 96.55717238 126.41799935 94.63349983 123.375 92.5546875 C121.63099329 91.44183254 119.88213225 90.33655451 118.12890625 89.23828125 C117.24090332 88.68124512 116.35290039 88.12420898 115.43798828 87.55029297 C97.62073267 76.80815466 77.54480596 69.94371065 57.23217773 65.78979492 C52.04745152 64.63685788 49.04712742 63.35414157 45.75 58.9296875 C42.85323449 53.15565785 41.56496581 46.67364744 40.0625 40.4296875 C39.299375 37.2946875 38.53625 34.1596875 37.75 30.9296875 C25.87 30.9296875 13.99 30.9296875 1.75 30.9296875 Z M-65.25 152.9296875 C-66.16136719 153.71472656 -67.07273438 154.49976563 -68.01171875 155.30859375 C-70.46712131 157.47771619 -72.87834641 159.6693251 -75.25 161.9296875 C-75.7855249 162.43677246 -76.3210498 162.94385742 -76.87280273 163.46630859 C-93.59543403 179.67507096 -105.26487515 201.5636811 -111.25 223.9296875 C-111.58902344 225.18910156 -111.92804688 226.44851562 -112.27734375 227.74609375 C-118.1108502 254.38666927 -115.28552615 285.01623845 -104.25 309.9296875 C-103.28801253 311.29070105 -102.2966091 312.63261882 -101.25 313.9296875 C-98.2120145 311.11494299 -95.20502827 308.27086069 -92.22290039 305.39697266 C-91.20548393 304.42469202 -90.18011943 303.46065593 -89.14672852 302.50537109 C-83.1756923 297.40812661 -83.1756923 297.40812661 -79.76586914 290.68115234 C-79.96512067 288.31665382 -79.96512067 288.31665382 -81.25 284.9296875 C-81.62318359 283.37121094 -81.62318359 283.37121094 -82.00390625 281.78125 C-82.27074219 280.71648437 -82.53757813 279.65171875 -82.8125 278.5546875 C-88.36158231 251.24664205 -83.18352032 222.41321272 -68.25 198.9296875 C-64.8571287 194.03374043 -61.11800491 189.45507715 -57.25 184.9296875 C-56.67894531 184.25550781 -56.10789063 183.58132812 -55.51953125 182.88671875 C-39.64672646 165.70818194 -14.56482854 153.88649738 8.74609375 152.78857422 C23.53368266 152.37009723 37.64240724 152.14370875 51.75 156.9296875 C52.43288086 157.15994629 53.11576172 157.39020508 53.81933594 157.62744141 C60.79413467 160.03360173 66.80999772 162.16935637 71.75 167.9296875 C72.69496268 170.76457555 72.9761999 172.78527367 73.0625 175.7421875 C73.11857422 176.98935547 73.11857422 176.98935547 73.17578125 178.26171875 C72.00209574 185.61609675 64.99166724 190.89914241 59.93359375 195.8359375 C58.18282711 197.5662893 56.43217967 199.29676171 54.68164062 201.02734375 C51.92998266 203.73546516 49.17589827 206.44106311 46.41918945 209.14404297 C43.7508725 211.76405275 41.09185047 214.39322693 38.43359375 217.0234375 C37.60854843 217.82672485 36.78350311 218.63001221 35.93345642 219.4576416 C31.51610383 223.83654464 27.60479062 227.74044337 26.31640625 234.0546875 C26.30586705 239.11350454 27.34200386 241.98358671 30.75 245.9296875 C34.58184019 249.23900403 37.43060664 250.37436872 42.52734375 250.4609375 C50.38973037 248.58170274 55.6198456 242.42530323 61.04296875 236.859375 C61.91141922 235.98193634 62.77986969 235.10449768 63.67463684 234.20046997 C66.4362215 231.40896647 69.1876408 228.60773873 71.9375 225.8046875 C74.69829392 222.99478452 77.46261771 220.18843325 80.23249817 217.38748169 C81.95271974 215.64749597 83.66798597 213.90259417 85.37773132 212.15231323 C86.15566544 211.36454498 86.93359955 210.57677673 87.73510742 209.76513672 C88.41570724 209.07104706 89.09630707 208.3769574 89.79753113 207.66183472 C94.11583917 203.83081576 97.74082368 203.56945048 103.33984375 203.66015625 C106.38921089 204.00117138 108.31439605 205.10298454 110.75 206.9296875 C111.41 206.9296875 112.07 206.9296875 112.75 206.9296875 C113.41832032 208.59569175 114.08446959 210.26256678 114.75 211.9296875 C115.21277344 213.08339844 115.67554688 214.23710937 116.15234375 215.42578125 C116.66483334 216.73928284 117.17653448 218.05309229 117.6875 219.3671875 C118.06551758 220.30208008 118.06551758 220.30208008 118.45117188 221.25585938 C122.85503575 232.68788451 124.26575053 244.18209698 124.125 256.3671875 C124.11557373 257.63763916 124.10614746 258.90809082 124.09643555 260.21704102 C123.95285474 269.13564017 123.35363306 277.35239633 120.75 285.9296875 C120.4096875 287.07566406 120.069375 288.22164062 119.71875 289.40234375 C114.77835671 304.47388138 106.99574263 316.94263505 96.75 328.9296875 C96.17894531 329.60386719 95.60789062 330.27804687 95.01953125 330.97265625 C78.83717947 348.48620406 53.62900902 360.00725652 29.9206543 361.0546875 C18.05627458 361.35253025 6.47171839 361.58391959 -5.1015625 358.68359375 C-6.14054687 358.43480469 -7.17953125 358.18601562 -8.25 357.9296875 C-9.47460938 357.5171875 -10.69921875 357.1046875 -11.9609375 356.6796875 C-15.18667938 356.30956469 -16.17732614 356.87687529 -18.85400391 358.82202148 C-21.77976892 361.57120949 -24.52648943 364.42099703 -27.25 367.3671875 C-28.22313547 368.38549847 -29.19837802 369.40180026 -30.17578125 370.41601562 C-32.55533063 372.90158453 -34.91142198 375.40563386 -37.25 377.9296875 C-17.89672633 393.54590946 17.00144954 392.85897635 40.05078125 390.4609375 C44.35691712 389.89002398 48.54708192 389.02033721 52.75 387.9296875 C53.45914551 387.74696289 54.16829102 387.56423828 54.89892578 387.37597656 C73.21086336 382.42284754 90.4027136 373.31049269 104.75 360.9296875 C105.66136719 360.14464844 106.57273437 359.35960937 107.51171875 358.55078125 C109.96712131 356.38165881 112.37834641 354.1900499 114.75 351.9296875 C115.2855249 351.42260254 115.8210498 350.91551758 116.37280273 350.39306641 C140.83634434 326.68126378 153.47468566 293.72782045 154.10131836 260.12109375 C154.17600233 248.08542568 153.74502625 236.6054199 150.75 224.9296875 C150.43289063 223.66253906 150.11578125 222.39539063 149.7890625 221.08984375 C143.52306985 198.02301381 131.14556445 178.94818373 114.75 161.9296875 C114.10804688 161.22457031 113.46609375 160.51945312 112.8046875 159.79296875 C92.95622125 138.61267901 60.75782983 124.01987461 31.79125977 122.80566406 C-4.48969386 121.96173923 -37.04172313 128.58771991 -65.25 152.9296875 Z M-36.48828125 207.26171875 C-51.48963715 224.82641314 -56.0173354 245.28313392 -54.25 267.9296875 C-53.32812851 274.18382283 -51.32897449 279.74532475 -49.0625 285.6171875 C-46.84305635 291.54139479 -45.89980044 296.70869563 -48.39515686 302.66153622 C-50.59694473 306.54098871 -53.19896805 309.28097971 -56.36108398 312.38807678 C-56.98223052 313.01037546 -57.60337706 313.63267414 -58.24334621 314.27383035 C-60.32054795 316.35128963 -62.40826417 318.4178452 -64.49609375 320.48461914 C-65.98984535 321.97424918 -67.48292151 323.46455681 -68.97537231 324.95549011 C-72.18768205 328.16170966 -75.40464147 331.36316342 -78.62527466 334.5610218 C-83.7168764 339.6168257 -88.79754661 344.68351953 -93.87670898 349.7518158 C-103.74168077 359.5926605 -113.61789982 369.42217389 -123.49516296 379.25067902 C-136.06909531 391.76377571 -148.63743521 404.28247566 -161.19673634 416.81025785 C-166.24809733 421.84822204 -171.3046591 426.88089049 -176.36535645 431.90947545 C-179.51083298 435.03685935 -182.65221356 438.1683332 -185.79253769 441.30088997 C-187.25048405 442.75349066 -188.71016555 444.2043522 -190.17169571 445.65334702 C-192.16540589 447.63040148 -194.15286648 449.61353637 -196.13891602 451.59828186 C-196.71955527 452.17104908 -197.30019453 452.74381629 -197.89842892 453.33394009 C-202.20789203 457.66062171 -205.67739216 461.46892216 -205.6875 467.8671875 C-205.53235325 472.60621545 -204.49117032 475.33812039 -201.25 478.9296875 C-197.51001511 482.22967417 -193.82658284 482.36357456 -189.04296875 482.62109375 C-182.11128613 480.90513875 -176.52050812 474.4896853 -171.62702942 469.52703857 C-171.011189 468.9107903 -170.39534857 468.29454203 -169.76084632 467.65961957 C-167.71963871 465.61471202 -165.68566899 463.56275989 -163.65161133 461.51074219 C-162.18118519 460.03483504 -160.71029153 458.55939354 -159.2389679 457.0843811 C-156.08234422 453.9180768 -152.92880739 450.7487414 -149.77759743 447.57704926 C-144.7953931 442.56294863 -139.80496386 437.55708881 -134.81315613 432.55255127 C-122.42135447 420.12671817 -110.03896049 407.69152174 -97.66131592 395.25158691 C-88.02985028 385.57169222 -78.3952335 375.89498761 -68.75002307 366.22878575 C-63.78581937 361.25305119 -58.82864425 356.27044994 -53.87659991 351.28261518 C-50.79894035 348.18578998 -47.71506656 345.09521215 -44.62940788 342.0063591 C-43.19850864 340.57143498 -41.77020157 339.13392065 -40.34467316 337.69366074 C-38.40064071 335.73026284 -36.44759626 333.77629186 -34.49201965 331.82440186 C-33.64658803 330.96381609 -33.64658803 330.96381609 -32.78407699 330.08584476 C-28.70881899 326.04720204 -25.0421676 323.68450556 -19.25 323.4921875 C-13.95362471 323.58912615 -9.55624512 325.5430517 -4.75390625 327.640625 C12.5699564 334.0139524 33.92230724 332.77880082 50.64453125 325.234375 C69.20335829 316.24932354 83.08163721 301.26831516 90.48632812 282.01513672 C94.33574696 270.82596779 94.18172992 259.63436543 93.75 247.9296875 C89.35031703 251.59420494 85.24289236 255.37709717 81.25854492 259.48706055 C70.65512852 270.42307925 59.26680383 279.78175244 43.31860352 280.22216797 C31.9884147 280.33181927 22.98251874 278.09209703 13.6875 271.296875 C11.79622462 269.86521513 11.79622462 269.86521513 9.625 269 C7.23526422 267.63585916 6.8286232 266.42992706 5.75 263.9296875 C4.77668819 262.38431777 3.7970643 260.84291265 2.8125 259.3046875 C-3.56324589 248.57971642 -4.85029604 237.24613964 -2.74609375 224.99609375 C-2.07424783 222.53521813 -1.26136349 220.27027157 -0.25 217.9296875 C0.20826172 216.84880859 0.20826172 216.84880859 0.67578125 215.74609375 C5.98326768 204.91882143 16.17862908 196.36134992 24.68554688 188.03027344 C26.05760674 186.68072002 27.40634357 185.30752279 28.75 183.9296875 C28.75 183.5996875 28.75 183.2696875 28.75 182.9296875 C2.63884353 181.94877424 -18.04997164 188.05112392 -36.48828125 207.26171875 Z " fill="#000000" transform="translate(236.25,-0.9296875)"/>
</svg>
