<?xml version="1.0" encoding="UTF-8"?>
<svg version="1.1" xmlns="http://www.w3.org/2000/svg" width="512" height="512">
<path d="M0 0 C1.01790619 0.00215515 2.03581238 0.0043103 3.08456421 0.00653076 C17.69363523 0.05620146 32.02575853 0.30709809 46.375 3.3125 C47.34985352 3.51117676 48.32470703 3.70985352 49.32910156 3.91455078 C97.7109774 14.03517194 141.69928269 35.9516877 177.375 70.3125 C178.3640332 71.26068604 178.3640332 71.26068604 179.37304688 72.22802734 C188.86130305 81.37247479 197.6012044 90.66984009 205.375 101.3125 C206.23306152 102.46355017 207.09113451 103.61459177 207.94921875 104.765625 C213.98677396 112.95525981 219.36957302 121.45788276 224.375 130.3125 C224.7771875 131.01971191 225.179375 131.72692383 225.59375 132.45556641 C238.6191741 155.59095836 247.36801461 180.76212409 252.6875 206.75 C252.83485596 207.46889404 252.98221191 208.18778809 253.1340332 208.9284668 C256.10789088 224.57475609 256.74800362 240.04818046 256.6875 255.9375 C256.68534485 256.95540619 256.6831897 257.97331238 256.68096924 259.02206421 C256.63129854 273.63113523 256.38040191 287.96325853 253.375 302.3125 C253.07698486 303.77478027 253.07698486 303.77478027 252.77294922 305.26660156 C242.65232806 353.6484774 220.7358123 397.63678269 186.375 433.3125 C185.74287598 433.97185547 185.11075195 434.63121094 184.45947266 435.31054688 C175.31502521 444.79880305 166.01765991 453.5387044 155.375 461.3125 C154.22394983 462.17056152 153.07290823 463.02863451 151.921875 463.88671875 C143.73224019 469.92427396 135.22961724 475.30707302 126.375 480.3125 C125.66778809 480.7146875 124.96057617 481.116875 124.23193359 481.53125 C101.09654164 494.5566741 75.92537591 503.30551461 49.9375 508.625 C49.21860596 508.77235596 48.49971191 508.91971191 47.7590332 509.0715332 C33.08339502 511.86090125 18.55831162 512.66142619 3.64770508 512.62817383 C0.70811513 512.6250221 -2.2304558 512.64854926 -5.16992188 512.67382812 C-18.54306192 512.71848737 -31.43916711 511.51301542 -44.625 509.3125 C-46.33055054 509.03031616 -46.33055054 509.03031616 -48.07055664 508.74243164 C-50.6662622 508.27617402 -53.23774939 507.7574418 -55.8125 507.1875 C-57.20142456 506.88054199 -57.20142456 506.88054199 -58.6184082 506.56738281 C-103.06909585 496.23155661 -143.80440564 473.92342102 -176.625 442.3125 C-177.28435547 441.68037598 -177.94371094 441.04825195 -178.62304688 440.39697266 C-188.11130305 431.25252521 -196.8512044 421.95515991 -204.625 411.3125 C-205.48306152 410.16144983 -206.34113451 409.01040823 -207.19921875 407.859375 C-213.23677396 399.66974019 -218.61957302 391.16711724 -223.625 382.3125 C-224.0271875 381.60528809 -224.429375 380.89807617 -224.84375 380.16943359 C-237.8691741 357.03404164 -246.61801461 331.86287591 -251.9375 305.875 C-252.08485596 305.15610596 -252.23221191 304.43721191 -252.3840332 303.6965332 C-255.35789088 288.05024391 -255.99800362 272.57681954 -255.9375 256.6875 C-255.93534485 255.66959381 -255.9331897 254.65168762 -255.93096924 253.60293579 C-255.88129854 238.99386477 -255.63040191 224.66174147 -252.625 210.3125 C-252.42632324 209.33764648 -252.22764648 208.36279297 -252.02294922 207.35839844 C-242.1591358 160.20419825 -221.13745417 117.08345649 -188.03515625 81.93359375 C-185.61354452 79.36407793 -185.61354452 79.36407793 -183.53125 76.671875 C-181.81660596 74.54965163 -180.14361761 72.87349838 -178.0625 71.125 C-174.83077402 68.37358559 -171.72002084 65.5292 -168.625 62.625 C-135.37182324 32.43221176 -92.95139326 12.9580769 -49.1875 4 C-48.46860596 3.85264404 -47.74971191 3.70528809 -47.0090332 3.5534668 C-31.36274391 0.57960912 -15.88931954 -0.06050362 0 0 Z M97.93359375 159.3515625 C96.83841934 159.7797226 95.74324493 160.20788269 94.61488342 160.64901733 C91.00780882 162.06309883 87.41045813 163.5003995 83.8125 164.9375 C81.26190676 165.94391039 78.70916584 166.9448107 76.15625 167.9453125 C71.52212374 169.76308904 66.89013454 171.58611316 62.26083565 173.41614914 C50.66342653 177.99985596 39.02776042 182.48321202 27.38879395 186.96020508 C21.47229852 189.23718741 15.5585532 191.52129033 9.64453125 193.8046875 C7.27035225 194.72104729 4.89616604 195.63738842 2.52197266 196.55371094 C-3.46567031 198.86486759 -9.45307028 201.17665306 -15.44038391 203.48866272 C-21.43934159 205.80515167 -27.43841409 208.12134318 -33.4375 210.4375 C-34.61154388 210.89081696 -35.78558777 211.34413391 -36.99520874 211.81118774 C-51.07844718 217.24855401 -65.16530268 222.6763582 -79.25794983 228.08929443 C-88.88734222 231.78791256 -98.51447417 235.49237005 -108.14013672 239.20068359 C-111.58869843 240.52910562 -115.03813462 241.8551956 -118.48876953 243.17822266 C-122.49570409 244.71481365 -126.4982519 246.26245307 -130.5 247.8125 C-131.58643799 248.22717529 -132.67287598 248.64185059 -133.79223633 249.0690918 C-138.8590913 251.04375207 -143.25382866 253.06755638 -147.625 256.3125 C-148.264375 256.745625 -148.90375 257.17875 -149.5625 257.625 C-150.92426623 259.46510061 -150.92426623 259.46510061 -150.6875 262.75 C-149.31756291 267.34331849 -147.71293956 267.95841035 -143.625 270.3125 C-140.49608034 271.61576831 -140.49608034 271.61576831 -137.14819336 272.63427734 C-136.53112015 272.83314545 -135.91404694 273.03201355 -135.27827454 273.23690796 C-133.26016264 273.88409957 -131.23793615 274.51700212 -129.21484375 275.1484375 C-127.80038378 275.59554448 -126.38604338 276.0430299 -124.97181702 276.49087524 C-122.01769002 277.42362572 -119.06129771 278.348737 -116.10327148 279.26904297 C-112.31586911 280.44853342 -108.53641497 281.65157868 -104.7584753 282.86098289 C-101.84430013 283.79013026 -98.92560185 284.70434809 -96.00540352 285.61436844 C-94.60955914 286.05180624 -93.21532292 286.49441089 -91.82279778 286.9423027 C-89.87756057 287.5660308 -87.92509442 288.16707627 -85.97241211 288.76708984 C-84.86465927 289.1147641 -83.75690643 289.46243835 -82.61558533 289.82064819 C-77.85886967 290.60296969 -74.72601094 288.52851761 -70.82421875 286.01953125 C-70.10685547 285.56191406 -69.38949219 285.10429687 -68.65039062 284.6328125 C-67.87888672 284.13523437 -67.10738281 283.63765625 -66.3125 283.125 C-64.60849013 282.03710664 -62.90404188 280.94989972 -61.19921875 279.86328125 C-60.29606934 279.28658691 -59.39291992 278.70989258 -58.46240234 278.11572266 C-53.53543489 274.984542 -48.57892369 271.90078363 -43.625 268.8125 C-34.03669797 262.82740652 -24.47025021 256.80885133 -14.91943359 250.76416016 C-10.1942617 247.77460152 -5.4656762 244.79044384 -0.73779297 241.80517578 C3.15894514 239.34445635 7.05497188 236.88262917 10.94921875 234.41796875 C20.75507272 228.21426522 30.5828767 222.04672009 40.4296875 215.90820312 C45.28313266 212.88027959 50.12777318 209.84039024 54.94921875 206.76171875 C56.24762695 205.93414062 56.24762695 205.93414062 57.57226562 205.08984375 C59.18394721 204.06089566 60.79347407 203.02856142 62.40039062 201.9921875 C67.65966866 198.63721229 71.94094507 195.94483972 78.375 196.3125 C76.93936154 201.90506176 72.87237564 204.96165051 68.75 208.6875 C68.06292969 209.32171875 67.37585938 209.9559375 66.66796875 210.609375 C62.57880128 214.36864716 58.4163935 218.03901363 54.22802734 221.68701172 C51.61357142 223.98043037 49.05637214 226.32940603 46.5 228.6875 C40.3618564 234.33599112 34.1633192 239.91523311 27.953125 245.484375 C23.3605185 249.60894516 18.79323413 253.75874971 14.25 257.9375 C10.37861736 261.4975179 6.46552085 264.99955868 2.4921875 268.4453125 C-0.73388518 271.29044671 -3.8923544 274.20882879 -7.05810547 277.12060547 C-11.88084891 281.55473628 -16.7484112 285.9376824 -21.625 290.3125 C-24.11636525 292.55394773 -26.60690299 294.7960951 -29.08984375 297.046875 C-30.85292771 298.62251243 -32.63871406 300.17296186 -34.44140625 301.703125 C-35.34761719 302.48171875 -36.25382812 303.2603125 -37.1875 304.0625 C-38.01378906 304.75859375 -38.84007812 305.4546875 -39.69140625 306.171875 C-43.04418366 309.88363666 -42.79015923 314.55284307 -43.10571289 319.38793945 C-43.22572411 321.18924065 -43.22572411 321.18924065 -43.34815979 323.02693176 C-43.43049362 324.31355209 -43.51282745 325.60017242 -43.59765625 326.92578125 C-43.68561762 328.26386901 -43.77387371 329.60193743 -43.8624115 330.93998718 C-44.09385237 334.44965184 -44.32130444 337.9595639 -44.5479126 341.46954346 C-44.78017329 345.05602626 -45.01622508 348.64225934 -45.25195312 352.22851562 C-45.7133355 359.25627129 -46.17050227 366.28429546 -46.625 373.3125 C-39.65810539 371.41142723 -39.65810539 371.41142723 -33.96484375 367.203125 C-33.40321533 366.61700439 -32.84158691 366.03088379 -32.26293945 365.42700195 C-31.70179443 364.81171631 -31.14064941 364.19643066 -30.5625 363.5625 C-29.34818814 362.28861385 -28.13205964 361.01645675 -26.9140625 359.74609375 C-26.34333008 359.14394043 -25.77259766 358.54178711 -25.18457031 357.92138672 C-22.80980815 355.47153033 -20.24203412 353.29602307 -17.625 351.11328125 C-13.92796962 347.78450975 -10.60311941 344.03687887 -7.23828125 340.375 C-4.625 338.3125 -4.625 338.3125 -2.1484375 338.234375 C1.043168 339.59797116 3.36269194 341.37442027 6.0625 343.5625 C7.21409375 344.47914649 8.36786233 345.39306533 9.5234375 346.3046875 C10.14186523 346.79291992 10.76029297 347.28115234 11.39746094 347.78417969 C14.92653522 350.51158771 18.56031166 353.09288308 22.1875 355.6875 C28.05109301 359.89311581 33.86582605 364.15248483 39.625 368.5 C44.70605402 372.32337361 49.79431408 376.13544635 54.9375 379.875 C55.4850293 380.28065186 56.03255859 380.68630371 56.59667969 381.10424805 C61.20377567 384.42556081 65.78828184 386.89017867 71.4375 387.8125 C75.48489177 387.12358225 77.87094784 385.46072593 80.375 382.3125 C84.15629966 375.01306122 85.7498409 367.03352494 87.39257812 359.04663086 C87.66848383 357.73847829 87.94519042 356.43049443 88.22262573 355.12266541 C88.97094596 351.58401797 89.70811139 348.04313054 90.44326973 344.50172877 C91.22913482 340.72604618 92.02551697 336.95258176 92.82067871 333.17884827 C94.33640093 325.97769789 95.84291071 318.77465293 97.34605169 311.57086712 C99.17334473 302.81577148 101.01237705 294.06315048 102.8515625 285.31054688 C104.81269265 275.97626324 106.77174375 266.64156142 108.72094727 257.30477905 C109.359413 254.24726804 109.99799308 251.18978094 110.63671875 248.13232422 C110.79297541 247.38433776 110.94923206 246.63635129 111.11022377 245.86569858 C113.23743701 235.68841218 115.39381294 225.51776936 117.57759953 215.35247648 C118.56973118 210.73000143 119.55609252 206.10628876 120.54386902 201.48288155 C121.07065968 199.0270295 121.60069881 196.57187166 122.13423157 194.11747551 C122.86252774 190.76692163 123.5798306 187.41418378 124.29492188 184.06079102 C124.5081459 183.09541727 124.72136993 182.13004353 124.9410553 181.13541603 C127.24173938 170.54248102 127.24173938 170.54248102 124.5625 160.375 C122.54762526 157.17144434 122.54762526 157.17144434 119.375 155.3125 C111.6007198 154.05068282 105.03994113 156.46916412 97.93359375 159.3515625 Z " fill="#000000" transform="translate(255.625,-0.3125)"/>
</svg>
