<?xml version="1.0" standalone="no"?>
<!DOCTYPE svg PUBLIC "-//W3C//DTD SVG 20010904//EN"
 "http://www.w3.org/TR/2001/REC-SVG-20010904/DTD/svg10.dtd">
<svg version="1.0" xmlns="http://www.w3.org/2000/svg"
 width="258.000000pt" height="196.000000pt" viewBox="0 0 258.000000 196.000000"
 preserveAspectRatio="xMidYMid meet">

<g transform="translate(0.000000,196.000000) scale(0.100000,-0.100000)"
fill="#000000" stroke="none">
<path d="M1379 1643 c-7 -21 -12 -44 -11 -51 2 -7 -1 -11 -5 -10 -11 4 -177
-135 -197 -164 -9 -12 -16 -36 -16 -54 0 -33 42 -104 86 -144 l27 -25 -28 43
c-15 23 -32 42 -37 42 -5 0 -6 5 -2 12 4 7 3 8 -4 4 -11 -7 -10 10 4 81 2 12
45 63 95 113 60 59 89 95 85 105 -3 8 -1 15 4 15 9 0 25 59 17 66 -3 3 -11
-12 -18 -33z m-29 -82 c-5 -11 -37 -44 -71 -73 -72 -63 -99 -104 -99 -149 0
-26 -3 -30 -10 -19 -17 27 -11 78 13 105 19 22 166 152 175 154 1 1 -2 -8 -8
-18z"/>
<path d="M1389 1480 c-52 -27 -109 -94 -109 -128 0 -15 13 -48 28 -73 16 -25
32 -51 35 -59 3 -9 6 -10 6 -3 1 7 -12 34 -29 60 -16 26 -30 59 -30 74 0 25
37 85 47 75 4 -3 77 47 102 70 11 10 -18 1 -50 -16z m-19 -24 c0 -2 -8 -10
-17 -17 -16 -13 -17 -12 -4 4 13 16 21 21 21 13z"/>
<path d="M1322 1370 c0 -14 2 -19 5 -12 2 6 2 18 0 25 -3 6 -5 1 -5 -13z"/>
<path d="M1349 1305 c17 -33 31 -51 31 -40 0 6 -10 21 -21 35 -13 17 -17 18
-10 5z"/>
<path d="M1359 1211 c-8 -10 -19 -26 -22 -37 -5 -13 0 -11 18 9 14 15 25 32
25 38 0 12 -2 11 -21 -10z"/>
<path d="M1575 1168 c48 -27 48 -74 0 -123 -20 -19 -41 -35 -47 -35 -6 0 -9
-3 -5 -6 9 -9 95 44 107 66 27 51 -2 110 -55 110 -20 -1 -20 -1 0 -12z"/>
<path d="M1023 1144 c-46 -20 -41 -31 15 -41 59 -10 294 -7 346 4 27 6 -19 8
-142 8 -99 0 -184 4 -189 8 -4 5 1 15 11 23 26 18 2 17 -41 -2z"/>
<path d="M1438 1123 c7 -3 16 -2 19 1 4 3 -2 6 -13 5 -11 0 -14 -3 -6 -6z"/>
<path d="M1083 1043 c-22 -8 -14 -33 15 -45 31 -13 239 -14 290 -1 38 9 39 29
2 25 -14 -1 -80 -3 -148 -5 -103 -2 -126 1 -135 14 -7 9 -18 14 -24 12z"/>
<path d="M1103 924 c-8 -21 10 -31 77 -45 62 -13 166 -5 214 16 38 17 34 17
-133 19 -90 1 -125 4 -128 14 -6 17 -22 15 -30 -4z"/>
<path d="M931 839 c-19 -12 -30 -24 -25 -29 32 -32 404 -46 542 -21 40 7 72
15 70 17 -2 2 -47 -1 -99 -7 -108 -13 -366 -6 -421 11 -37 11 -50 33 -25 43 6
3 8 6 2 6 -5 1 -25 -8 -44 -20z"/>
<path d="M1579 833 c-13 -16 -12 -17 4 -4 16 13 21 21 13 21 -2 0 -10 -8 -17
-17z"/>
<path d="M1607 784 c-39 -21 -161 -43 -298 -54 l-114 -9 134 5 c74 3 157 10
185 16 48 10 126 43 126 53 0 7 -1 6 -33 -11z"/>
<path d="M1098 733 c6 -2 18 -2 25 0 6 3 1 5 -13 5 -14 0 -19 -2 -12 -5z"/>
<path d="M1030 474 c0 -172 -6 -204 -40 -204 -11 0 -20 -7 -20 -15 0 -9 9 -15
23 -15 58 1 67 30 67 229 0 145 -2 171 -15 171 -13 0 -15 -25 -15 -166z m5
-200 c-9 -14 -25 -24 -38 -23 l-22 0 22 9 c37 15 43 42 45 212 l2 163 3 -169
c3 -139 1 -173 -12 -192z"/>
<path d="M1205 631 c11 -5 39 -13 63 -18 32 -8 42 -7 42 2 0 18 -24 25 -78 24
-34 0 -42 -3 -27 -8z"/>
<path d="M1400 486 c0 -132 2 -156 15 -156 12 0 15 13 13 63 l-1 62 -7 -60
c-5 -45 -7 -22 -8 88 l-2 147 53 -2 52 -1 -45 -6 -45 -6 0 -70 0 -70 54 -8
c44 -6 58 -4 73 9 10 10 18 21 18 27 0 5 -8 0 -17 -12 -16 -18 -25 -20 -70
-15 l-53 7 0 64 0 64 47 -3 c39 -2 50 -7 60 -28 7 -14 13 -19 13 -11 0 8 -7
23 -17 33 -9 10 -11 18 -5 18 6 0 18 -10 26 -22 9 -12 16 -18 16 -12 0 27 -43
48 -106 52 l-64 4 0 -156z"/>
<path d="M1157 612 c-11 -11 -17 -34 -16 -58 1 -21 3 -31 6 -21 4 16 6 15 24
-5 l20 -23 -16 26 c-8 14 -13 35 -9 45 5 16 4 17 -6 4 -9 -13 -11 -12 -7 5 2
11 8 19 13 18 6 -1 11 5 11 13 0 18 -1 18 -20 -4z"/>
<path d="M1572 545 c0 -16 2 -22 5 -12 2 9 2 23 0 30 -3 6 -5 -1 -5 -18z"/>
<path d="M1536 515 c-9 -26 -7 -32 5 -12 6 10 9 21 6 23 -2 3 -7 -2 -11 -11z"/>
<path d="M1156 499 c3 -5 28 -15 56 -24 28 -8 60 -23 70 -32 18 -16 18 -16 12
0 -3 9 -7 17 -8 17 0 0 -31 11 -68 24 -37 13 -65 19 -62 15z"/>
<path d="M1240 494 c52 -16 80 -45 80 -83 0 -29 -25 -71 -41 -71 -6 0 -1 12
10 26 12 15 21 34 21 43 -1 9 -7 1 -15 -17 -8 -19 -24 -36 -37 -40 -21 -5 -21
-6 -2 -13 12 -5 2 -8 -31 -8 -28 0 -42 3 -33 7 14 6 10 10 -17 18 -28 9 -35 8
-35 -3 0 -29 95 -44 143 -22 27 12 47 47 47 83 0 35 -36 74 -78 86 -55 15 -64
10 -12 -6z"/>
</g>
</svg>
