<?xml version="1.0" encoding="UTF-8"?>
<svg version="1.1" xmlns="http://www.w3.org/2000/svg" width="512" height="512">
<path d="M0 0 C1.01790619 0.00215515 2.03581238 0.0043103 3.08456421 0.00653076 C17.69363523 0.05620146 32.02575853 0.30709809 46.375 3.3125 C47.34985352 3.51117676 48.32470703 3.70985352 49.32910156 3.91455078 C88.47564494 12.10330594 124.69815091 27.79453981 156.375 52.3125 C157.261875 52.98667969 158.14875 53.66085938 159.0625 54.35546875 C174.64607275 66.46770077 189.25647311 80.753451 201.375 96.3125 C202.52162109 97.71628906 202.52162109 97.71628906 203.69140625 99.1484375 C238.32002637 142.39252491 256.81365997 197.89189907 256.69067383 253.03979492 C256.6875221 255.97938487 256.71104926 258.9179558 256.73632812 261.85742188 C256.78098737 275.23056192 255.57551542 288.12666711 253.375 301.3125 C253.09281616 303.01805054 253.09281616 303.01805054 252.80493164 304.75805664 C245.77946967 343.86954746 228.79665906 381.05202178 204.375 412.3125 C203.61574219 413.28445313 202.85648437 414.25640625 202.07421875 415.2578125 C189.73986402 430.63741644 175.93895499 445.19015196 160.375 457.3125 C159.43914062 458.07691406 158.50328125 458.84132813 157.5390625 459.62890625 C125.58628299 485.2157721 86.41988322 501.72551276 46.375 509.3125 C45.56562988 509.47621094 44.75625977 509.63992188 43.92236328 509.80859375 C13.88110013 515.67977137 -20.7615176 514.58512909 -50.625 508.3125 C-52.14794678 507.99901611 -52.14794678 507.99901611 -53.70166016 507.67919922 C-90.84546555 499.78695344 -125.70945445 483.68345578 -155.625 460.3125 C-156.59695312 459.55324219 -157.56890625 458.79398437 -158.5703125 458.01171875 C-173.94991644 445.67736402 -188.50265196 431.87645499 -200.625 416.3125 C-201.77162109 414.90871094 -201.77162109 414.90871094 -202.94140625 413.4765625 C-228.5282721 381.52378299 -245.03801276 342.35738322 -252.625 302.3125 C-252.78871094 301.50312988 -252.95242187 300.69375977 -253.12109375 299.85986328 C-258.59069558 271.87335724 -258.46977511 238.21828161 -252.625 210.3125 C-252.42632324 209.33764648 -252.22764648 208.36279297 -252.02294922 207.35839844 C-241.7272891 158.1397446 -219.29081567 114.71000304 -184.625 78.3125 C-184.05475098 77.71356934 -183.48450195 77.11463867 -182.89697266 76.49755859 C-174.89943802 68.16006957 -166.68545927 60.51490955 -157.40185547 53.63183594 C-155.57021053 52.27181818 -153.75559517 50.89100626 -151.94140625 49.5078125 C-143.51406667 43.1394627 -134.81758485 37.50780214 -125.625 32.3125 C-124.99464844 31.94946777 -124.36429688 31.58643555 -123.71484375 31.21240234 C-85.96656579 9.60246645 -43.19754839 -0.16448837 0 0 Z M-168.4375 91.875 C-174.23673185 97.72130234 -179.64233239 103.74647123 -184.625 110.3125 C-185.2739624 111.16279785 -185.2739624 111.16279785 -185.93603516 112.03027344 C-207.73375283 140.71268473 -223.08799602 173.02746673 -230.625 208.3125 C-230.83527832 209.28832031 -231.04555664 210.26414063 -231.26220703 211.26953125 C-237.40080656 241.24806004 -237.06485688 274.42761626 -230.625 304.3125 C-230.31151611 305.78009766 -230.31151611 305.78009766 -229.99169922 307.27734375 C-222.21173025 342.38336102 -206.5026495 375.53558845 -183.625 403.3125 C-183.17721191 403.86180176 -182.72942383 404.41110352 -182.26806641 404.97705078 C-171.34011255 418.31318078 -159.37085243 430.85657649 -145.625 441.3125 C-144.83053467 441.92955811 -144.83053467 441.92955811 -144.02001953 442.55908203 C-94.09925128 481.23372708 -32.10839884 497.37344544 30.375 490.3125 C37.78902268 489.34586916 45.08621699 487.97057344 52.375 486.3125 C53.25784668 486.11172852 54.14069336 485.91095703 55.05029297 485.70410156 C97.08794342 475.82095172 134.41172168 454.09133669 165.375 424.3125 C166.11194092 423.60843018 166.11194092 423.60843018 166.86376953 422.89013672 C173.58769752 416.43742599 179.68182373 409.6875314 185.375 402.3125 C185.79217285 401.77705566 186.2093457 401.24161133 186.63916016 400.68994141 C225.57558529 350.41449065 242.13645825 286.92624222 234.24145508 223.92895508 C233.46107207 218.68259479 232.49220802 213.49703011 231.375 208.3125 C231.16601074 207.33410156 230.95702148 206.35570312 230.74169922 205.34765625 C222.96173025 170.24163898 207.2526495 137.08941155 184.375 109.3125 C183.92721191 108.76319824 183.47942383 108.21389648 183.01806641 107.64794922 C172.09452933 94.31720932 160.12849418 81.74941588 146.375 71.3125 C145.80813477 70.8798584 145.24126953 70.4472168 144.65722656 70.00146484 C65.70656884 10.00148334 -45.31981283 3.09219296 -168.4375 91.875 Z " fill="#000000" transform="translate(255.625,-0.3125)"/>
<path d="M0 0 C8.3893405 7.07336552 14.55301184 15.54629498 16.1875 26.6875 C17.13270818 40.10635706 14.90807573 51.10653478 6.1875 61.6875 C0.99192559 67.19676947 -4.49572271 71.45426677 -11.8125 73.6875 C-12.8025 73.6875 -13.7925 73.6875 -14.8125 73.6875 C-14.8125 83.5875 -14.8125 93.4875 -14.8125 103.6875 C-11.60257324 103.66131592 -8.39264648 103.63513184 -5.08544922 103.6081543 C5.51955973 103.52530943 16.12458297 103.47007778 26.72982979 103.42843914 C33.15990438 103.4023446 39.58964746 103.36694785 46.01953125 103.31030273 C52.22464125 103.25597984 58.42943237 103.22607839 64.63476181 103.21311378 C67.00227758 103.20387456 69.36977588 103.18583251 71.73715591 103.15884972 C75.05318174 103.12255731 78.36788959 103.11755496 81.68408203 103.11987305 C82.6630394 103.10189667 83.64199677 103.08392029 84.65061951 103.06539917 C89.1280467 103.09927114 92.21555898 103.22189003 95.78146362 106.09797668 C98.85225326 109.40294806 99.31295671 110.77034491 99.30102539 115.13720703 C99.30094986 116.05801056 99.30087433 116.97881409 99.30079651 117.92752075 C99.29563522 118.92339203 99.29047394 119.91926331 99.28515625 120.9453125 C99.28303383 122.47259476 99.28303383 122.47259476 99.28086853 124.0307312 C99.275259 127.29135035 99.26270488 130.55190151 99.25 133.8125 C99.24498623 136.01953026 99.24042311 138.22656159 99.23632812 140.43359375 C99.22528648 145.85158581 99.20853905 151.26953805 99.1875 156.6875 C99.80659744 156.88829163 100.42569489 157.08908325 101.06355286 157.29595947 C101.87507309 157.56213074 102.68659332 157.828302 103.52270508 158.10253906 C104.32742752 158.36520569 105.13214996 158.62787231 105.96125793 158.89849854 C115.21868997 162.17942093 121.51109704 169.1949827 125.9375 177.6875 C130.9239429 188.39793041 132.213325 199.97089987 128.2265625 211.31640625 C122.87965824 223.51780055 115.37722115 231.28327518 103.1875 236.6875 C92.07601748 240.5970957 80.50291957 239.17505262 69.8125 234.69140625 C58.65703392 229.09430608 51.95638896 220.00395094 48.08203125 208.3671875 C45.23529829 196.6570458 46.80600178 185.73753076 52.5078125 175.26171875 C57.43896319 167.2452306 64.29413481 160.98922839 73.1875 157.6875 C74.8375 157.3575 76.4875 157.0275 78.1875 156.6875 C78.1875 146.1275 78.1875 135.5675 78.1875 124.6875 C47.4975 124.6875 16.8075 124.6875 -14.8125 124.6875 C-14.8125 135.2475 -14.8125 145.8075 -14.8125 156.6875 C-11.8425 157.6775 -8.8725 158.6675 -5.8125 159.6875 C4.83015537 165.10470746 11.17619956 173.59840913 15.1875 184.6875 C18.13103589 196.16166539 16.79824889 208.65722913 10.90234375 218.92578125 C4.02222781 228.79558545 -5.51471478 236.10775444 -17.40234375 238.37109375 C-30.20095452 240.05130035 -41.37603189 237.33281966 -51.8125 229.6875 C-60.03410356 222.98040236 -64.32256938 214.93241278 -66.8125 204.6875 C-67.9195155 191.38893722 -65.86567684 180.45443884 -57.8125 169.6875 C-52.17126392 163.40846334 -45.74715463 159.50871054 -37.8125 156.6875 C-37.1525 156.6875 -36.4925 156.6875 -35.8125 156.6875 C-35.8125 146.1275 -35.8125 135.5675 -35.8125 124.6875 C-66.5025 124.6875 -97.1925 124.6875 -128.8125 124.6875 C-128.8125 135.2475 -128.8125 145.8075 -128.8125 156.6875 C-125.8425 157.6775 -122.8725 158.6675 -119.8125 159.6875 C-108.52085268 165.43505021 -102.1068747 174.6994595 -98.19921875 186.546875 C-96.19841856 197.62201139 -97.46135962 209.12259939 -103.09765625 218.921875 C-109.96790952 228.796668 -119.51825004 236.10842754 -131.40234375 238.37109375 C-145.32645856 240.19905696 -156.61376512 236.60048863 -167.74609375 228.234375 C-175.38176475 221.50001928 -180.28671215 210.59169782 -181.05078125 200.55859375 C-181.32743837 187.75956189 -178.36156389 177.41690802 -169.8125 167.6875 C-164.75445779 162.86987662 -157.17542908 156.6875 -149.8125 156.6875 C-149.82360306 156.12453217 -149.83470612 155.56156433 -149.84614563 154.98153687 C-149.95697477 149.10910955 -150.03226428 143.23698046 -150.0871582 137.36376953 C-150.11226434 135.17354256 -150.14635637 132.98339906 -150.18969727 130.79345703 C-150.25051907 127.64074078 -150.27874923 124.48913447 -150.30078125 121.3359375 C-150.32658768 120.36071136 -150.3523941 119.38548523 -150.37898254 118.38070679 C-150.38083821 113.85769291 -150.32102844 110.68985457 -147.40698242 107.08447266 C-144.14874386 104.07427352 -142.799343 103.56222267 -138.50985718 103.56724548 C-137.60679337 103.56587082 -136.70372955 103.56449615 -135.77330017 103.56307983 C-134.28329247 103.56847275 -134.28329247 103.56847275 -132.76318359 103.57397461 C-131.71925949 103.57382858 -130.67533539 103.57368256 -129.59977722 103.5735321 C-126.13680977 103.57423078 -122.6738956 103.58202109 -119.2109375 103.58984375 C-116.81482981 103.59170809 -114.41872173 103.59313192 -112.02261353 103.59413147 C-105.70641025 103.59795539 -99.39022986 103.60778462 -93.07403564 103.61883545 C-86.63269358 103.62905226 -80.19134783 103.63362967 -73.75 103.63867188 C-61.10415498 103.64940699 -48.45833297 103.66700279 -35.8125 103.6875 C-35.8125 93.7875 -35.8125 83.8875 -35.8125 73.6875 C-38.7825 73.1925 -38.7825 73.1925 -41.8125 72.6875 C-54.38027544 66.89894191 -60.49445939 58.02114785 -65.8125 45.6875 C-69.26057965 35.64050931 -67.01206559 23.48789684 -62.62890625 14.171875 C-57.44298904 4.59335369 -49.34078208 -3.10824024 -38.8125 -6.3125 C-25.33086093 -10.01893249 -11.3750396 -8.46470338 0 0 Z M-39.125 17.875 C-43.67406071 22.63564493 -46.00609658 27.03854582 -46.3125 33.6875 C-46.00519262 40.35607015 -43.68321639 44.77426732 -39.0625 49.5 C-33.18699756 53.4546651 -28.18652246 55.47742778 -21.046875 54.3203125 C-13.82718584 52.27557536 -9.63370423 47.94037965 -5.8125 41.6875 C-3.90301724 35.95905171 -3.90064285 29.91187495 -6.4375 24.375 C-10.07842597 18.08266801 -15.0137993 15.27742198 -21.76171875 13.16796875 C-28.00427387 11.70542727 -33.99270337 14.48574751 -39.125 17.875 Z M-153.4375 181.875 C-157.97223713 187.24508345 -160.57306594 192.30398988 -160.19140625 199.45703125 C-159.08557188 205.96663356 -155.7308957 210.48384124 -150.6015625 214.5 C-145.38455838 217.96281496 -139.91499179 218.50637682 -133.8359375 217.29296875 C-126.95465963 215.23389912 -123.00105765 210.30337786 -119.375 204.3125 C-117.95402905 197.68130222 -118.01010827 191.50588396 -121.40234375 185.51171875 C-124.62160856 181.34718505 -128.8424206 178.34419313 -133.8125 176.6875 C-141.81355934 176.0343523 -147.12739927 176.61658273 -153.4375 181.875 Z M-42.25 184.75 C-46.07715282 190.18309706 -46.48878921 195.18546228 -45.8125 201.6875 C-43.99888618 207.90404375 -40.14412413 212.14860538 -34.8125 215.6875 C-29.1876741 218.2655452 -24.19811882 218.45430605 -18.3125 216.5625 C-12.88665838 213.65579913 -9.0078647 210.73118803 -5.875 205.375 C-3.77612263 198.09066088 -4.16792092 192.45600401 -7.8125 185.6875 C-10.81952266 180.89853798 -14.47258509 178.3545519 -19.8125 176.6875 C-29.1989432 175.33486845 -36.35957595 177.1706155 -42.25 184.75 Z M73.3984375 182.62890625 C68.58676944 188.8202232 67.37626329 193.88803853 68.1875 201.6875 C70.00111382 207.90404375 73.85587587 212.14860538 79.1875 215.6875 C84.24188309 218.00409225 89.02049135 218.61213365 94.421875 217.03515625 C101.13386629 214.41117308 104.99084257 210.48172647 108.5625 204.3125 C110.30086523 197.01136605 109.35407638 191.52096471 105.75390625 184.92578125 C102.77995371 180.67621814 99.11952542 178.33150847 94.1875 176.6875 C86.06374634 175.88693623 79.15236925 176.38501088 73.3984375 182.62890625 Z " fill="#000000" transform="translate(280.8125,118.3125)"/>
</svg>
