<?xml version="1.0" encoding="UTF-8"?>
<svg version="1.1" xmlns="http://www.w3.org/2000/svg" width="512" height="512">
<path d="M0 0 C3.50384281 0.00918968 7.00761163 -0.00498687 10.51143885 -0.01591969 C17.34681693 -0.03356368 24.18201782 -0.0299287 31.01740241 -0.01826912 C36.58026884 -0.00917881 42.14308614 -0.00803477 47.70595789 -0.01236439 C48.50232839 -0.01297732 49.2986989 -0.01359025 50.11920184 -0.01422176 C51.73778655 -0.01550086 53.35637124 -0.01679771 54.97495592 -0.01811212 C70.09796529 -0.02947655 85.22087715 -0.01646955 100.34387052 0.00508934 C113.27692179 0.02295655 126.20982937 0.01985127 139.14287806 0.0014143 C154.21743646 -0.02006596 169.29190973 -0.0283783 184.3664813 -0.01613665 C185.97860256 -0.01486266 187.59072382 -0.01360517 189.2028451 -0.01236439 C189.99572308 -0.01174729 190.78860106 -0.01113018 191.60550565 -0.01049438 C197.15178748 -0.00706286 202.69801461 -0.01282195 208.24428797 -0.0222826 C215.01755303 -0.03358396 221.79063306 -0.03029383 228.56387734 -0.00915962 C232.00955077 0.00124282 235.45491747 0.00566159 238.90058756 -0.00775623 C257.7255507 -0.06330024 276.22271858 0.65649135 293.76690149 8.21039867 C294.58465052 8.55071117 295.40239954 8.89102367 296.24492884 9.24164867 C308.12455111 14.34119384 318.64693055 21.09405799 328.45440149 29.52289867 C329.13760462 30.07332836 329.82080774 30.62375805 330.52471399 31.19086742 C336.32163745 35.97617091 340.86566859 41.59544932 345.45440149 47.52289867 C346.13631556 48.37754711 346.81822962 49.23219555 347.52080774 50.11274242 C366.905427 75.33930174 370.93106373 104.30603748 370.86123455 135.22755826 C370.85644924 138.80711193 370.86905947 142.38661464 370.87925196 145.96615124 C370.89634188 152.95631584 370.89730048 159.94639016 370.89203905 166.9365702 C370.88797753 172.62536115 370.88946428 178.31412567 370.89478731 184.00291538 C370.89553573 184.81634452 370.89628416 185.62977366 370.89705526 186.46785217 C370.89858693 188.12098347 370.90012528 189.77411477 370.90167022 191.42724606 C370.9153599 206.88786191 370.90998262 222.34842698 370.89848501 237.80904164 C370.88855739 251.91092733 370.90149146 266.01268172 370.9254192 280.11454717 C370.9498818 294.64263497 370.95940049 309.17066179 370.95276648 323.69876975 C370.94928998 331.83585663 370.95140169 339.97284267 370.96901751 348.10991383 C370.98382952 355.03695209 370.98425874 361.96381847 370.96694659 368.89085368 C370.95850727 372.41549589 370.95611037 375.93983227 370.97159815 379.46445751 C371.03715471 398.3318541 370.20503787 416.64008485 363.20440149 434.39789867 C362.90703089 435.1734309 362.60966028 435.94896313 362.30327845 436.74799633 C357.309393 449.34895254 350.00142425 460.08121571 341.45440149 470.52289867 C340.82404993 471.29633617 340.19369837 472.06977367 339.54424524 472.86664867 C327.93170015 486.62182737 312.7118943 496.20172786 296.45440149 503.52289867 C295.39865931 504.00629711 294.34291712 504.48969555 293.25518274 504.98774242 C275.08845364 512.64056429 256.27898345 513.11829924 236.8501668 513.0311383 C233.33822865 513.01985939 229.82635155 513.03202576 226.31441736 513.04098034 C219.464331 513.05479995 212.61443096 513.04744189 205.76435372 513.03230476 C197.76549326 513.01531187 189.76667749 513.01867135 181.76780453 513.02239884 C167.4862162 513.02825635 153.20471647 513.01418708 138.92315149 512.98945141 C125.10345629 512.96551883 111.28387933 512.9584569 97.46416712 512.9689436 C82.36474895 512.98038106 67.26538525 512.98224942 52.1659677 512.9678455 C50.55279478 512.96631986 48.93962185 512.96479951 47.32644892 512.96328449 C46.53300809 512.96252668 45.73956726 512.96176886 44.92208277 512.96098809 C39.3619118 512.95626848 33.80176536 512.95807996 28.24159479 512.96234989 C21.45799106 512.96730221 14.67449855 512.96117832 7.89092013 512.9414556 C4.43769133 512.93165906 0.98463101 512.92639465 -2.46860647 512.93434811 C-39.7830939 512.99402457 -70.93898916 503.85868056 -98.02997351 477.06586742 C-125.97982607 448.81221211 -134.0395024 416.37465355 -133.95243156 377.81823909 C-133.94764626 374.23868542 -133.96025648 370.65918271 -133.97044897 367.07964611 C-133.98753889 360.08948151 -133.9884975 353.09940719 -133.98323607 346.10922714 C-133.97917454 340.4204362 -133.98066129 334.73167168 -133.98598433 329.04288197 C-133.98673275 328.22945283 -133.98748117 327.41602368 -133.98825227 326.57794518 C-133.98978394 324.92481388 -133.99132229 323.27168258 -133.99286724 321.61855129 C-134.00655692 306.15793544 -134.00117963 290.69737037 -133.98968203 275.23675571 C-133.9797544 261.13487002 -133.99268848 247.03311563 -134.01661622 232.93125018 C-134.04107882 218.40316238 -134.0505975 203.87513555 -134.04396349 189.3470276 C-134.04048699 181.20994072 -134.0425987 173.07295468 -134.06021452 164.93588352 C-134.07502653 158.00884526 -134.07545576 151.08197888 -134.05814361 144.15494367 C-134.04970428 140.63030146 -134.04730738 137.10596508 -134.06279516 133.58133984 C-134.12835173 114.71394325 -133.29623489 96.40571249 -126.29559851 78.64789867 C-125.9982279 77.87236645 -125.7008573 77.09683422 -125.39447546 76.29780102 C-120.40059001 63.69684481 -113.09262126 52.96458164 -104.54559851 42.52289867 C-103.91524694 41.74946117 -103.28489538 40.97602367 -102.63544226 40.17914867 C-91.02289716 26.42396998 -75.80309131 16.84406949 -59.54559851 9.52289867 C-57.96198523 8.79780102 -57.96198523 8.79780102 -56.34637976 8.05805492 C-38.20260905 0.4149044 -19.40486633 -0.07556473 0 0 Z " fill="#D1EAE0" transform="translate(137.5455985069275,-0.5228986740112305)"/>
<path d="M0 0 C8.73076873 8.73076873 12.54572768 17.59645616 12.75 29.75 C12.68825394 42.38187153 7.67081376 51.2488381 -1.21533203 60.14672852 C-1.75580673 60.69552673 -2.29628143 61.24432495 -2.85313416 61.80975342 C-4.62848349 63.60905164 -6.41126323 65.40073642 -8.1953125 67.19140625 C-9.44366434 68.44873628 -10.69194399 69.70613798 -11.94015503 70.96360779 C-14.55405435 73.59395894 -17.17228216 76.21991803 -19.79296875 78.84350586 C-23.13347811 82.18939316 -26.4575368 85.55112539 -29.77780342 88.91708469 C-32.34996697 91.51913935 -34.93345875 94.10972205 -37.52010727 96.69737053 C-38.74968012 97.93112214 -39.97517364 99.16895443 -41.19629288 100.41107368 C-51.12372417 110.49553334 -60.70689908 117.95527596 -75.375 118.6875 C-85.43759897 118.4394236 -94.21315918 114.93465944 -101.6875 108.3125 C-107.41318351 103.60471578 -111.32033808 102.89767256 -118.66796875 102.96875 C-123.11182653 103.47464843 -125.71518407 105.02730871 -128.6875 108.3125 C-132.04176564 113.07339317 -132.52294348 117.66605443 -131.6875 123.3125 C-128.8795596 132.84890137 -120.53799034 138.19532996 -112.31640625 142.90234375 C-103.99045999 147.36841596 -95.93575595 150.32727228 -86.6875 152.3125 C-86.6875 152.9725 -86.6875 153.6325 -86.6875 154.3125 C-87.59628906 154.48072266 -87.59628906 154.48072266 -88.5234375 154.65234375 C-100.39871966 157.44760247 -108.02983112 167.51996956 -116.26742172 175.97008324 C-118.84924553 178.61426534 -121.44781913 181.24195442 -124.04296875 183.87304688 C-127.3115825 187.18942428 -130.57533103 190.51024482 -133.82373047 193.84643555 C-136.48035125 196.5739703 -139.15196398 199.28603381 -141.83362198 201.98894691 C-142.83966755 203.00841218 -143.8403385 204.03321541 -144.83498764 205.06380272 C-154.36649498 214.93041551 -163.9223764 221.31073131 -177.9375 221.5625 C-189.44364924 221.40659012 -198.07239054 216.72298901 -206.4375 209.0625 C-215.0703881 200.06823519 -216.13871599 189.821035 -215.97265625 178.01171875 C-215.76650286 172.74392991 -214.63257277 168.70283996 -211.6875 164.3125 C-211.11475342 163.40359009 -210.54200684 162.49468018 -209.9519043 161.55822754 C-207.62441153 158.22207092 -205.0494927 155.365013 -202.19140625 152.49414062 C-201.38551308 151.67335274 -201.38551308 151.67335274 -200.56333923 150.83598328 C-198.79774145 149.04136361 -197.02461674 147.25444919 -195.25 145.46875 C-194.63979004 144.85288528 -194.02958008 144.23702057 -193.40087891 143.60249329 C-190.16998222 140.34169738 -186.93343532 137.08663957 -183.69189453 133.83642578 C-180.36771625 130.50130571 -177.06248913 127.14805797 -173.76145935 123.79004669 C-171.19947459 121.1905579 -168.62392105 118.6048311 -166.04464722 116.02250671 C-164.82140274 114.79326209 -163.60309631 113.55908062 -162.39016724 112.31965637 C-152.34392845 102.06983072 -142.64558389 94.42363773 -127.6875 93.9375 C-116.60883962 94.0626826 -108.06397079 98.23733866 -99.90625 105.54296875 C-95.56249168 109.00726896 -91.45396165 109.77986885 -86.03125 109.6171875 C-81.2567448 108.99650182 -77.35727429 107.39619017 -74.30078125 103.58203125 C-71.51807942 98.69033435 -70.72579471 93.8523232 -71.6875 88.3125 C-76.19788587 77.4124008 -87.3373425 71.03222964 -97.6875 66.3125 C-103.58577394 64.00442747 -109.62263135 62.12783483 -115.6875 60.3125 C-115.6875 59.6525 -115.6875 58.9925 -115.6875 58.3125 C-115.0584375 58.10496094 -114.429375 57.89742188 -113.78125 57.68359375 C-112.9253125 57.37550781 -112.069375 57.06742187 -111.1875 56.75 C-110.3521875 56.45996094 -109.516875 56.16992188 -108.65625 55.87109375 C-100.68346558 51.68538193 -94.50739763 44.23230424 -88.25790787 37.86637688 C-86.72072891 36.30210659 -85.17883394 34.74262824 -83.63546753 33.1844635 C-79.25301079 28.75970149 -74.87343067 24.33221261 -70.51025391 19.88842773 C-67.82549769 17.15476473 -65.13074475 14.43129762 -62.42950058 11.71393013 C-61.41247073 10.68710385 -60.39907848 9.65665958 -59.38968277 8.6223278 C-41.38681415 -9.81552316 -22.20626248 -13.94346714 0 0 Z " fill="#D1EAE0" transform="translate(357.6875,149.6875)"/>
<path d="M0 0 C9.04898189 8.42275477 15.49344189 19.28694763 19.5078125 30.9140625 C19.84941406 31.66558594 20.19101562 32.41710937 20.54296875 33.19140625 C25.12796623 46.129638 24.13567659 65.22959292 19.5078125 77.9140625 C19.17910156 78.87957031 18.85039062 79.84507812 18.51171875 80.83984375 C13.05104712 95.40793312 2.93994329 106.09445376 -7.890625 116.84375 C-9.17478605 118.13061501 -10.45835364 119.41807248 -11.74136353 120.70608521 C-14.4126128 123.38318273 -17.09083463 126.05303781 -19.77441406 128.71777344 C-23.18922193 132.10974865 -26.58568647 135.51943753 -29.97711754 138.93476677 C-32.61749269 141.58968742 -35.26743388 144.23489592 -37.92024612 146.87738419 C-39.17569948 148.1301968 -40.42826538 149.38591076 -41.67768478 150.64474106 C-48.77264225 157.78141547 -55.62467398 163.97607873 -64.4921875 168.9140625 C-65.19346771 169.3143869 -65.89474792 169.7147113 -66.61727905 170.12716675 C-82.14411364 178.77292286 -102.22747852 180.5355815 -119.3671875 176.4140625 C-133.28879884 172.08357222 -149.43776277 163.81202701 -156.7421875 150.6640625 C-158.04816778 145.87546815 -158.50152979 141.37460508 -156.58203125 136.6953125 C-153.99222741 132.23185636 -151.3036095 129.0135921 -146.4921875 126.9140625 C-139.00699079 125.91325625 -133.57694975 126.41133844 -127.4921875 130.9140625 C-126.5228125 131.7390625 -125.5534375 132.5640625 -124.5546875 133.4140625 C-116.92351684 139.64358957 -108.09628448 142.46882452 -98.26953125 142.2265625 C-82.06945175 140.40376874 -72.78037511 130.52440552 -61.8203125 119.578125 C-60.60835732 118.3726091 -59.39625758 117.16723853 -58.184021 115.96200562 C-55.65575021 113.44565148 -53.13158706 110.92525795 -50.60986328 108.40234375 C-47.39002568 105.18230247 -44.15661644 101.97627166 -40.91954422 98.77356911 C-38.41613861 96.29246953 -35.92194568 93.80226265 -33.43019867 91.30945969 C-32.24218225 90.12379069 -31.05095059 88.94133364 -29.85636139 87.76228714 C-21.26016301 79.35776252 -21.26016301 79.35776252 -15.4921875 68.9140625 C-15.08742188 67.92792969 -14.68265625 66.94179687 -14.265625 65.92578125 C-11.69019363 55.89720757 -12.52126294 44.03007112 -17.4921875 34.9140625 C-19.04207138 32.7451032 -20.67882567 30.87853781 -22.4921875 28.9140625 C-22.4921875 28.2540625 -22.4921875 27.5940625 -22.4921875 26.9140625 C-23.07097656 26.635625 -23.64976562 26.3571875 -24.24609375 26.0703125 C-26.40284637 24.96005376 -28.39655246 23.73459377 -30.4296875 22.4140625 C-39.47291669 16.7307022 -49.91803465 15.22413055 -60.3984375 17.5625 C-71.67435709 21.26834998 -79.56811244 29.71552562 -87.70535851 38.00746918 C-89.35328795 39.68600417 -91.00818544 41.35739104 -92.66499329 43.02716064 C-97.36784715 47.76942654 -102.05749329 52.52467846 -106.74438477 57.28271484 C-109.62726216 60.20838932 -112.51748424 63.12664788 -115.41208839 66.04071808 C-116.50699978 67.14615393 -117.59898942 68.25449207 -118.68790245 69.3658371 C-120.20918679 70.91845034 -121.73959442 72.46151893 -123.2722168 74.00292969 C-124.13775681 74.88116394 -125.00329681 75.75939819 -125.89506531 76.66424561 C-131.45182938 81.47792042 -136.3359446 82.58673311 -143.51171875 82.390625 C-148.31803938 81.62211764 -151.30550146 79.52404267 -154.4921875 75.9140625 C-157.48845786 70.95148971 -158.67038257 65.62877242 -157.4921875 59.9140625 C-154.92212889 54.93685352 -152.18421562 51.22229091 -148.21142578 47.21337891 C-147.69688339 46.69036697 -147.182341 46.16735504 -146.65220642 45.62849426 C-144.96332745 43.91638674 -143.26364573 42.21553884 -141.5625 40.515625 C-140.36835367 39.31436346 -139.17450105 38.11280989 -137.98092651 36.91098022 C-135.47942175 34.3960591 -132.97209356 31.88711864 -130.4609375 29.38183594 C-127.27605661 26.20281722 -124.10970636 23.00603971 -120.94810677 19.80388832 C-118.4858396 17.31549182 -116.01189816 14.83894852 -113.53472519 12.36539841 C-112.36442611 11.19342838 -111.19800755 10.01756769 -110.035923 8.83745193 C-78.99759234 -22.62879176 -35.29726674 -29.54348032 0 0 Z " fill="#78C9A3" transform="translate(382.4921875,125.0859375)"/>
<path d="M0 0 C5.27249244 4.0834437 10.78073094 8.42031783 12.9453125 14.9140625 C13.72026574 21.35506726 12.85027956 26.63578898 8.9453125 31.9140625 C3.86536417 35.95728668 -0.28793423 37.28424205 -6.65234375 37.19140625 C-12.18871377 36.55224809 -16.28459195 33.73968161 -20.2421875 29.9765625 C-27.65220027 23.37308173 -37.27424251 21.11829606 -46.98828125 21.5625 C-62.24408759 23.31157334 -71.62033475 33.00358313 -82.0078125 43.3984375 C-83.23821891 44.62172749 -84.46891684 45.84472431 -85.69989014 47.06744385 C-88.26670321 49.62087654 -90.8275798 52.18009164 -93.38476562 54.74316406 C-96.64480854 58.00910732 -99.92275096 61.25640827 -103.20586014 64.49914169 C-105.74891618 67.0162196 -108.28027843 69.54481457 -110.8085556 72.07672882 C-112.01174718 73.27823971 -113.21887283 74.47582563 -114.43015289 75.66918182 C-124.52660439 85.63249988 -131.25690983 94.39338768 -131.3671875 108.9765625 C-131.35720972 120.81575362 -128.87421133 127.95598835 -120.55078125 136.6484375 C-111.91033197 144.49109882 -103.20557335 147.36635282 -91.71484375 147.09765625 C-77.21429186 146.09688395 -67.89537094 137.44788862 -58.22265625 127.5 C-57.0170696 126.27997667 -55.81020281 125.06121712 -54.60212708 123.84365845 C-51.44500164 120.65631125 -48.30236501 117.45508727 -45.16357422 114.24969482 C-40.12685558 109.11009784 -35.07015558 103.99022168 -30.00969887 98.87401199 C-28.25129801 97.09153394 -26.50036943 95.30196612 -24.75028992 93.51132202 C-23.67121257 92.41538921 -22.59194323 91.31964541 -21.51245117 90.22412109 C-20.79154549 89.48064674 -20.79154549 89.48064674 -20.05607605 88.72215271 C-15.24093965 83.85966392 -11.59016834 81.47972028 -4.6796875 81.4140625 C0.36097974 81.54506289 3.76485886 81.98468576 7.578125 85.37109375 C11.78374423 90.11743546 13.37986028 94.03989731 13.4765625 100.41015625 C11.38348164 110.27533882 3.8652264 116.59713616 -2.984375 123.41015625 C-4.17874152 124.60976902 -5.37259007 125.80989769 -6.56594849 127.01051331 C-9.06600912 129.52095317 -11.57336476 132.02381366 -14.0859375 134.52172852 C-17.27251018 137.69121095 -20.4384361 140.88042776 -23.59876823 144.07604885 C-26.06086454 146.56034375 -28.53481571 149.03257356 -31.01214981 151.50166512 C-32.18228864 152.67099485 -33.34870183 153.84406736 -34.510952 155.02123833 C-45.4622372 166.09135993 -57.13507938 174.7797844 -72.0546875 179.9140625 C-72.93769531 180.23246094 -73.82070312 180.55085937 -74.73046875 180.87890625 C-93.63929264 186.68260467 -113.71672987 182.88172274 -130.83203125 173.83203125 C-135.66121796 170.95793347 -139.89158197 167.67756803 -144.0546875 163.9140625 C-144.76238281 163.28757812 -145.47007812 162.66109375 -146.19921875 162.015625 C-158.36594935 150.61658486 -166.87239828 133.31595886 -167.453125 116.57421875 C-167.46097468 114.37500013 -167.45301335 112.17567142 -167.4296875 109.9765625 C-167.44128906 108.88666016 -167.45289063 107.79675781 -167.46484375 106.67382812 C-167.42669647 95.9735149 -165.29972612 86.29685324 -160.3671875 76.7890625 C-159.91569336 75.85126953 -159.91569336 75.85126953 -159.45507812 74.89453125 C-153.70063867 63.52403566 -144.12678806 54.6612278 -135.2265625 45.75 C-133.98865059 44.50564189 -132.75088075 43.26114242 -131.51324463 42.01651001 C-128.93146194 39.42282924 -126.34565855 36.83323556 -123.75732422 34.24609375 C-120.46823419 30.95720696 -117.1931326 27.65476347 -113.92139816 24.34862328 C-111.37328094 21.77809748 -108.81595053 19.21688671 -106.25608063 16.65806961 C-105.0458 15.44545552 -103.83869747 14.22965954 -102.63509369 13.01041794 C-93.35380127 3.61983904 -83.90627354 -4.68808407 -71.3671875 -9.4609375 C-69.59794922 -10.15316406 -69.59794922 -10.15316406 -67.79296875 -10.859375 C-44.34368467 -18.55328848 -20.17688322 -13.77807626 0 0 Z " fill="#56C1A0" transform="translate(274.0546875,223.0859375)"/>
</svg>
