<?xml version="1.0" encoding="UTF-8"?>
<svg version="1.1" xmlns="http://www.w3.org/2000/svg" width="700" height="123">
<path d="M0 0 C1.24587891 0.02215576 2.49175781 0.04431152 3.77539062 0.06713867 C6.49866784 0.1200616 9.21986664 0.18296535 11.94238281 0.26025391 C15.84096564 0.36787411 19.73906098 0.42835464 23.63876343 0.47839355 C26.91457213 0.52244048 30.19000887 0.58112106 33.46551514 0.64349365 C35.06542601 0.6727141 36.66541015 0.69817604 38.26544189 0.7197876 C40.52128529 0.75317043 42.77591017 0.80572321 45.03125 0.86328125 C46.32869141 0.88946533 47.62613281 0.91564941 48.96289062 0.94262695 C53.55061969 1.52397127 56.16645919 3.04560511 59.25 6.4375 C62.27000546 14.32306982 58.32737737 24.5695911 56.390625 32.42578125 C55.94441803 34.25123726 55.94441803 34.25123726 55.48919678 36.11357117 C54.86087528 38.67016173 54.2286687 41.22580029 53.59277344 43.78051758 C52.78137901 47.04233542 51.99303785 50.30927006 51.20996475 53.57798481 C50.45252637 56.7186301 49.66992255 59.85300087 48.890625 62.98828125 C48.61333557 64.15603592 48.33604614 65.32379059 48.050354 66.52693176 C46.50769297 72.5959166 45.38740069 76.49621195 40.375 80.375 C39.653125 81.138125 38.93125 81.90125 38.1875 82.6875 C36.375 84.375 36.375 84.375 34.375 84.375 C35.68670193 76.53142195 37.42188576 68.86837906 39.4140625 61.171875 C40.00025933 58.86985769 40.586189 56.56777233 41.171875 54.265625 C42.08812396 50.68141671 43.00698117 47.09792508 43.93066406 43.515625 C44.82830391 40.02787061 45.715596 36.53761006 46.6015625 33.046875 C47.01869003 31.44667511 47.01869003 31.44667511 47.44424438 29.81414795 C49.39968141 22.17832734 49.39968141 22.17832734 49.375 14.375 C48.32841565 12.37113922 48.32841565 12.37113922 46.375 11.375 C34.60394775 8.74675714 21.04991544 10.26479158 9.0625 10.3125 C6.85742289 10.31752517 4.65234467 10.32208628 2.44726562 10.32617188 C-2.91018078 10.33709657 -8.2675851 10.35375399 -13.625 10.375 C-13.74359375 11.49970703 -13.8621875 12.62441406 -13.984375 13.78320312 C-14.5854097 18.57099091 -15.69095079 23.17124338 -16.875 27.84375 C-17.09317383 28.72349487 -17.31134766 29.60323975 -17.53613281 30.50964355 C-18.46125906 34.23943095 -19.39712779 37.96650121 -20.33203125 41.69384766 C-21.01676632 44.4303971 -21.69599125 47.16827508 -22.375 49.90625 C-22.58543945 50.73668823 -22.79587891 51.56712646 -23.01269531 52.42272949 C-25.59844748 61.43508841 -25.59844748 61.43508841 -24.375 70.3125 C-22.23975346 72.82904056 -20.65223713 73.28426325 -17.40400696 73.57118225 C-16.10828011 73.62114601 -16.10828011 73.62114601 -14.78637695 73.67211914 C-13.8055867 73.71208511 -12.82479645 73.75205109 -11.81428528 73.79322815 C-10.22978828 73.85110756 -10.22978828 73.85110756 -8.61328125 73.91015625 C-7.52991989 73.95313339 -6.44655853 73.99611053 -5.33036804 74.04039001 C-1.86622484 74.176867 1.59811751 74.30725284 5.0625 74.4375 C7.40952085 74.52889615 9.75652632 74.62068806 12.10351562 74.71289062 C17.86050647 74.93818822 23.61767257 75.15848373 29.375 75.375 C29.23450482 76.85468324 29.08745174 78.33374516 28.9375 79.8125 C28.85628906 80.63621094 28.77507812 81.45992188 28.69140625 82.30859375 C28.375 84.375 28.375 84.375 27.375 85.375 C17.47014025 85.87170388 7.46388744 85.28826725 -2.4375 84.9375 C-3.56913574 84.89834473 -4.70077148 84.85918945 -5.86669922 84.81884766 C-27.22617948 84.003934 -27.22617948 84.003934 -33.625 79.375 C-37.52099063 73.53101405 -36.31440378 66.19778163 -35.11157227 59.52801514 C-33.6921823 52.76454448 -32.01422392 46.06818987 -30.29052734 39.37670898 C-29.37045569 35.79480871 -28.48244598 32.20599382 -27.59765625 28.61523438 C-27.02010556 26.32504682 -26.44074291 24.03531528 -25.859375 21.74609375 C-25.59566101 20.67838242 -25.33194702 19.61067108 -25.0602417 18.51060486 C-23.69146491 13.26904453 -22.54410075 9.31812325 -18.625 5.375 C-17.81289063 4.45460938 -17.00078125 3.53421875 -16.1640625 2.5859375 C-11.50656838 -1.11513281 -5.64015182 -0.18111629 0 0 Z " fill="#220AB2" transform="translate(35.625,28.625)"/>
<path d="M0 0 C4.0384057 -0.0744389 8.07654293 -0.12873729 12.11547852 -0.16479492 C13.48794517 -0.17983432 14.86036414 -0.20027133 16.23266602 -0.22631836 C18.21088656 -0.26291221 20.18946514 -0.27816698 22.16796875 -0.29296875 C23.35672607 -0.3086792 24.5454834 -0.32438965 25.77026367 -0.34057617 C30.14102237 0.12032098 32.69326441 1.73832426 35.8125 4.75 C38.13287253 9.14649533 37.45344804 12.48075528 36.0859375 17.0625 C32.39253104 27.35638124 27.58167942 34.2971498 19 41 C19.495 41.680625 19.99 42.36125 20.5 43.0625 C22.90067479 47.76382147 22.39346147 51.65387174 20.93359375 56.6484375 C20.45264833 57.89760558 19.95329547 59.13981401 19.4375 60.375 C19.03096191 61.35617798 19.03096191 61.35617798 18.61621094 62.35717773 C14.38540007 72.13518606 8.74933347 78.42744829 -1 83 C-4.58550552 84.16877837 -7.98147897 84.11411632 -11.734375 84.09765625 C-13.67763672 84.09282227 -13.67763672 84.09282227 -15.66015625 84.08789062 C-17.02343817 84.07953598 -18.38671942 84.07107104 -19.75 84.0625 C-21.12890465 84.05748168 -22.50781104 84.05291935 -23.88671875 84.04882812 C-27.25785659 84.03704093 -30.62890628 84.02058635 -34 84 C-31.25953738 75.24437033 -27.77253322 66.8011397 -24.3125 58.3125 C-23.99062714 57.52017975 -23.66875427 56.7278595 -23.33712769 55.91152954 C-15.73459093 37.20044879 -7.88729006 18.59247527 0 0 Z M6 10 C4.32742736 13.78908876 2.66294885 17.58167885 1 21.375 C0.52304687 22.45523438 0.04609375 23.53546875 -0.4453125 24.6484375 C-0.89648438 25.6796875 -1.34765625 26.7109375 -1.8125 27.7734375 C-2.23144531 28.72653809 -2.65039062 29.67963867 -3.08203125 30.66162109 C-4.12180594 32.89159667 -4.12180594 32.89159667 -4 35 C-1.10359882 35.08120751 1.79050912 35.14059421 4.6875 35.1875 C5.50412109 35.21263672 6.32074219 35.23777344 7.16210938 35.26367188 C11.92663889 35.32154065 15.20056944 35.20888236 19 32 C20.56722999 29.94869543 20.56722999 29.94869543 21.6875 27.625 C22.09742188 26.82707031 22.50734375 26.02914062 22.9296875 25.20703125 C23.28289062 24.47871094 23.63609375 23.75039063 24 23 C24.6496875 21.6696875 24.6496875 21.6696875 25.3125 20.3125 C26.15749389 17.47024783 26.13712465 14.94817987 26 12 C22.1584024 9.43219529 18.1860825 9.77311118 13.75 9.875 C13.00492187 9.88402344 12.25984375 9.89304687 11.4921875 9.90234375 C9.66131941 9.92581642 7.83061762 9.96168475 6 10 Z M-9 45 C-10.59718478 48.64261542 -12.18169397 52.29045272 -13.75463867 55.94360352 C-14.29154063 57.18566592 -14.83188785 58.42624494 -15.37573242 59.6652832 C-16.15666509 61.44609497 -16.92422893 63.23275053 -17.69140625 65.01953125 C-18.15748291 66.09307861 -18.62355957 67.16662598 -19.10375977 68.27270508 C-20.31584406 71.04679332 -20.31584406 71.04679332 -19 74 C-16.31026414 73.93948851 -13.62571222 73.85228103 -10.9375 73.75 C-10.18533203 73.73582031 -9.43316406 73.72164062 -8.65820312 73.70703125 C-3.03218732 73.46348078 0.42534122 72.35021479 5 69 C9.56555243 62.71554437 12 55.74080844 12 48 C9.6031335 45.6031335 8.92971686 45.71718867 5.6484375 45.5859375 C4.79765625 45.54726563 3.946875 45.50859375 3.0703125 45.46875 C2.18085938 45.4378125 1.29140625 45.406875 0.375 45.375 C-0.5221875 45.33632813 -1.419375 45.29765625 -2.34375 45.2578125 C-4.5622927 45.16340643 -6.78082403 45.07783252 -9 45 Z " fill="#220AB2" transform="translate(445,16)"/>
<path d="M0 0 C3.61717848 2.32532902 5.25464492 3.57643477 6.625 7.6875 C8.13771533 17.08931298 4.15486557 25.22221153 0.625 33.6875 C-0.24235791 35.81763895 -1.10953279 37.94785244 -1.9765625 40.078125 C-2.91987211 42.36541038 -3.86519134 44.65186798 -4.8125 46.9375 C-5.25440674 48.01386719 -5.69631348 49.09023437 -6.15161133 50.19921875 C-11.65454375 63.2615635 -17.6109968 75.63164652 -30.875 82.125 C-38.29845664 85.02983086 -44.8593116 85.36257553 -52.375 82.6875 C-55.69816251 80.04601185 -57.06218895 77.96208322 -57.6484375 73.69921875 C-58.19874247 61.10570117 -51.21302669 48.46688562 -46.40087891 37.02661133 C-45.79763237 35.58584934 -45.20067105 34.14244042 -44.60986328 32.6965332 C-39.52513677 20.25336509 -33.36225295 7.68852444 -20.73828125 1.3671875 C-13.62855593 -1.46876988 -7.26757865 -2.82628059 0 0 Z M-27.53369141 18.12353516 C-31.10049628 23.09019981 -33.21117 28.73702899 -35.5 34.375 C-35.99886719 35.56544922 -36.49773437 36.75589844 -37.01171875 37.98242188 C-38.49367661 41.54028155 -39.94093555 45.11009123 -41.375 48.6875 C-41.85670654 49.87923828 -42.33841309 51.07097656 -42.8347168 52.29882812 C-43.28758057 53.44158203 -43.74044434 54.58433594 -44.20703125 55.76171875 C-44.61155518 56.77967529 -45.0160791 57.79763184 -45.43286133 58.84643555 C-46.85332291 63.12990573 -47.02404194 66.21632217 -46.375 70.6875 C-44.9521736 72.94213249 -44.9521736 72.94213249 -42.375 73.6875 C-36.60742275 74.46390463 -31.98974863 73.12915365 -27.375 69.6875 C-22.47692283 64.82533465 -19.66605076 59.69048891 -17.0703125 53.3515625 C-16.70146942 52.47277435 -16.33262634 51.59398621 -15.9526062 50.68856812 C-15.18155222 48.84068288 -14.41716515 46.99000289 -13.65917969 45.13671875 C-12.50253067 42.3186657 -11.31533406 39.51490097 -10.125 36.7109375 C-9.37572532 34.90442397 -8.6282676 33.09715553 -7.8828125 31.2890625 C-7.52978058 30.4606485 -7.17674866 29.6322345 -6.8130188 28.77871704 C-4.71496478 23.56554023 -3.15545628 18.3244365 -4.375 12.6875 C-6.0374754 10.62844152 -6.80700361 9.79785359 -9.42578125 9.2890625 C-17.70920375 9.37490108 -22.17628873 11.88938995 -27.53369141 18.12353516 Z " fill="#2A2A29" transform="translate(221.375,16.3125)"/>
<path d="M0 0 C1.37478516 0.01740234 1.37478516 0.01740234 2.77734375 0.03515625 C3.69644531 0.04417969 4.61554688 0.05320312 5.5625 0.0625 C6.27277344 0.07410156 6.98304688 0.08570313 7.71484375 0.09765625 C6.36618456 3.51651942 5.01021571 6.93244216 3.65234375 10.34765625 C3.00471069 11.97960937 3.00471069 11.97960937 2.34399414 13.64453125 C-0.44120545 20.61789577 -3.30991037 27.54917505 -6.25390625 34.45703125 C-6.93755 36.06862917 -7.62106226 37.68028288 -8.30444336 39.29199219 C-9.3186319 41.68322105 -10.33670799 44.07235422 -11.36819458 46.45617676 C-12.34203518 48.70728706 -13.30102483 50.96425555 -14.2578125 53.22265625 C-14.54906006 53.88440857 -14.84030762 54.54616089 -15.14038086 55.22796631 C-17.09882111 59.9013164 -18.75121059 64.976924 -18.28515625 70.09765625 C-17.07018298 71.90170429 -17.07018298 71.90170429 -15.28515625 73.09765625 C-9.34186463 73.91340216 -5.05260224 72.51454769 -0.28515625 69.09765625 C6.90487139 61.30439218 10.19216785 49.88196329 14.08984375 40.22265625 C14.81287069 38.44883882 15.53682345 36.67539847 16.26171875 34.90234375 C17.3403902 32.26330475 18.41825879 29.62396898 19.49212646 26.98297119 C23.15232444 17.98710739 26.92500573 9.03952518 30.71484375 0.09765625 C34.01484375 0.09765625 37.31484375 0.09765625 40.71484375 0.09765625 C38.60298615 6.69919765 36.15460506 13.05797103 33.44140625 19.43359375 C33.03578461 20.39359283 32.63016296 21.35359192 32.21224976 22.34268188 C31.35827565 24.36194727 30.50266929 26.38052306 29.64550781 28.3984375 C28.34715009 31.4554533 27.05400344 34.51463147 25.76171875 37.57421875 C24.92608765 39.54830681 24.09015977 41.52226928 23.25390625 43.49609375 C22.87352203 44.39540619 22.49313782 45.29471863 22.10122681 46.22128296 C9.61071673 75.59994904 9.61071673 75.59994904 -3.66015625 82.97265625 C-11.12718418 85.29000975 -17.90402391 85.8973961 -25.28515625 83.09765625 C-28.41657106 80.44799757 -29.54910222 77.97983417 -30.28515625 74.03515625 C-30.91715206 61.71846457 -22.57796547 47.90170189 -17.91015625 36.78515625 C-16.42145669 33.2272802 -14.93525102 29.66836575 -13.44921875 26.109375 C-13.09160461 25.25487762 -12.73399048 24.40038025 -12.36553955 23.51998901 C-9.62651579 16.96092224 -6.9834628 10.36794318 -4.39208984 3.74926758 C-2.87828066 0.12300345 -2.87828066 0.12300345 0 0 Z " fill="#8E8F90" transform="translate(345.28515625,15.90234375)"/>
<path d="M0 0 C1.38419072 4.15257216 -0.24265273 6.71920884 -1.875 10.55859375 C-2.19112747 11.32301285 -2.50725494 12.08743195 -2.83296204 12.87501526 C-3.87964163 15.39969194 -4.9397301 17.91850408 -6 20.4375 C-6.72765359 22.18519449 -7.45445086 23.93324574 -8.18041992 25.68164062 C-9.68703376 29.3054816 -11.19927591 32.92689514 -12.71630859 36.54638672 C-14.92179523 41.80906708 -17.11303264 47.07758194 -19.30078125 52.34765625 C-21.85830727 58.50468435 -24.41890449 64.66040671 -26.98828125 70.8125 C-27.25014725 71.44007706 -27.51201324 72.06765411 -27.78181458 72.71424866 C-29.49782103 76.81977614 -31.24233558 80.91219532 -33 85 C-36.3 85 -39.6 85 -43 85 C-43 84.01 -43 83.02 -43 82 C-43.61875 82.474375 -44.2375 82.94875 -44.875 83.4375 C-49.17723054 85.58861527 -53.20547255 86.13405751 -58 86 C-61.07032008 84.78466497 -62.41107988 83.95570705 -64.13012695 81.16601562 C-67.28959902 73.29881489 -62.31047561 63.72140109 -59.3125 56.5 C-58.67924805 54.90478516 -58.67924805 54.90478516 -58.03320312 53.27734375 C-53.72439458 42.6840437 -48.55296069 30.98990745 -38.3515625 24.953125 C-34.03884701 23.20511407 -29.52886355 23.01840775 -25 24 C-23.30415448 25.29601834 -21.63368225 26.62645063 -20 28 C-19.67201416 27.21761963 -19.34402832 26.43523926 -19.00610352 25.62915039 C-17.79109897 22.73411828 -16.57391304 19.84001626 -15.35522461 16.9465332 C-14.8276507 15.69267184 -14.30095469 14.43844073 -13.77514648 13.18383789 C-13.02036299 11.38331289 -12.26218582 9.5842117 -11.50390625 7.78515625 C-11.04830322 6.70113525 -10.5927002 5.61711426 -10.12329102 4.50024414 C-9 2 -9 2 -8 1 C-5.34536879 0.54540142 -2.67810862 0.29756762 0 0 Z M-42 40 C-43.91753942 43.14331484 -45.34409469 46.41447255 -46.75 49.8125 C-47.12253906 50.66392578 -47.49507812 51.51535156 -47.87890625 52.39257812 C-53.10940413 63.34691323 -53.10940413 63.34691323 -53 75 C-48.74742859 76.04144606 -46.49211849 76.19515044 -42.375 74.5625 C-35.19660877 69.86270599 -32.27181947 60.48059309 -29.1875 52.875 C-28.78080078 51.91207031 -28.37410156 50.94914062 -27.95507812 49.95703125 C-25.109671 43.21459096 -25.109671 43.21459096 -25 36 C-26.97142293 33.62478684 -26.97142293 33.62478684 -30.6875 33.5 C-35.88282189 33.66193363 -38.65132233 36.21087081 -42 40 Z " fill="#220AB1" transform="translate(668,15)"/>
<path d="M0 0 C1.23556641 0.01740234 1.23556641 0.01740234 2.49609375 0.03515625 C3.32238281 0.04417969 4.14867187 0.05320313 5 0.0625 C5.63808594 0.07410156 6.27617187 0.08570313 6.93359375 0.09765625 C6.93359375 1.41765625 6.93359375 2.73765625 6.93359375 4.09765625 C8.32578125 3.10765625 8.32578125 3.10765625 9.74609375 2.09765625 C14.59092239 -0.66092985 19.50370368 -0.86460275 24.93359375 0.09765625 C28.57725834 2.72448421 28.83825262 4.51607534 29.55859375 8.91015625 C29.22763411 15.59554093 26.40584166 21.76003308 23.86181641 27.86376953 C23.23256241 29.37814986 22.61539803 30.89759996 22.00927734 32.42138672 C17.43955403 43.90629195 12.77096032 55.24048261 0.93359375 60.84765625 C-3.94122508 62.47005689 -8.39501178 62.34274454 -13.06640625 60.09765625 C-13.72640625 59.10765625 -14.38640625 58.11765625 -15.06640625 57.09765625 C-19.24908685 66.02664107 -23.22705449 75.01663632 -27.06640625 84.09765625 C-30.36640625 84.09765625 -33.66640625 84.09765625 -37.06640625 84.09765625 C-33.0433941 73.02167213 -28.63084012 62.15646438 -23.97460938 51.33255005 C-22.09754519 46.96857448 -20.231543 42.59988621 -18.3671875 38.23046875 C-17.99864655 37.36690262 -17.63010559 36.50333649 -17.25039673 35.61360168 C-13.45777226 26.70482705 -9.80243368 17.74282077 -6.20239258 8.75463867 C-5.79657959 7.74506104 -5.3907666 6.7354834 -4.97265625 5.6953125 C-4.62525391 4.82398682 -4.27785156 3.95266113 -3.91992188 3.05493164 C-2.64219906 0.12486763 -2.64219906 0.12486763 0 0 Z M0.93359375 16.09765625 C-1.19380023 19.7317624 -2.79395687 23.51392635 -4.37890625 27.41015625 C-4.80751953 28.40466797 -5.23613281 29.39917969 -5.67773438 30.42382812 C-8.13062626 36.25183803 -10.08453129 41.839757 -11.06640625 48.09765625 C-9.8356331 50.911926 -9.8356331 50.911926 -7.06640625 52.09765625 C-2.29201802 52.18607085 1.01638966 51.07303871 4.5390625 47.7734375 C7.45167993 44.27340142 9.13337989 40.24843506 10.93359375 36.09765625 C11.22975586 35.43523926 11.52591797 34.77282227 11.83105469 34.09033203 C12.82007495 31.87076339 13.78618513 29.64245696 14.74609375 27.41015625 C15.06054443 26.69762695 15.37499512 25.98509766 15.69897461 25.25097656 C17.58983639 20.72887114 18.45451795 17.08723139 17.93359375 12.09765625 C15.96217082 9.72244309 15.96217082 9.72244309 12.24609375 9.59765625 C7.03186343 9.77408198 4.25441781 12.23818177 0.93359375 16.09765625 Z " fill="#8E8F90" transform="translate(390.06640625,38.90234375)"/>
<path d="M0 0 C1.68222656 -0.05607422 1.68222656 -0.05607422 3.3984375 -0.11328125 C7.27885586 0.39878364 8.86062425 1.60341177 11.625 4.3125 C13.61732636 8.29715271 13.15632724 13.24778811 12.06628418 17.48364258 C11.27762234 19.68240576 10.40627923 21.82248493 9.484375 23.96875 C9.16092102 24.75592407 8.83746704 25.54309814 8.50421143 26.35412598 C7.47580707 28.84663955 6.42580166 31.32935848 5.375 33.8125 C4.68477478 35.47727525 3.99596056 37.14263625 3.30859375 38.80859375 C0.18180865 46.35696096 -3.039402 53.85386002 -6.375 61.3125 C-9.345 61.3125 -12.315 61.3125 -15.375 61.3125 C-15.705 60.6525 -16.035 59.9925 -16.375 59.3125 C-17.19291016 59.65474609 -17.19291016 59.65474609 -18.02734375 60.00390625 C-23.70983352 62.17005192 -28.44158002 63.03664008 -34.375 61.3125 C-37.55351638 59.24646436 -38.20274214 57.84003969 -39.375 54.25 C-39.375 44.81098479 -34.7545964 37.01317018 -28.375 30.3125 C-20.00559815 23.36767719 -10.71359111 24.05113112 -0.375 24.3125 C-0.01279734 22.52244059 0.33952469 20.73037943 0.6875 18.9375 C0.88472656 17.93976562 1.08195313 16.94203125 1.28515625 15.9140625 C1.86882952 13.33407461 1.86882952 13.33407461 0.625 11.3125 C-2.87634281 9.97375128 -4.40505965 10.3228654 -8 11.5625 C-11.29719613 13.03140215 -11.29719613 13.03140215 -13 15.0625 C-13.45375 15.475 -13.9075 15.8875 -14.375 16.3125 C-17.24868492 16.02513151 -19.63290144 15.22653285 -22.375 14.3125 C-19.90146736 8.24110169 -14.82335415 4.62888948 -9.375 1.3125 C-6.08407406 0.21552469 -3.46387841 0.0753017 0 0 Z M-25.140625 38.609375 C-27.99021202 42.54108368 -28.80084174 45.41531995 -28.375 50.3125 C-25.9808839 52.7066161 -25.33713689 52.60848923 -22.0625 52.625 C-16.7307143 52.48828755 -14.0614718 50.94936969 -10.25 47.25 C-7.66208272 43.19559626 -6.56201588 38.94366043 -5.375 34.3125 C-16.24947756 33.27848199 -16.24947756 33.27848199 -25.140625 38.609375 Z " fill="#220AB2" transform="translate(544.375,38.6875)"/>
<path d="M0 0 C3.07365786 1.80803404 4.43019732 2.86039464 6 6 C7.70130833 17.00050502 3.42879973 25.19337204 -1 35 C-10.57 35 -20.14 35 -30 35 C-32.96666667 45.06666667 -32.96666667 45.06666667 -30 50 C-23.01035273 50.36127957 -23.01035273 50.36127957 -17 47 C-16.34 46.01 -15.68 45.02 -15 44 C-12.64828869 44.59861742 -10.3140622 45.26924352 -8 46 C-7.67 46.66 -7.34 47.32 -7 48 C-12.90584756 55.19884377 -18.39816261 60.84777951 -28 62 C-33.02264938 62.15118343 -36.03255328 61.78605046 -40 58.5625 C-43.24963199 54.39890901 -43.57867202 51.17498119 -43 46 C-38.6048322 28.15455964 -30.59006965 11.78376952 -15.3125 1.125 C-10.22878392 -0.60154508 -5.30958749 -0.69158493 0 0 Z M-19 14 C-23.48090675 19.42704588 -23.48090675 19.42704588 -25 26 C-19.06 26 -13.12 26 -7 26 C-3.90958704 19.81917408 -3.46862759 18.37646897 -4 12 C-5.91725994 9.66847692 -5.91725994 9.66847692 -9.25 9.625 C-13.82096292 10.08209629 -15.54028838 10.9819537 -19 14 Z " fill="#2A2A29" transform="translate(310,39)"/>
<path d="M0 0 C0.96226501 0.00611801 1.92453003 0.01223602 2.91595459 0.01853943 C5.98152176 0.04530625 9.04451046 0.11413575 12.109375 0.18359375 C14.11976468 0.2051568 16.13018476 0.22405804 18.140625 0.24023438 C24.04920632 0.30102299 29.95311223 0.44927837 35.859375 0.62109375 C36.81416748 0.64500183 37.76895996 0.66890991 38.75268555 0.69354248 C41.49219472 0.76639425 44.23015016 0.85991836 46.96875 0.9609375 C48.18670258 0.99206383 48.18670258 0.99206383 49.42926025 1.02381897 C54.23018511 1.23413206 57.72100285 1.93751858 61.859375 4.62109375 C64.98697513 10.81986823 63.27909 16.07985514 61.609375 22.55859375 C61.34068604 23.64873779 61.07199707 24.73888184 60.79516602 25.86206055 C60.1809384 28.3462512 59.55940707 30.82864289 58.93212891 33.30957031 C57.92790675 37.30840708 56.98119876 41.31967267 56.04067993 45.33390808 C55.18732317 48.96594738 54.31760772 52.59396342 53.44519043 56.22146606 C53.01451578 58.02312708 52.5892612 59.82609272 52.16955566 61.63034058 C51.57157207 64.19032123 50.95064312 66.74372618 50.32421875 69.296875 C50.15029099 70.06357513 49.97636322 70.83027527 49.79716492 71.62020874 C48.14993291 78.16202706 44.49607409 81.928084 38.859375 85.62109375 C38.199375 85.62109375 37.539375 85.62109375 36.859375 85.62109375 C38.53511304 76.50384791 40.56940051 67.50227281 42.77734375 58.5 C43.17265793 56.88416519 43.17265793 56.88416519 43.57595825 55.23568726 C44.67707458 50.74327651 45.78135114 46.25171169 46.8972168 41.76293945 C47.71967588 38.44809349 48.53057962 35.13058824 49.33984375 31.8125 C49.59291794 30.80715714 49.84599213 29.80181427 50.10673523 28.76600647 C51.44877059 23.22467744 52.13140729 18.32280611 51.859375 12.62109375 C48.49933682 11.50108102 45.81869879 11.42218406 42.27661133 11.32397461 C41.61293045 11.30432144 40.94924957 11.28466827 40.26545715 11.26441956 C38.07420619 11.20060562 35.88283623 11.14324522 33.69140625 11.0859375 C32.17110586 11.04292348 30.6508168 10.99950689 29.13053894 10.95570374 C25.13085182 10.84154566 21.13103395 10.73286017 17.13116455 10.62530518 C13.04893872 10.51456949 8.96685987 10.39867052 4.88476562 10.28320312 C-3.12356295 10.05744008 -11.13203698 9.83745697 -19.140625 9.62109375 C-16.29068589 1.07127641 -7.95739748 -0.24547641 0 0 Z " fill="#2A2A29" transform="translate(69.140625,-0.62109375)"/>
<path d="M0 0 C1.23556641 0.01740234 1.23556641 0.01740234 2.49609375 0.03515625 C3.32238281 0.04417969 4.14867187 0.05320313 5 0.0625 C5.63808594 0.07410156 6.27617188 0.08570313 6.93359375 0.09765625 C6.93359375 1.41765625 6.93359375 2.73765625 6.93359375 4.09765625 C8.32578125 3.10765625 8.32578125 3.10765625 9.74609375 2.09765625 C14.57499379 -0.6617152 19.51473733 -0.77829202 24.93359375 0.09765625 C27.58923177 1.99454055 28.50601902 3.2425068 29.93359375 6.09765625 C30.24827571 11.1819295 29.59361267 14.87320905 27.74609375 19.59765625 C27.49706299 20.23840088 27.24803223 20.87914551 26.99145508 21.53930664 C23.81899761 29.584041 20.45298897 37.55540624 17.12109375 45.53515625 C16.82506256 46.24462402 16.52903137 46.9540918 16.22402954 47.68505859 C15.37385031 49.71846001 14.51975644 51.750164 13.6640625 53.78125 C13.16285889 54.97290771 12.66165527 56.16456543 12.14526367 57.39233398 C10.93359375 60.09765625 10.93359375 60.09765625 9.93359375 61.09765625 C8.41431337 61.16945589 6.89191893 61.18157632 5.37109375 61.16015625 C4.54480469 61.15113281 3.71851563 61.14210937 2.8671875 61.1328125 C2.22910156 61.12121094 1.59101562 61.10960937 0.93359375 61.09765625 C1.62348643 56.54370119 3.28502775 52.49489856 5.05859375 48.27734375 C5.36555176 47.53686798 5.67250977 46.79639221 5.98876953 46.03347778 C6.96610003 43.67806532 7.9495983 41.32529116 8.93359375 38.97265625 C9.91635829 36.61238661 10.89784134 34.25159079 11.87841797 31.89041138 C12.48787733 30.42400975 13.09882572 28.9582259 13.71142578 27.49313354 C15.99235408 22.02243848 17.15479562 18.07010675 16.93359375 12.09765625 C15.79071989 10.74320258 15.79071989 10.74320258 12.74609375 10.78515625 C8.19205978 11.15843772 6.48373599 12.27396401 2.93359375 15.09765625 C0.96614006 17.95572225 0.96614006 17.95572225 -0.5078125 21.29296875 C-0.79604385 21.89996613 -1.08427521 22.5069635 -1.38124084 23.13235474 C-4.87997082 30.62022381 -7.94642515 38.29709565 -11.00390625 45.97265625 C-11.59776932 47.45073709 -12.19216798 48.92860286 -12.78710938 50.40625 C-14.21969548 53.96761609 -15.64511658 57.53176774 -17.06640625 61.09765625 C-20.36640625 61.09765625 -23.66640625 61.09765625 -27.06640625 61.09765625 C-26.37311075 56.35528197 -24.59047731 52.26361835 -22.71484375 47.89453125 C-22.37772369 47.09847473 -22.04060364 46.30241821 -21.69326782 45.48223877 C-20.61373922 42.93547207 -19.52782527 40.39149019 -18.44140625 37.84765625 C-17.38178445 35.35562771 -16.32351998 32.86302719 -15.26568604 30.37023926 C-14.56677067 28.72364547 -13.86702669 27.07740315 -13.16644287 25.43151855 C-10.45624978 19.05394023 -7.81117549 12.65099305 -5.21713257 6.22528076 C-2.73609135 0.12930488 -2.73609135 0.12930488 0 0 Z " fill="#220AB1" transform="translate(577.06640625,38.90234375)"/>
<path d="M0 0 C3.3 0 6.6 0 10 0 C9.67 1.65 9.34 3.3 9 5 C9.44988281 4.6390625 9.89976562 4.278125 10.36328125 3.90625 C15.39627393 0.27523324 19.35981642 -0.75998642 25.56640625 -0.3984375 C28 0 28 0 30.6875 1.3125 C33.21226369 6.48225422 32.70316743 12.44109043 31.20239258 17.90258789 C30.07911424 20.93929692 28.85144583 23.90487163 27.5625 26.875 C27.11600098 27.94548584 26.66950195 29.01597168 26.20947266 30.11889648 C24.82606597 33.42137156 23.41540672 36.7111309 22 40 C21.10977239 42.09727246 20.22041956 44.19491651 19.33203125 46.29296875 C17.24466287 51.20561887 15.13054203 56.10592881 13 61 C9.7 61 6.4 61 3 61 C3.78479728 58.83064168 4.57649191 56.66432924 5.375 54.5 C5.63176514 53.80382568 5.88853027 53.10765137 6.15307617 52.39038086 C7.85656839 47.84692026 9.67532031 43.36900812 11.58984375 38.91015625 C12.03859863 37.86085937 12.48735352 36.8115625 12.94970703 35.73046875 C13.84278077 33.65441628 14.7457637 31.58259224 15.65966797 29.515625 C18.21380069 23.56616044 19.75557997 18.49364559 20 12 C18.85086031 10.63392985 18.85086031 10.63392985 15.75 10.75 C10.78497732 11.08100151 8.45747264 12.42654711 5.11010742 16.0402832 C2.38546366 19.86197201 0.71122708 23.84443903 -1.07421875 28.16796875 C-1.44352005 29.04399246 -1.81282135 29.92001617 -2.1933136 30.82258606 C-3.36558871 33.60779301 -4.52677016 36.39746454 -5.6875 39.1875 C-6.47906781 41.07518442 -7.27137771 42.96255785 -8.06445312 44.84960938 C-9.17813622 47.49963548 -10.29068173 50.15007499 -11.39738464 52.80302429 C-11.72475113 53.58756485 -12.05211761 54.37210541 -12.3894043 55.18041992 C-12.82098091 56.21703011 -12.82098091 56.21703011 -13.26127625 57.27458191 C-13.80064501 58.53437167 -14.38713967 59.77427934 -15 61 C-18.3 61 -21.6 61 -25 61 C-18.93675068 45.65710499 -12.6995581 30.39870647 -6.29223633 15.19702148 C-6.02163895 14.55496262 -5.75104156 13.91290375 -5.47224426 13.25138855 C-4.73620784 11.50611966 -3.99900457 9.76134301 -3.26171875 8.01660156 C-2.14811237 5.35411696 -1.06276662 2.68311149 0 0 Z " fill="#2A2A29" transform="translate(237,39)"/>
<path d="M0 0 C1.794375 -0.04253906 1.794375 -0.04253906 3.625 -0.0859375 C7.58821628 0.45533509 9.18702559 1.59305104 12 4.375 C13.4783226 7.33164519 13.06032783 10.11729737 13 13.375 C11.71086513 14.04654933 10.41859796 14.71208859 9.125 15.375 C8.40570312 15.74625 7.68640625 16.1175 6.9453125 16.5 C5 17.375 5 17.375 3 17.375 C2.34 15.395 1.68 13.415 1 11.375 C-3.53709354 10.00012317 -6.64727838 10.55477096 -11 12.375 C-14.28335593 16.16348761 -15.20871695 18.45762855 -15 23.375 C-14.03578125 23.61734375 -13.0715625 23.8596875 -12.078125 24.109375 C-10.81484375 24.44453125 -9.5515625 24.7796875 -8.25 25.125 C-6.99703125 25.44984375 -5.7440625 25.7746875 -4.453125 26.109375 C-0.85998171 27.42631892 0.77852133 28.29081116 3 31.375 C5.08399983 38.20125721 2.13328231 43.3357201 -1 49.375 C-4.80962114 55.59662979 -10.16037404 59.01007912 -17 61.375 C-22.89839748 62.59949771 -28.48828038 63.1980759 -34 60.375 C-36.21299886 58.46105504 -37.69462761 56.98574479 -39 54.375 C-39.04022391 52.0420134 -39.04320247 49.70793334 -39 47.375 C-37.71086513 46.70345067 -36.41859796 46.03791141 -35.125 45.375 C-34.40570312 45.00375 -33.68640625 44.6325 -32.9453125 44.25 C-31 43.375 -31 43.375 -29 43.375 C-28.649375 44.509375 -28.29875 45.64375 -27.9375 46.8125 C-27.17060847 48.75072068 -27.17060847 48.75072068 -26 50.375 C-21.84292215 51.81398849 -19.5250251 51.52627842 -15.3125 50.3125 C-11.52638196 48.09797813 -9.98251213 46.26072377 -8 42.375 C-8 41.055 -8 39.735 -8 38.375 C-9.03640625 38.07207031 -10.0728125 37.76914063 -11.140625 37.45703125 C-12.5106931 37.03474999 -13.88046987 36.61152273 -15.25 36.1875 C-15.93191406 35.99091797 -16.61382813 35.79433594 -17.31640625 35.59179688 C-21.95836457 34.12710129 -24.52185038 32.59868431 -27 28.375 C-27.91212193 22.75878857 -25.50782698 17.31093425 -22.65625 12.5859375 C-16.60123319 4.50306128 -10.16434928 0.10952963 0 0 Z " fill="#220AB2" transform="translate(687,38.625)"/>
<path d="M0 0 C0.66678772 0.00278961 1.33357544 0.00557922 2.02056885 0.00845337 C4.2032567 0.02314811 6.3841708 0.06729596 8.56640625 0.11328125 C10.08372522 0.13233857 11.60106038 0.15014589 13.1184082 0.16674805 C17.02083484 0.21589194 20.92218858 0.29306765 24.82397461 0.3782959 C27.06554201 0.42447584 29.30702342 0.4607304 31.54882812 0.49316406 C35.63868837 0.55315042 39.72723613 0.64175086 43.81640625 0.73828125 C45.05511475 0.76043701 46.29382324 0.78259277 47.57006836 0.80541992 C60.92204837 1.21892337 60.92204837 1.21892337 66.12890625 6.42578125 C67.37690497 14.46506828 65.08582439 22.70535944 63.34765625 30.5 C63.05289134 31.83656303 62.75817383 33.17313652 62.46350098 34.50971985 C61.84616087 37.29427235 61.21918595 40.07646878 60.58691406 42.85766602 C59.78328795 46.40217662 59.01831844 49.95387051 58.26207733 53.50874615 C57.66836032 56.26663628 57.04714958 59.01781354 56.41847229 61.76792336 C55.98300616 63.7039848 55.57604012 65.64638685 55.1697998 67.58879089 C53.51604655 74.61602149 51.74070734 78.91423516 46.03674316 83.47297668 C44.12890625 84.42578125 44.12890625 84.42578125 41.12890625 83.42578125 C41.41078796 82.27185631 41.41078796 82.27185631 41.69836426 81.09461975 C43.47459631 73.81539122 45.24085115 66.53384626 46.99617767 59.24955082 C47.89877668 55.50543908 48.80509466 51.76231306 49.72021484 48.02124023 C50.60456422 44.40534761 51.47874775 40.7871305 52.34617615 37.16714287 C52.67749722 35.79211883 53.0123641 34.4179438 53.35096741 33.0446949 C55.16152784 25.69147721 56.56299788 19.01153252 56.12890625 11.42578125 C51.91526355 10.64262067 47.85496425 10.2556051 43.57275391 10.12866211 C42.29187897 10.08869614 41.01100403 10.04873016 39.6913147 10.0075531 C38.30853519 9.96848942 36.92575314 9.92951546 35.54296875 9.890625 C34.11663758 9.84756916 32.69031727 9.80415246 31.26400757 9.76039124 C27.52575549 9.6466602 23.78737697 9.53780693 20.0489502 9.42999268 C16.22785691 9.31892265 12.40690457 9.20320717 8.5859375 9.08789062 C1.10039016 8.86265849 -6.38529699 8.64258281 -13.87109375 8.42578125 C-10.83906264 1.88559637 -7.16851973 -0.08658672 0 0 Z " fill="#8E8F90" transform="translate(46.87109375,14.57421875)"/>
<path d="M0 0 C2.64 0 5.28 0 8 0 C9.32557898 3.97673695 8.29636852 6.97216442 7.34765625 10.921875 C7.16867294 11.70008606 6.98968964 12.47829712 6.80528259 13.28009033 C6.23191419 15.77188473 5.64841401 18.26112769 5.0625 20.75 C4.29459805 24.01366279 3.5369572 27.27947044 2.78515625 30.546875 C2.51796532 31.65974884 2.51796532 31.65974884 2.24537659 32.79510498 C1.20668774 37.31195622 0.82596704 41.36470646 1 46 C14.66015793 47.41264685 28.27813571 48.43992391 42 49 C41.67 51.64 41.34 54.28 41 57 C-2.14091549 57.28242114 -2.14091549 57.28242114 -8 53 C-11.48613121 47.77080319 -9.73985866 41.76309761 -8.56756592 35.80053711 C-7.30823072 29.92231159 -5.87328856 24.08708944 -4.4375 18.25 C-4.00764588 16.47415605 -3.57860313 14.69811551 -3.15039062 12.921875 C-2.1095946 8.61226117 -1.05787634 4.30545151 0 0 Z " fill="#8E8F90" transform="translate(27,41)"/>
<path d="M0 0 C3.3 0 6.6 0 10 0 C9.67 1.98 9.34 3.96 9 6 C9.47050781 5.65066406 9.94101562 5.30132812 10.42578125 4.94140625 C11.04839844 4.48636719 11.67101562 4.03132813 12.3125 3.5625 C12.92738281 3.11003906 13.54226563 2.65757813 14.17578125 2.19140625 C17.24863288 0.18451172 19.97978125 -0.17917195 23.5625 -0.25 C24.74005859 -0.28867187 24.74005859 -0.28867187 25.94140625 -0.328125 C26.62074219 -0.21984375 27.30007813 -0.1115625 28 0 C28.66 0.99 29.32 1.98 30 3 C28.02 5.97 26.04 8.94 24 12 C22.68 11.7525 21.36 11.505 20 11.25 C14.82204601 10.67920192 11.12948583 11.83435562 7 15 C4.13389143 18.30012851 2.15103734 21.42691155 0.4140625 25.4296875 C-0.0392041 26.46609375 -0.4924707 27.5025 -0.95947266 28.5703125 C-1.42659668 29.66085938 -1.8937207 30.75140625 -2.375 31.875 C-2.85888184 32.98875 -3.34276367 34.1025 -3.84130859 35.25 C-7.02461589 42.61400106 -10.08662447 50.01622983 -12.9765625 57.5 C-14 60 -14 60 -15 61 C-16.51928038 61.07179964 -18.04167482 61.08392007 -19.5625 61.0625 C-20.38878906 61.05347656 -21.21507812 61.04445312 -22.06640625 61.03515625 C-22.70449219 61.02355469 -23.34257812 61.01195312 -24 61 C-23.39301599 55.5867817 -21.55034102 51.13009385 -19.39453125 46.19140625 C-19.03284348 45.34762924 -18.6711557 44.50385223 -18.29850769 43.63450623 C-17.14270882 40.94111851 -15.97804574 38.25168229 -14.8125 35.5625 C-13.2953652 32.0441753 -11.78189136 28.52428566 -10.26953125 25.00390625 C-9.903367 24.15309479 -9.53720276 23.30228333 -9.15994263 22.4256897 C-5.97525229 15.001182 -2.94789935 7.52155766 0 0 Z " fill="#220AB1" transform="translate(489,39)"/>
<path d="M0 0 C2.64 0 5.28 0 8 0 C7.63327743 4.25591191 7.24726393 8.22911834 5.9375 12.3125 C4.60694651 17.54601038 4.84125403 22.62909459 5 28 C10.84287556 29.97166994 16.29602521 30.41276761 22.4375 30.625 C23.82098633 30.68300781 23.82098633 30.68300781 25.23242188 30.7421875 C27.48798068 30.83568217 29.74396176 30.91889361 32 31 C31.34 33.97 30.68 36.94 30 40 C26.52061859 40.05441257 23.0421052 40.09387254 19.5625 40.125 C18.58861328 40.14175781 17.61472656 40.15851563 16.61132812 40.17578125 C2.36455906 40.27107736 2.36455906 40.27107736 -3.5 36.3125 C-6.64966782 31.45676212 -6.13349369 26.87738237 -5.0390625 21.42578125 C-4.58003274 19.38520929 -4.10834854 17.34744876 -3.625 15.3125 C-3.39039063 14.28060547 -3.15578125 13.24871094 -2.9140625 12.18554688 C-1.98381696 8.11307989 -1.02273784 4.05025419 0 0 Z " fill="#2A2A29" transform="translate(41,44)"/>
</svg>
