<?xml version="1.0" encoding="UTF-8"?>
<svg version="1.1" xmlns="http://www.w3.org/2000/svg" width="520" height="357">
<path d="M0 0 C171.6 0 343.2 0 520 0 C520 117.81 520 235.62 520 357 C348.4 357 176.8 357 0 357 C0 239.19 0 121.38 0 0 Z " fill="#FEFEFE" transform="translate(0,0)"/>
<path d="M0 0 C8.63662296 6.30101319 13.44046721 15.00992758 15.60083008 25.33154297 C16.40686573 30.71990363 16.38149981 36.12396327 16.375 41.5625 C16.37483887 42.82940674 16.37467773 44.09631348 16.37451172 45.40161133 C16.21989434 58.41144288 14.16614607 70.84067693 11.46044922 83.53051758 C6.91196422 105.28127939 6.59584239 128.08418242 10 150 C10.33495025 152.33310177 10.66875573 154.66636918 11 157 C-1.85721685 149.11620514 -8.75611864 133.6762534 -14 120 C-16.43155683 124.43672692 -17.92494443 129.28455994 -19.52539062 134.06835938 C-21.20003739 138.7582494 -23.06736007 141.74646587 -27 145 C-27.99 145.33 -28.98 145.66 -30 146 C-29.34 146.33 -28.68 146.66 -28 147 C-31.49124017 149.32749345 -32.89222251 149.50299316 -37 149 C-45.32524747 142.44406509 -45.75792827 127.83851551 -47 118 C-47.76183594 119.05058594 -48.52367187 120.10117188 -49.30859375 121.18359375 C-64.54492071 141.98246791 -64.54492071 141.98246791 -72 145 C-78.06435644 145.64975248 -78.06435644 145.64975248 -81.25 143.4375 C-85.85652862 137.0212637 -86.49343298 131.26418815 -86.6875 123.5625 C-86.72166016 122.64017578 -86.75582031 121.71785156 -86.79101562 120.76757812 C-86.87282994 118.51184049 -86.94219122 116.25645881 -87 114 C-87.89460938 114.54269531 -88.78921875 115.08539063 -89.7109375 115.64453125 C-100.99869888 122.37862692 -110.49252395 126.36828978 -124 125 C-126.63573521 124.24816733 -128.59288235 123.34350753 -131 122 C-128.26485571 118.80567091 -124.73039099 117.03822469 -121.125 115 C-110.08385427 108.56413721 -100.78456613 100.26227667 -92 91 C-95.03179396 93.2968136 -97.77665063 95.72934664 -100.4375 98.4375 C-103.47014458 101.52334887 -106.63061286 104.28805425 -110 107 C-110.66 106.67 -111.32 106.34 -112 106 C-111.30132812 105.38511719 -110.60265625 104.77023438 -109.8828125 104.13671875 C-108.97273438 103.32847656 -108.06265625 102.52023438 -107.125 101.6875 C-106.22007813 100.88699219 -105.31515625 100.08648437 -104.3828125 99.26171875 C-101.86787689 97.04188943 -101.86787689 97.04188943 -100 94 C-99.34 94 -98.68 94 -98 94 C-97.76152344 93.46246094 -97.52304688 92.92492187 -97.27734375 92.37109375 C-95.98951768 89.98054199 -94.47119095 87.89872222 -92.82861328 85.74194336 C-81.55435727 70.7871406 -74.14977884 53.75032495 -67.41064453 36.38842773 C-63.03894692 25.34716759 -57.48218964 14.48218964 -49 6 C-48.01 6 -47.02 6 -46 6 C-44.20044113 4.8193767 -44.20044113 4.8193767 -42.375 3.25 C-30.00496581 -6.17266142 -14.0353765 -6.9894291 0 0 Z " fill="#00A192" transform="translate(232,34)"/>
<path d="M0 0 C8.4556194 6.26679959 15.82622762 13.79994378 22.53515625 21.87890625 C23.43280934 22.91717217 24.33276267 23.9534516 25.234375 24.98828125 C30.32020518 30.83926567 35.28362377 36.75256488 40.03515625 42.87890625 C48.28699384 53.50456013 57.11601509 63.58039459 66.35546875 73.35546875 C68.21659818 75.51010963 69.44683703 77.2742771 70.53515625 79.87890625 C62.84007391 73.44016388 56.0451029 66.50556889 49.53515625 58.87890625 C48.69855469 57.90824219 47.86195313 56.93757813 47 55.9375 C40.57658325 48.44789903 34.47742789 40.75467192 28.53515625 32.87890625 C41.67416793 53.2830185 57.24273877 72.99454855 76.53515625 87.87890625 C78.30628593 89.33687966 80.07712808 90.79520244 81.84765625 92.25390625 C85.27384061 94.999177 88.58783861 96.94910652 92.53515625 98.87890625 C94.96016623 100.78039065 97.26124082 102.80009007 99.53515625 104.87890625 C93.97874824 110.43531426 82.97731517 110.20259099 75.47265625 110.25390625 C68.14788652 110.21152645 61.53699176 109.09424109 54.53515625 106.87890625 C53.20422911 106.53609168 51.87171571 106.19905887 50.53515625 105.87890625 C51.07785156 106.80832031 51.62054688 107.73773438 52.1796875 108.6953125 C52.90254907 109.94389157 53.62519372 111.19259624 54.34765625 112.44140625 C54.70408203 113.05048828 55.06050781 113.65957031 55.42773438 114.28710938 C59.36565228 121.11524226 62.340684 126.82362875 61.53515625 134.87890625 C60.47265625 136.94140625 60.47265625 136.94140625 58.53515625 137.87890625 C52.9546354 137.7736134 49.83650063 136.13114224 45.53515625 132.87890625 C48.53515625 132.87890625 48.53515625 132.87890625 51.53515625 133.87890625 C49.89168927 132.54265724 48.24531939 131.20997774 46.59765625 129.87890625 C45.22287109 128.76515625 45.22287109 128.76515625 43.8203125 127.62890625 C41.88254563 125.77757224 41.88254563 125.77757224 40.53515625 125.87890625 C42.02015625 127.85890625 42.02015625 127.85890625 43.53515625 129.87890625 C39.77921467 128.34744032 37.64235606 126.07941771 34.97265625 123.06640625 C34.20824219 122.21433594 33.44382812 121.36226563 32.65625 120.484375 C30.53515625 117.87890625 30.53515625 117.87890625 28.8828125 115.1171875 C27.73239846 112.7543703 27.73239846 112.7543703 25.53515625 111.87890625 C25.98890625 113.11640625 26.44265625 114.35390625 26.91015625 115.62890625 C30.66570132 126.94893784 32.76695219 138.83400371 27.53515625 149.87890625 C24.53515625 151.87890625 24.53515625 151.87890625 21.22265625 151.81640625 C13.39394404 149.82605569 10.31645118 144.43568331 6.24609375 137.890625 C4.19865654 134.28657457 2.35238711 130.603115 0.53515625 126.87890625 C0.31899658 127.47316406 0.10283691 128.06742188 -0.11987305 128.6796875 C-1.1213577 131.41628089 -2.13673641 134.14752421 -3.15234375 136.87890625 C-3.49201172 137.81347656 -3.83167969 138.74804688 -4.18164062 139.7109375 C-6.9697186 147.16318329 -10.18937644 154.68541606 -16.46484375 159.87890625 C-17.12484375 159.87890625 -17.78484375 159.87890625 -18.46484375 159.87890625 C-18.60732544 158.36876953 -18.60732544 158.36876953 -18.75268555 156.828125 C-19.11764529 153.00925342 -19.50535509 149.19294763 -19.89916992 145.37695312 C-20.06498887 143.74083021 -20.22503971 142.10411001 -20.37866211 140.46679688 C-21.88096118 124.53361851 -25.81800467 110.73286208 -32.46484375 96.12890625 C-32.92906738 95.08887451 -33.39329102 94.04884277 -33.87158203 92.97729492 C-36.49120905 87.13881096 -39.1782659 81.3330064 -41.89453125 75.5390625 C-42.18193176 74.92483429 -42.46933228 74.31060608 -42.76544189 73.67776489 C-44.15393564 70.71215681 -45.55010527 67.75099703 -46.9609375 64.79589844 C-59.16641265 38.92426784 -59.16641265 38.92426784 -57.46484375 25.87890625 C-53.02351886 13.62084955 -44.00644668 6.39586342 -32.75390625 0.4453125 C-22.62959617 -4.1459444 -9.96053242 -5.8366392 0 0 Z " fill="#E3777A" transform="translate(304.46484375,26.12109375)"/>
<path d="M0 0 C2.31 0 4.62 0 7 0 C7 4.59643258 5.54171103 6.81221605 3.125 10.5 C0.91498958 13.94386782 -1.16504411 17.33008821 -3 21 C1.62 21 6.24 21 11 21 C11.66 19.02 12.32 17.04 13 15 C14.69140625 12.26171875 14.69140625 12.26171875 16.5625 9.6875 C17.18253906 8.82511719 17.80257812 7.96273437 18.44140625 7.07421875 C20 5 20 5 21 4 C23.33297433 3.95907063 25.66705225 3.95758277 28 4 C27.37695259 8.07453229 25.23467379 10.89539701 22.9375 14.25 C22.20402344 15.32765625 21.47054687 16.4053125 20.71484375 17.515625 C20.14894531 18.33546875 19.58304688 19.1553125 19 20 C21.64 20.33 24.28 20.66 27 21 C26.67 21.99 26.34 22.98 26 24 C25.35571045 23.94239502 24.7114209 23.88479004 24.04760742 23.82543945 C21.06221831 23.79744537 18.83080231 24.02052882 16 25 C12.96231941 28.31418249 11.2154754 32.14198007 9.3125 36.1875 C8.76505127 37.27417969 8.21760254 38.36085937 7.65356445 39.48046875 C6.06952553 42.63867719 4.53329564 45.81693622 3 49 C2.21071654 50.57152521 1.41710925 52.14089427 0.6171875 53.70703125 C-0.95505326 56.78898693 -2.49225813 59.8858277 -4 63 C-3.37351562 62.50628906 -2.74703125 62.01257813 -2.1015625 61.50390625 C-0.87566406 60.54291016 -0.87566406 60.54291016 0.375 59.5625 C1.59316406 58.60537109 1.59316406 58.60537109 2.8359375 57.62890625 C6.38421181 54.95809328 8.56380168 54.7227376 13 55 C15 57 15 57 15.1953125 60.4765625 C15.18201493 61.85950968 15.15816232 63.24238654 15.125 64.625 C15.11597656 65.33140625 15.10695313 66.0378125 15.09765625 66.765625 C15.07407603 68.51056098 15.03820461 70.25532295 15 72 C25.70435184 66.533948 35.58397563 60.62078837 43 51 C42.34 50.01 41.68 49.02 41 48 C41.54054054 43.45945946 41.54054054 43.45945946 43 42 C45.9375 41.8125 45.9375 41.8125 49 42 C51 44 51 44 51.3125 46.375 C51.77015313 49.23248603 51.77015313 49.23248603 54.5 50.875 C57 53 57 53 58.125 56.0625 C57.94399005 61.76431334 55.51439529 65.97120942 53 71 C52.67 71.99 52.34 72.98 52 74 C62.26688197 69.21834304 71.12425627 64.09470726 80 57 C83 55 83 55 86 55 C85.34918914 60.26565149 81.38132703 62.44133308 77.453125 65.546875 C68.94005348 71.79380499 56.9676545 80.24632437 46 79 C43.73033803 75.59550705 43.85622566 74.06505634 44.44140625 70.11328125 C45.02548498 67.90358478 45.84279224 66.36038448 47.0625 64.4375 C49.23167765 60.58895901 49.35444703 58.34197616 49 54 C48.53851563 54.4125 48.07703125 54.825 47.6015625 55.25 C45.41631299 57.18476636 43.20988775 59.09343018 41 61 C40.25234375 61.66 39.5046875 62.32 38.734375 63 C31.63747952 69.0159114 22.69485341 75.5317695 13.19921875 76.3125 C10 76 10 76 8 74 C7.8046875 70.7421875 7.8046875 70.7421875 7.875 66.875 C7.89304687 65.59367187 7.91109375 64.31234375 7.9296875 62.9921875 C7.95289063 62.00476563 7.97609375 61.01734375 8 60 C-1.55308671 65.48207692 -7.51966285 74.32912635 -14 83 C-15.65 82.67 -17.3 82.34 -19 82 C-18.48486578 76.68405362 -17.11544579 72.48301909 -14.71875 67.6953125 C-14.2239917 66.67894463 -14.2239917 66.67894463 -13.71923828 65.64204407 C-12.6558782 63.46477005 -11.57845765 61.2948297 -10.5 59.125 C-9.76832684 57.63576979 -9.03720803 56.1462671 -8.30664062 54.65649414 C-3.39427844 44.67080644 1.6392381 34.75360845 7 25 C2.46586514 24.70522414 -1.59937115 24.79994701 -6 26 C-9.25982641 29.16274814 -10.72309991 32.9038846 -12.4375 37.0625 C-13.21891357 38.78339844 -13.21891357 38.78339844 -14.01611328 40.5390625 C-15.14265399 43.02272169 -16.23428947 45.51801829 -17.30126953 48.02783203 C-19.03968265 52.11569155 -20.85858932 56.16507769 -22.68359375 60.21484375 C-27.80269441 71.62928726 -32.77305687 83.11628777 -37.375 94.75 C-37.65520996 95.45189453 -37.93541992 96.15378906 -38.22412109 96.87695312 C-39.49559954 100.19004341 -40 102.38314324 -40 106 C-44.875 105.125 -44.875 105.125 -46 104 C-45.71616717 96.28132376 -43.3443078 90.20180016 -40.25 83.1875 C-39.76990479 82.07544189 -39.28980957 80.96338379 -38.79516602 79.81762695 C-33.51253242 67.68084178 -27.90470857 55.69037582 -22.24584961 43.7253418 C-21.08091109 41.17699599 -20.01596085 38.61081424 -19 36 C-19.34667725 36.43231934 -19.69335449 36.86463867 -20.05053711 37.31005859 C-47.05075881 70.92084871 -47.05075881 70.92084871 -57.04296875 72.27734375 C-60.04902776 72.41423168 -62.37794225 72.36934679 -65 70.8125 C-66.29879656 68.45843123 -66.06941649 66.65084213 -66 64 C-66.79921875 64.49628906 -67.5984375 64.99257812 -68.421875 65.50390625 C-70.06929687 66.52291016 -70.06929687 66.52291016 -71.75 67.5625 C-72.33547607 67.9325415 -72.92095215 68.30258301 -73.52416992 68.68383789 C-76.39421397 70.48026858 -79.1678443 72.07697062 -82.25390625 73.4921875 C-91.83622796 78.02023224 -94.25397893 84.5259075 -98.06884766 93.83837891 C-105.0472272 110.03831926 -116.62914926 128.57174959 -132.25 137.25 C-137.90413541 138.79203693 -143.09193837 138.95403082 -148.375 136.3125 C-151.91122092 133.19725776 -154.64573253 130.75523427 -155.6015625 126.01953125 C-155.66219955 117.72236214 -154.16937145 112.51086382 -149 106 C-148.51660156 105.38769531 -148.03320312 104.77539062 -147.53515625 104.14453125 C-140.38280563 96.19140855 -130.64173779 91.09425919 -121.00390625 86.81640625 C-120.38141495 86.53800903 -119.75892365 86.25961182 -119.11756897 85.97277832 C-115.95959175 84.56562584 -112.7922464 83.19352605 -109.59887695 81.86865234 C-101.2052862 78.28050649 -101.2052862 78.28050649 -96.40478516 70.91430664 C-95.8620812 68.67386138 -95.8620812 68.67386138 -96 65 C-97.546875 65.99 -97.546875 65.99 -99.125 67 C-102.55707719 68.95225443 -105.00160287 69.63610863 -109 69 C-110.875 67.75 -110.875 67.75 -112 66 C-112 64.68 -112 63.36 -112 62 C-115.96 62 -119.92 62 -124 62 C-124.66 63.32 -125.32 64.64 -126 66 C-129.88301853 69.39764121 -132.28766213 71.14852536 -137.4375 71.25 C-138.61119141 71.28867187 -138.61119141 71.28867187 -139.80859375 71.328125 C-142 71 -142 71 -143.75390625 69.71484375 C-145.49261928 67.32206939 -145.53140509 65.08763462 -145.4140625 62.19140625 C-144.39987029 56.8238418 -141.22216375 53.05920859 -137.1875 49.5625 C-133.09059315 47.55421233 -130.58700534 46.92601604 -126 47 C-123.5 49.0625 -123.5 49.0625 -122 52 C-121.75 55.3125 -121.75 55.3125 -122 58 C-115.53214839 57.74435369 -111.20686652 57.19089256 -106 53 C-102.3187559 50.54583727 -99.27738037 50.40615846 -95 51 C-92.5 52.5 -92.5 52.5 -91 54 C-90.67 53.01 -90.34 52.02 -90 51 C-88.02 51 -86.04 51 -84 51 C-83.02187127 54.05628064 -82.99164317 55.85277447 -83.99609375 58.890625 C-84.33930664 59.95410156 -84.33930664 59.95410156 -84.68945312 61.0390625 C-84.93630859 61.76867187 -85.18316406 62.49828125 -85.4375 63.25 C-85.68048828 63.99507812 -85.92347656 64.74015625 -86.17382812 65.5078125 C-86.77332981 67.34158235 -87.38544487 69.17122004 -88 71 C-75.83096409 64.47896741 -75.83096409 64.47896741 -65 56 C-64.34 56 -63.68 56 -63 56 C-62.690625 55.1646875 -62.690625 55.1646875 -62.375 54.3125 C-60.10148987 50.48886933 -57.24701683 47.67410505 -52.96875 46.390625 C-50.01688429 45.92801918 -47.4613408 45.88170749 -44.5625 46.625 C-43 48 -43 48 -42 50.375 C-42 53 -42 53 -43.5 55.1875 C-47.91241746 58.38650266 -52.60994005 59.3266703 -58 59 C-58.33 61.97 -58.66 64.94 -59 68 C-52.37325579 66.75748546 -48.74531218 63.65210069 -44 59 C-43.47929932 58.50411377 -42.95859863 58.00822754 -42.42211914 57.49731445 C-37.9557499 53.16709614 -34.15393539 48.54315104 -30.4375 43.5625 C-29.89931641 42.85029297 -29.36113281 42.13808594 -28.80664062 41.40429688 C-27.1986236 39.27381944 -25.59847778 37.13764107 -24 35 C-22.86604276 33.48816322 -21.73193513 31.97643922 -20.59765625 30.46484375 C-19.74042969 29.32144531 -18.88320313 28.17804688 -18 27 C-21.96 27 -25.92 27 -30 27 C-28 22 -28 22 -26 21 C-25.13632812 21.10441406 -24.27265625 21.20882812 -23.3828125 21.31640625 C-19.32626556 21.62283606 -16.83516527 21.4578598 -13 20 C-7.45126377 14.4236886 -3.49896807 6.99793615 0 0 Z " fill="#5C5C5E" transform="translate(430,185)"/>
<path d="M0 0 C2.31 0 4.62 0 7 0 C7 4.59643258 5.54171103 6.81221605 3.125 10.5 C0.91498958 13.94386782 -1.16504411 17.33008821 -3 21 C1.62 21 6.24 21 11 21 C11.66 19.02 12.32 17.04 13 15 C14.69140625 12.26171875 14.69140625 12.26171875 16.5625 9.6875 C17.18253906 8.82511719 17.80257812 7.96273437 18.44140625 7.07421875 C20 5 20 5 21 4 C23.33297433 3.95907063 25.66705225 3.95758277 28 4 C27.37695259 8.07453229 25.23467379 10.89539701 22.9375 14.25 C21.83728516 15.86648437 21.83728516 15.86648437 20.71484375 17.515625 C20.14894531 18.33546875 19.58304687 19.1553125 19 20 C21.64 20.33 24.28 20.66 27 21 C26.505 22.485 26.505 22.485 26 24 C25.35571045 23.94239502 24.7114209 23.88479004 24.04760742 23.82543945 C21.06221831 23.79744537 18.83080231 24.02052882 16 25 C12.96231941 28.31418249 11.2154754 32.14198007 9.3125 36.1875 C8.76505127 37.27417969 8.21760254 38.36085937 7.65356445 39.48046875 C6.06952553 42.63867719 4.53329564 45.81693622 3 49 C2.21071654 50.57152521 1.41710925 52.14089427 0.6171875 53.70703125 C-0.95505326 56.78898693 -2.49225813 59.8858277 -4 63 C-3.06027344 62.25943359 -3.06027344 62.25943359 -2.1015625 61.50390625 C-1.28429687 60.86324219 -0.46703125 60.22257812 0.375 59.5625 C1.18710937 58.92441406 1.99921875 58.28632813 2.8359375 57.62890625 C6.38421181 54.95809328 8.56380168 54.7227376 13 55 C15 57 15 57 15.1953125 60.4765625 C15.18201493 61.85950968 15.15816232 63.24238654 15.125 64.625 C15.11597656 65.33140625 15.10695313 66.0378125 15.09765625 66.765625 C15.07407603 68.51056098 15.03820461 70.25532295 15 72 C25.70435184 66.533948 35.58397563 60.62078837 43 51 C42.34 50.01 41.68 49.02 41 48 C41.54054054 43.45945946 41.54054054 43.45945946 43 42 C45.9375 41.8125 45.9375 41.8125 49 42 C51 44 51 44 51.3125 46.375 C51.77015313 49.23248603 51.77015313 49.23248603 54.5 50.875 C57 53 57 53 58.125 56.0625 C57.94399005 61.76431334 55.51439529 65.97120942 53 71 C52.505 72.485 52.505 72.485 52 74 C62.26688197 69.21834304 71.12425627 64.09470726 80 57 C83 55 83 55 86 55 C85.34918914 60.26565149 81.38132703 62.44133308 77.453125 65.546875 C68.94005348 71.79380499 56.9676545 80.24632437 46 79 C43.73033803 75.59550705 43.85622566 74.06505634 44.44140625 70.11328125 C45.02548498 67.90358478 45.84279224 66.36038448 47.0625 64.4375 C49.23167765 60.58895901 49.35444703 58.34197616 49 54 C48.53851563 54.4125 48.07703125 54.825 47.6015625 55.25 C45.41631299 57.18476636 43.20988775 59.09343018 41 61 C40.25234375 61.66 39.5046875 62.32 38.734375 63 C31.63747952 69.0159114 22.69485341 75.5317695 13.19921875 76.3125 C10 76 10 76 8 74 C7.8046875 70.7421875 7.8046875 70.7421875 7.875 66.875 C7.89304687 65.59367187 7.91109375 64.31234375 7.9296875 62.9921875 C7.95289063 62.00476563 7.97609375 61.01734375 8 60 C-1.55308671 65.48207692 -7.51966285 74.32912635 -14 83 C-15.65 82.67 -17.3 82.34 -19 82 C-18.48486578 76.68405362 -17.11544579 72.48301909 -14.71875 67.6953125 C-14.38891113 67.01773392 -14.05907227 66.34015533 -13.71923828 65.64204407 C-12.6558782 63.46477005 -11.57845765 61.2948297 -10.5 59.125 C-9.76832684 57.63576979 -9.03720803 56.1462671 -8.30664062 54.65649414 C-3.39427844 44.67080644 1.6392381 34.75360845 7 25 C2.46586514 24.70522414 -1.59937115 24.79994701 -6 26 C-9.25982641 29.16274814 -10.72309991 32.9038846 -12.4375 37.0625 C-12.95844238 38.20976562 -13.47938477 39.35703125 -14.01611328 40.5390625 C-15.14265399 43.02272169 -16.23428947 45.51801829 -17.30126953 48.02783203 C-19.03968265 52.11569155 -20.85858932 56.16507769 -22.68359375 60.21484375 C-27.80269441 71.62928726 -32.77305687 83.11628777 -37.375 94.75 C-37.65520996 95.45189453 -37.93541992 96.15378906 -38.22412109 96.87695312 C-39.49559954 100.19004341 -40 102.38314324 -40 106 C-44.875 105.125 -44.875 105.125 -46 104 C-45.71616717 96.28132376 -43.3443078 90.20180016 -40.25 83.1875 C-39.52985718 81.51941284 -39.52985718 81.51941284 -38.79516602 79.81762695 C-33.51253242 67.68084178 -27.90470857 55.69037582 -22.24584961 43.7253418 C-21.08091109 41.17699599 -20.01596085 38.61081424 -19 36 C-19.34667725 36.43231934 -19.69335449 36.86463867 -20.05053711 37.31005859 C-45.10456307 68.49815836 -45.10456307 68.49815836 -54 71 C-52.8408785 66.2186238 -50.02223428 64.01608641 -46.36328125 61.0390625 C-40.27534574 55.78633136 -35.2381912 49.99623694 -30.4375 43.5625 C-29.89931641 42.85029297 -29.36113281 42.13808594 -28.80664062 41.40429688 C-27.1986236 39.27381944 -25.59847778 37.13764107 -24 35 C-22.86604276 33.48816322 -21.73193513 31.97643922 -20.59765625 30.46484375 C-19.74042969 29.32144531 -18.88320313 28.17804688 -18 27 C-21.96 27 -25.92 27 -30 27 C-28 22 -28 22 -26 21 C-25.13632812 21.10441406 -24.27265625 21.20882812 -23.3828125 21.31640625 C-19.32626556 21.62283606 -16.83516527 21.4578598 -13 20 C-7.45126377 14.4236886 -3.49896807 6.99793615 0 0 Z " fill="#5C5C5E" transform="translate(430,185)"/>
<path d="M0 0 C2 2 2 2 2.5 4.375 C2 7 2 7 -0.4375 9.1875 C-4.57609933 11.29310317 -8.45002762 12.23156022 -13 13 C-13.33 15.31 -13.66 17.62 -14 20 C-2.54154827 18.50370733 7.28053228 15.92120659 16 8 C16.66 7.13375 17.32 6.2675 18 5.375 C21.3276365 1.42343166 25.67283932 -0.62976989 30.75 -1.4375 C33.4779049 -0.90707405 34.94095033 0.16973362 37 2 C36.63716814 7.44247788 36.63716814 7.44247788 34 9.75 C30.08840031 11.3798332 26.15662537 12.23025456 22 13 C21.67 14.98 21.34 16.96 21 19 C31.00960273 19.76996944 40.0362777 16.32209002 48.17578125 10.59375 C49.96389821 9.03154075 51.007818 7.66657212 52.1875 5.625 C52.785625 4.75875 53.38375 3.8925 54 3 C57.25 2.625 57.25 2.625 60 3 C59.53698508 8.49724981 57.49934581 11.79400916 54.4375 16.1875 C51.08513742 20.66858959 51.08513742 20.66858959 50 26 C50.51046875 25.39414062 51.0209375 24.78828125 51.546875 24.1640625 C68.3381452 4.81242132 68.3381452 4.81242132 77.5625 3.6875 C80 4 80 4 81.58203125 5.109375 C83.60512186 7.80682914 83.71671253 10.24052465 84.125 13.5625 C84.56875446 17.92966167 84.56875446 17.92966167 86 22 C90.84900399 21.52640923 93.41845844 20.31888856 97.125 17.1875 C98.36636719 16.15689453 98.36636719 16.15689453 99.6328125 15.10546875 C104.45518594 11.0456461 104.45518594 11.0456461 106.9375 5.4375 C108 2 108 2 110.25 0 C113.58446283 -1.21253194 115.60205485 -0.86924178 119 0 C119.34789916 4.1747899 118.60774762 5.79678245 116 9 C116.5053125 9.55429688 117.010625 10.10859375 117.53125 10.6796875 C118.50578125 11.76636719 118.50578125 11.76636719 119.5 12.875 C120.47453125 13.95394531 120.47453125 13.95394531 121.46875 15.0546875 C123 17 123 17 123 19 C124.7541123 17.92333797 126.50312587 16.83836661 128.25 15.75 C129.22453125 15.14671875 130.1990625 14.5434375 131.203125 13.921875 C134.0338025 12.11144846 134.0338025 12.11144846 136.171875 9.765625 C138 8 138 8 141 8 C140.69425793 11.30547564 140.25449224 12.73400529 137.92578125 15.16796875 C137.06339844 15.83441406 136.20101562 16.50085938 135.3125 17.1875 C134.03826172 18.19876953 134.03826172 18.19876953 132.73828125 19.23046875 C129.88533059 21.07410163 127.25485829 22.07072128 124 23 C124.00902344 23.556875 124.01804688 24.11375 124.02734375 24.6875 C123.79111306 30.76787252 122.05407118 33.9142362 117.984375 38.37109375 C112.63188371 42.76477262 106.61290164 42.62554475 100 42 C96.875 40.875 96.875 40.875 95 39 C93.9375 36.0625 93.9375 36.0625 94 33 C97.18917846 28.76164011 101.29930676 27.44201409 106.125 25.75 C106.85332031 25.481875 107.58164063 25.21375 108.33203125 24.9375 C113.67992666 23 113.67992666 23 116 23 C115.38125 21.3603125 115.38125 21.3603125 114.75 19.6875 C114.51796875 19.07261719 114.2859375 18.45773438 114.046875 17.82421875 C112.74321734 15.55254664 111.15482279 14.44693679 109 13 C108.38253906 13.59167969 107.76507813 14.18335938 107.12890625 14.79296875 C92.97389886 28 92.97389886 28 83 28 C80.29710338 26.68507732 79.30143028 25.5235368 77.8125 22.9375 C76.63484677 18.67983062 76.32432173 14.39541291 76 10 C71.35243179 11.4491495 68.32261967 14.13833249 64.875 17.4375 C64.31022949 17.96375977 63.74545898 18.49001953 63.16357422 19.03222656 C60.33527629 21.68846375 57.59481367 24.39612277 54.953125 27.23828125 C54.47504395 27.74496338 53.99696289 28.25164551 53.50439453 28.77368164 C52.1974285 30.17248228 50.91434449 31.59348605 49.6328125 33.015625 C46.24005594 35.57277683 44.15087966 35.4600975 40 35 C39 34 39 34 38.6875 31.4375 C39.09188731 26.98923964 40.81804137 23.83790938 43 20 C42.21238281 20.28875 41.42476562 20.5775 40.61328125 20.875 C32.79118091 23.54099396 25.28544906 25.29350892 17 24 C14.31879533 22.51649081 13.24862307 21.72515061 12.25 18.8125 C12.1675 18.214375 12.085 17.61625 12 17 C11.35933594 17.33773437 10.71867187 17.67546875 10.05859375 18.0234375 C0.94495951 22.72286737 -7.58719586 25.60615802 -18 24 C-20.80405382 21.7994677 -21.84422785 20.76155272 -22.5625 17.25 C-21.35168853 10.2542004 -16.97267503 5.54970981 -11.6484375 1.12890625 C-7.68834948 -1.58309715 -4.50510986 -0.90102197 0 0 Z " fill="#5D5D5F" transform="translate(74,232)"/>
<path d="M0 0 C1.2065625 0.0309375 1.2065625 0.0309375 2.4375 0.0625 C2.9325 2.0425 2.9325 2.0425 3.4375 4.0625 C6.29182471 3.75139371 9.14595525 3.43865574 12 3.125 C12.79986328 3.03798828 13.59972656 2.95097656 14.42382812 2.86132812 C18.04491893 2.46226914 21.64519679 2.03185621 25.25 1.5 C29.04935363 0.97852009 32.60936387 0.99533972 36.4375 1.0625 C37.4275 3.0425 37.4275 3.0425 38.4375 5.0625 C32.87328391 7.38648556 28.53364686 8.22242907 22.48828125 8.09765625 C8.76172987 7.65844181 8.76172987 7.65844181 -3.12451172 13.38867188 C-7.6103606 19.56260825 -10.38344939 26.51061913 -13.13867188 33.58740234 C-15.30381489 38.87180661 -18.10559137 43.73837945 -20.9375 48.6875 C-23.7259858 53.71596174 -26.45327611 58.74933276 -28.91015625 63.94921875 C-29.2673877 64.70058105 -29.62461914 65.45194336 -29.99267578 66.22607422 C-30.64222501 67.61175825 -31.27601084 69.00499513 -31.89013672 70.40673828 C-33.31389904 73.45324852 -33.99383567 74.85290419 -37.22265625 76.04296875 C-37.99480469 76.04941406 -38.76695313 76.05585938 -39.5625 76.0625 C-40.0575 75.5675 -40.0575 75.5675 -40.5625 75.0625 C-40.17794876 69.69227561 -38.61395676 65.50819165 -36.125 60.8125 C-35.77880615 60.13864258 -35.4326123 59.46478516 -35.07592773 58.77050781 C-33.03151716 54.80881428 -30.93396684 50.87516062 -28.84375 46.9375 C-28.39185303 46.08446289 -27.93995605 45.23142578 -27.47436523 44.35253906 C-26.58851515 42.68501884 -25.69755818 41.02019957 -24.80102539 39.35839844 C-24.39360107 38.5955957 -23.98617676 37.83279297 -23.56640625 37.046875 C-23.20361572 36.37366211 -22.8408252 35.70044922 -22.46704102 35.00683594 C-20.80522441 31.43471518 -20.36462062 28.04019898 -20.25 24.125 C-20.21261719 23.29097656 -20.17523438 22.45695312 -20.13671875 21.59765625 C-20.73258494 18.04979242 -21.99162122 16.56662614 -24.5625 14.0625 C-28.03857592 13.37346443 -28.03857592 13.37346443 -31.953125 13.57421875 C-32.65773865 13.58129349 -33.36235229 13.58836823 -34.08831787 13.59565735 C-36.33080891 13.62356643 -38.57076871 13.68628713 -40.8125 13.75 C-42.33590134 13.77508789 -43.85934197 13.79790022 -45.3828125 13.81835938 C-49.11019249 13.87337787 -52.83609906 13.95962196 -56.5625 14.0625 C-56.2325 12.7425 -55.9025 11.4225 -55.5625 10.0625 C-47.63099757 8.11487286 -39.69844837 7.51098769 -31.57568359 7.05712891 C-29.43407375 6.93730831 -27.29325684 6.80741682 -25.15234375 6.67578125 C-18.61758559 6.28361608 -12.11027464 5.94344955 -5.5625 6.0625 C-5.253125 5.258125 -4.94375 4.45375 -4.625 3.625 C-3.15384615 0.07692308 -3.15384615 0.07692308 0 0 Z " fill="#5C5C5E" transform="translate(57.5625,200.9375)"/>
<path d="M0 0 C3.1875 -0.3125 3.1875 -0.3125 6 0 C6.495 1.485 6.495 1.485 7 3 C6.67 3.66 6.34 4.32 6 5 C7.93552734 4.69255859 7.93552734 4.69255859 9.91015625 4.37890625 C11.62759977 4.10674307 13.34504793 3.83460921 15.0625 3.5625 C15.91005859 3.42779297 16.75761719 3.29308594 17.63085938 3.15429688 C25.15087919 1.96386903 32.37442229 0.86621793 40 1 C40.495 2.98 40.495 2.98 41 5 C37.4954873 7.3363418 35.52062294 7.42641267 31.35546875 7.78125 C30.38435905 7.86977234 30.38435905 7.86977234 29.39363098 7.96008301 C27.32554487 8.14814034 25.25674731 8.32521541 23.1875 8.5 C21.12902042 8.67522056 19.07096581 8.85310402 17.01350403 9.03991699 C15.13877618 9.21005514 13.2631273 9.36995272 11.38745117 9.52929688 C5.36349661 10.25311465 5.36349661 10.25311465 0.59130859 13.62207031 C0.28016113 14.26756836 -0.03098633 14.91306641 -0.3515625 15.578125 C-0.72152344 16.31530762 -1.09148437 17.05249023 -1.47265625 17.81201172 C-2.04306641 19.01881592 -2.04306641 19.01881592 -2.625 20.25 C-3.48990119 21.98811873 -4.3571861 23.72505287 -5.2265625 25.4609375 C-5.67676758 26.37069336 -6.12697266 27.28044922 -6.59082031 28.21777344 C-8.93233572 32.84076539 -11.47957076 37.34792133 -14 41.875 C-18.63062421 50.25905543 -22.8766115 58.7748236 -26.87890625 67.47607422 C-27.26175781 68.30381348 -27.64460938 69.13155273 -28.0390625 69.984375 C-28.37115723 70.71366211 -28.70325195 71.44294922 -29.04541016 72.19433594 C-30 74 -30 74 -32 76 C-34.625 76.125 -34.625 76.125 -37 76 C-37.9224488 73.49121332 -38.09171756 72.27946217 -37.24658203 69.7043457 C-36.83778809 68.86991943 -36.42899414 68.03549316 -36.0078125 67.17578125 C-35.5538208 66.23790771 -35.0998291 65.30003418 -34.63208008 64.33374023 C-34.13474365 63.33673096 -33.63740723 62.33972168 -33.125 61.3125 C-32.37802856 59.76961304 -32.37802856 59.76961304 -31.6159668 58.19555664 C-29.29665818 53.44656645 -26.91575527 48.76653222 -24.26171875 44.1953125 C-19.62810451 36.1915521 -16.99408163 30.38861706 -17.1953125 20.953125 C-18.28315744 16.96083968 -19.63312115 15.39789648 -23 13 C-25.92205254 12.78997747 -28.14932726 12.83176627 -31 13.1875 C-32.50881084 13.32880263 -34.01793603 13.46678529 -35.52734375 13.6015625 C-36.65052002 13.71032715 -36.65052002 13.71032715 -37.79638672 13.82128906 C-42.85411928 14.23146635 -47.93033656 14.07935125 -53 14 C-53 12.68 -53 11.36 -53 10 C-45.40723 8.35009428 -37.99513176 7.78375558 -30.25 7.5 C-23.42332279 7.22851416 -16.6113606 6.94227072 -9.8125 6.25 C-8.56082031 6.13140625 -7.30914062 6.0128125 -6.01953125 5.890625 C-2.8000668 5.28938871 -2.8000668 5.28938871 -1.2734375 2.44140625 C-0.85320312 1.63574219 -0.43296875 0.83007812 0 0 Z " fill="#5B5B5D" transform="translate(287,201)"/>
<path d="M0 0 C0.495 0.99 0.495 0.99 1 2 C0.1706543 4.11621094 0.1706543 4.11621094 -1.17578125 6.734375 C-1.66916992 7.694646 -2.16255859 8.65491699 -2.67089844 9.64428711 C-3.21262695 10.66917236 -3.75435547 11.69405762 -4.3125 12.75 C-5.13476074 14.3114978 -5.13476074 14.3114978 -5.97363281 15.90454102 C-21.96951289 45.74514707 -21.96951289 45.74514707 -35 50 C-39.55210155 50.7015498 -42.76305765 50.90507977 -46.5625 48.125 C-48.6522604 43.58204262 -48.91636424 39.91113957 -48 35 C-42.97681279 22.16732643 -31.11362361 14.94434521 -19.3125 9.125 C-17.67958008 8.29355469 -17.67958008 8.29355469 -16.01367188 7.4453125 C-10.74516044 4.78063073 -5.46465249 2.23589501 0 0 Z " fill="#FCFCFC" transform="translate(327,268)"/>
<path d="M0 0 C0.66 0.33 1.32 0.66 2 1 C1.38998926 4.40080987 0.13131396 6.43011745 -2 9.125 C-6.92612492 15.40107262 -6.77163337 21.13817937 -6 29 C-3.14909235 47.09954118 6.14411175 64.14123599 14.0871582 80.41943359 C18.64267792 89.76882818 22.46363326 98.88623762 25 109 C25.18546387 109.67933594 25.37092773 110.35867187 25.56201172 111.05859375 C27.59638742 119.47521936 27.21988417 128.02992604 27.125 136.625 C27.11494793 138.21744227 27.10582603 139.80989071 27.09765625 141.40234375 C27.07582408 145.26838365 27.04141784 149.13412236 27 153 C26.34 153 25.68 153 25 153 C24.85751831 151.48986328 24.85751831 151.48986328 24.7121582 149.94921875 C24.34719846 146.13034717 23.95948866 142.31404138 23.56567383 138.49804688 C23.39985488 136.86192396 23.23980404 135.22520376 23.08618164 133.58789062 C21.58388257 117.65471226 17.64683908 103.85395583 11 89.25 C10.53577637 88.20996826 10.07155273 87.16993652 9.59326172 86.09838867 C6.9736347 80.25990471 4.28657785 74.45410015 1.5703125 68.66015625 C1.28291199 68.04592804 0.99551147 67.43169983 0.69940186 66.79885864 C-0.68909189 63.83325056 -2.08526152 60.87209078 -3.49609375 57.91699219 C-15.7015689 32.04536159 -15.7015689 32.04536159 -14 19 C-11.13738796 11.09919076 -6.7156098 5.03670735 0 0 Z " fill="#FC9D9F" transform="translate(261,33)"/>
<path d="M0 0 C0.99 0.495 0.99 0.495 2 1 C1.29037109 1.804375 1.29037109 1.804375 0.56640625 2.625 C-13.85511206 19.71716985 -22.02908887 41.49246851 -30.99609375 61.75390625 C-36.57197547 74.28915197 -41.74899938 85.53753789 -52 95 C-52.45117188 95.5053125 -52.90234375 96.010625 -53.3671875 96.53125 C-57.2288423 100.75793685 -61.53961936 103.89286744 -66.3125 107 C-66.93568115 107.41024414 -67.5588623 107.82048828 -68.20092773 108.24316406 C-69.75955303 109.23015858 -71.3764074 110.12397598 -73 111 C-73.66 110.67 -74.32 110.34 -75 110 C-74.24976562 109.45472656 -73.49953125 108.90945312 -72.7265625 108.34765625 C-64.08924372 101.98388863 -55.58774018 95.56406223 -49 87 C-49.72445312 87.73605469 -50.44890625 88.47210938 -51.1953125 89.23046875 C-60.72496874 98.86551604 -60.72496874 98.86551604 -66 103 C-66.66 102.67 -67.32 102.34 -68 102 C-66.95199219 101.07767578 -66.95199219 101.07767578 -65.8828125 100.13671875 C-64.97273438 99.32847656 -64.06265625 98.52023438 -63.125 97.6875 C-62.22007813 96.88699219 -61.31515625 96.08648437 -60.3828125 95.26171875 C-57.86787689 93.04188943 -57.86787689 93.04188943 -56 90 C-55.34 90 -54.68 90 -54 90 C-53.76152344 89.46246094 -53.52304688 88.92492187 -53.27734375 88.37109375 C-51.98951768 85.98054199 -50.47119095 83.89872222 -48.82861328 81.74194336 C-37.55435727 66.7871406 -30.14977884 49.75032495 -23.41064453 32.38842773 C-19.03894692 21.34716759 -13.48218964 10.48218964 -5 2 C-4.01 2 -3.02 2 -2 2 C-1.34 1.34 -0.68 0.68 0 0 Z " fill="#24C3CE" transform="translate(188,38)"/>
<path d="M0 0 C0.33 0 0.66 0 1 0 C1.55684366 18.40154124 0.28503435 35.53952837 -3.53955078 53.53930664 C-8.0891386 75.28684618 -8.40369785 98.08714232 -5 120 C-4.66504975 122.33310177 -4.33124427 124.66636918 -4 127 C-7.54085534 124.63942977 -7.62402814 123.79988789 -8.625 119.8125 C-8.98464844 118.42998047 -8.98464844 118.42998047 -9.3515625 117.01953125 C-14.7691736 91.7917398 -10.50574299 63.88275107 -5 39 C-5.495 39.495 -5.495 39.495 -6 40 C-7.47375979 36.06337988 -6.54604545 32.90324643 -5.6875 28.875 C-4.24491671 21.86629231 -3.3464732 14.89355842 -2.73510742 7.76513672 C-2.20917611 2.20917611 -2.20917611 2.20917611 0 0 Z " fill="#1DC1CC" transform="translate(247,64)"/>
<path d="M0 0 C0.66 0.33 1.32 0.66 2 1 C1.39430886 4.3574731 0.1972631 6.30166781 -1.9375 8.9375 C-7.53790816 15.85888896 -7.74128279 22.33625745 -7 31 C-4.62123517 43.5290625 0.1355232 55.7812641 5.375 67.375 C7 71 7 71 7 73 C5.515 73.495 5.515 73.495 4 74 C2.21662076 70.07371412 0.43873729 66.14499667 -1.33447266 62.21411133 C-1.93622188 60.88207926 -2.53937092 59.55067851 -3.14404297 58.2199707 C-17.08791401 27.52264267 -17.08791401 27.52264267 -13.0234375 16.3046875 C-9.7460615 9.5689761 -6.02838406 4.52128804 0 0 Z " fill="#FBA8A9" transform="translate(261,33)"/>
<path d="M0 0 C5.25842274 4.29258999 9.62679122 8.8248985 14 14 C14.90628366 15.04537184 15.81394099 16.08955369 16.72265625 17.1328125 C21.7985641 22.97764583 26.75528478 28.88244839 31.5 35 C39.75183759 45.62565388 48.58085884 55.70148834 57.8203125 65.4765625 C59.68144193 67.63120338 60.91168078 69.39537085 62 72 C54.30491766 65.56125763 47.50994665 58.62666264 41 51 C40.16339844 50.02933594 39.32679688 49.05867188 38.46484375 48.05859375 C32.041427 40.56899278 25.94227164 32.87576567 20 25 C20.433125 25.61488281 20.86625 26.22976562 21.3125 26.86328125 C21.869375 27.67152344 22.42625 28.47976562 23 29.3125 C23.556875 30.11300781 24.11375 30.91351563 24.6875 31.73828125 C26 34 26 34 26 37 C19.77373792 29.69580624 14.08642178 22.09546962 8.51879883 14.28369141 C7.9905249 13.54296387 7.46225098 12.80223633 6.91796875 12.0390625 C6.4182959 11.3368457 5.91862305 10.63462891 5.40380859 9.91113281 C4.20264942 8.27588516 2.91556312 6.70435529 1.61328125 5.1484375 C0 3 0 3 0 0 Z " fill="#FDABAC" transform="translate(313,34)"/>
<path d="M0 0 C3.63264976 3.54118016 6.99405702 7.23285174 10.25 11.125 C10.73106201 11.69557129 11.21212402 12.26614258 11.70776367 12.85400391 C14.62467598 16.32341656 17.47893197 19.83701226 20.3125 23.375 C24.08306833 27.99326804 28.02565491 32.42749378 32.0625 36.8125 C32.62815674 37.43495605 33.19381348 38.05741211 33.77661133 38.69873047 C37.32183262 42.50472736 41.02154326 45.69148934 45.25585938 48.71435547 C47.77463031 50.57099709 49.84223649 52.73697974 52 55 C53.60145005 56.60687869 55.20583269 58.21083788 56.8125 59.8125 C58.20833333 61.20833333 59.60416667 62.60416667 61 64 C56.85000151 64 54.78335234 61.80929197 51.6875 59.3125 C51.07447021 58.82354248 50.46144043 58.33458496 49.82983398 57.83081055 C40.17763352 50.02368472 30.8309099 41.65920085 23 32 C22.01614488 30.81597407 21.03170932 29.63243034 20.046875 28.44921875 C14.56125571 21.81900701 9.21523912 15.11077592 4.1875 8.125 C3.54784302 7.24207275 3.54784302 7.24207275 2.89526367 6.34130859 C0 2.24995088 0 2.24995088 0 0 Z " fill="#FEF2F2" transform="translate(332,58)"/>
<path d="M0 0 C0.66 0 1.32 0 2 0 C1.9278125 1.27230469 1.855625 2.54460937 1.78125 3.85546875 C0.79679126 22.0775728 0.19159126 39.91958754 3 58 C3.33495025 60.33310177 3.66875573 62.66636918 4 65 C0.45914466 62.63942977 0.37597186 61.79988789 -0.625 57.8125 C-0.86476562 56.89082031 -1.10453125 55.96914062 -1.3515625 55.01953125 C-3.00936877 47.29974665 -3.15536085 39.86616972 -3.125 32 C-3.12306641 30.80205811 -3.12113281 29.60411621 -3.11914062 28.36987305 C-3.07775874 19.87566538 -2.79338462 11.45804678 -2 3 C-1.34 3 -0.68 3 0 3 C0 2.01 0 1.02 0 0 Z " fill="#76D8DD" transform="translate(239,126)"/>
<path d="M0 0 C0 3.44832896 -0.76155406 4.46793207 -2.5 7.375 C-7.73004212 17.67117978 -5.02445375 28.45193512 -1.66796875 38.99707031 C1.69794531 49.38476331 1.69794531 49.38476331 6.2421875 59.26953125 C7 61 7 61 6 64 C-11.76625501 28.53989975 -11.76625501 28.53989975 -9 12 C-6.86471642 7.16224814 -3.75340804 3.65196458 0 0 Z " fill="#FEF4F4" transform="translate(259,38)"/>
<path d="M0 0 C1.58357459 0.31127516 3.16684993 0.62407289 4.75 0.9375 C5.63171875 1.11152344 6.5134375 1.28554687 7.421875 1.46484375 C10 2 10 2 11.71289062 2.51367188 C14.87195555 3.18541156 17.94438904 3.22381444 21.171875 3.31640625 C21.8542926 3.33718735 22.53671021 3.35796844 23.23980713 3.37937927 C25.40977356 3.44452052 27.57985624 3.50359404 29.75 3.5625 C31.22527221 3.60571897 32.70053287 3.64933432 34.17578125 3.69335938 C37.78373166 3.80016518 41.39181133 3.90153153 45 4 C45.495 4.99 45.495 4.99 46 6 C33.36482641 9.55562674 18.34778705 9.60139757 6 5 C3.63158688 3.42105792 1.93254772 2.0245738 0 0 Z " fill="#EFB2B3" transform="translate(353,128)"/>
<path d="M0 0 C4.33874851 3.48986294 8.07070207 7.12773941 11.75 11.3125 C16.71920421 16.8689738 22.13629421 21.42446924 28 26 C28.89332031 26.73605469 29.78664063 27.47210938 30.70703125 28.23046875 C35.01117858 31.77316273 38.98223028 34.54686814 44 37 C46.42500998 38.9014844 48.72608457 40.92118382 51 43 C50.01 43.66 49.02 44.32 48 45 C46.96875 44.21625 45.9375 43.4325 44.875 42.625 C42.3032352 40.67261311 39.71957569 38.81586818 37.01953125 37.04296875 C23.18923868 27.88229456 9.9709524 15.28523515 0 2 C0 1.34 0 0.68 0 0 Z " fill="#FB9D9E" transform="translate(353,88)"/>
<path d="M0 0 C0.495 0.99 0.495 0.99 1 2 C-0.155 1.67 -1.31 1.34 -2.5 1 C-13.57606486 -1.37219657 -23.4664358 -1.38813851 -33.42578125 4.33203125 C-36.71087795 6.46061439 -39.90151004 8.6057123 -43 11 C-42.66937863 7.94568828 -42.33913842 6.36362763 -40.21484375 4.0859375 C-27.95692853 -5.1232681 -14.20064736 -7.55529587 0 0 Z " fill="#77D8DD" transform="translate(227,31)"/>
<path d="M0 0 C0.66 0.33 1.32 0.66 2 1 C0.58684299 3.23145946 -0.83037642 5.46015955 -2.25 7.6875 C-2.64574219 8.31333984 -3.04148438 8.93917969 -3.44921875 9.58398438 C-10.17737446 20.11740847 -18.61488082 27.15564739 -29 34 C-30.32451172 34.87398437 -30.32451172 34.87398437 -31.67578125 35.765625 C-32.44277344 36.17296875 -33.20976563 36.5803125 -34 37 C-34.66 36.67 -35.32 36.34 -36 36 C-35.24976562 35.45472656 -34.49953125 34.90945312 -33.7265625 34.34765625 C-20.28112378 24.44138213 -9.36270392 13.88753651 0 0 Z " fill="#20C1CB" transform="translate(149,112)"/>
<path d="M0 0 C7.11426656 5.80756454 14.64123905 12.40901246 17.81640625 21.28125 C19.21245087 24.48800596 21.03363891 27.01277467 23.125 29.8125 C23.84945313 30.78832031 24.57390625 31.76414062 25.3203125 32.76953125 C25.87460937 33.50558594 26.42890625 34.24164063 27 35 C26.67 35.66 26.34 36.32 26 37 C19.77373792 29.69580624 14.08642178 22.09546962 8.51879883 14.28369141 C7.9905249 13.54296387 7.46225098 12.80223633 6.91796875 12.0390625 C6.4182959 11.3368457 5.91862305 10.63462891 5.40380859 9.91113281 C4.20264942 8.27588516 2.91556312 6.70435529 1.61328125 5.1484375 C0 3 0 3 0 0 Z " fill="#FC9FA0" transform="translate(313,34)"/>
<path d="M0 0 C-1.35282169 4.42741644 -3.23298888 6.36309221 -7 9 C-9.95664519 10.4783226 -12.74229737 10.06032783 -16 10 C-16.66 8.68 -17.32 7.36 -18 6 C-12.14306501 2.41412144 -7.0350628 0 0 0 Z " fill="#F2F2F2" transform="translate(190,260)"/>
<path d="M0 0 C2.2403875 2.2403875 3.28333697 4.56531574 4.61425781 7.40942383 C8.91044899 16.56114121 13.65834068 24.00212549 22 30 C19.875 30.8125 19.875 30.8125 17 31 C10.77892546 27.21325898 7.63316287 21.14518731 4 15 C3.21302734 13.76056641 3.21302734 13.76056641 2.41015625 12.49609375 C-1.04425336 6.84081376 -1.04425336 6.84081376 -0.8125 2.4375 C-0.544375 1.633125 -0.27625 0.82875 0 0 Z " fill="#EFB6B7" transform="translate(305,146)"/>
<path d="M0 0 C0 3.61408603 -1.06263843 4.4708958 -3.50390625 6.97192383 C-4.01824219 7.47618896 -4.53257812 7.9804541 -5.0625 8.5 C-5.59617188 9.02682373 -6.12984375 9.55364746 -6.6796875 10.09643555 C-30.49693068 33 -30.49693068 33 -41 33 C-41 32.34 -41 31.68 -41 31 C-38.79784225 29.45640364 -36.60322696 28.02552438 -34.3125 26.625 C-30.85450963 24.48823973 -27.50631723 22.41432754 -24.35546875 19.8359375 C-22 18 -22 18 -19.59765625 17.1171875 C-15.86228785 15.51069823 -13.34716519 12.91747499 -10.4375 10.125 C-9.87353516 9.59519531 -9.30957031 9.06539062 -8.72851562 8.51953125 C-5.7685193 5.72917215 -2.85909962 2.89405193 0 0 Z " fill="#A9E6E9" transform="translate(140,123)"/>
<path d="M0 0 C1.65 1.65 3.3 3.3 5 5 C3.75406918 8.84162002 2.66608297 11.1145859 -1 13 C-3.75 12.6875 -3.75 12.6875 -6 12 C-5.59791618 6.37082652 -3.71069698 3.99613521 0 0 Z " fill="#F5F5F5" transform="translate(298,239)"/>
<path d="M0 0 C0.33 0.66 0.66 1.32 1 2 C-2.30019441 7.51282476 -5.66837536 11.94182447 -10.6328125 16.02734375 C-13.68049346 18.56707789 -16.58514438 21.24745809 -19.5 23.9375 C-20.55207464 24.90495737 -21.60415727 25.87240605 -22.65625 26.83984375 C-23.81640625 27.90912109 -23.81640625 27.90912109 -25 29 C-25.66 28.67 -26.32 28.34 -27 28 C-25.95199219 27.07767578 -25.95199219 27.07767578 -24.8828125 26.13671875 C-23.97273438 25.32847656 -23.06265625 24.52023438 -22.125 23.6875 C-21.22007813 22.88699219 -20.31515625 22.08648437 -19.3828125 21.26171875 C-16.86787689 19.04188943 -16.86787689 19.04188943 -15 16 C-14.34 16 -13.68 16 -13 16 C-12.73058594 15.42636719 -12.46117187 14.85273437 -12.18359375 14.26171875 C-10.97076395 11.9441331 -9.6140698 9.91679187 -8.0625 7.8125 C-7.55847656 7.11769531 -7.05445313 6.42289062 -6.53515625 5.70703125 C-5 4 -5 4 -2 3 C-1.34 2.01 -0.68 1.02 0 0 Z " fill="#42CBD5" transform="translate(147,112)"/>
<path d="M0 0 C2 2 2 2 2.22705078 5.34814453 C2.22673375 6.77640633 2.21541361 8.20469212 2.1953125 9.6328125 C2.1924826 10.38464813 2.18965271 11.13648376 2.18673706 11.91110229 C2.17552874 14.31589578 2.15042352 16.72031881 2.125 19.125 C2.11497102 20.75390088 2.10584503 22.38280758 2.09765625 24.01171875 C2.07558735 28.00795556 2.04105351 32.00391494 2 36 C1.34 36 0.68 36 0 36 C-2.15553622 24.14455076 -0.79242029 11.94290573 0 0 Z " fill="#FAC0C1" transform="translate(286,150)"/>
<path d="M0 0 C0.33 0 0.66 0 1 0 C1.53593429 28.19609856 1.53593429 28.19609856 -5 38 C-4.24319417 30.7812367 -3.21972926 23.63192097 -2.10546875 16.4609375 C-1.26603012 10.98338848 -0.57782288 5.51154132 0 0 Z " fill="#2FB3AA" transform="translate(245,66)"/>
<path d="M0 0 C0.66 0.66 1.32 1.32 2 2 C0.44716875 3.63424183 -1.1176881 5.25706248 -2.6875 6.875 C-3.55761719 7.77992188 -4.42773438 8.68484375 -5.32421875 9.6171875 C-7.90790008 11.91798401 -9.69679395 13.07510231 -13 14 C-15.8125 13.625 -15.8125 13.625 -18 13 C-18 12.01 -18 11.02 -18 10 C-16.700625 9.835 -15.40125 9.67 -14.0625 9.5 C-7.95844972 8.20167819 -4.26637483 4.33697678 0 0 Z " fill="#56C3BE" transform="translate(172,165)"/>
<path d="M0 0 C0.33 0 0.66 0 1 0 C1.12117187 0.68707031 1.24234375 1.37414062 1.3671875 2.08203125 C1.53476563 2.98308594 1.70234375 3.88414062 1.875 4.8125 C2.03742188 5.70582031 2.19984375 6.59914062 2.3671875 7.51953125 C2.91188449 10.22727846 2.91188449 10.22727846 5 13 C5 14.32 5 15.64 5 17 C6.65 17 8.3 17 10 17 C10 17.33 10 17.66 10 18 C6.65268016 18.3043018 4.66774393 18.43880316 1.8125 16.5625 C-0.71592394 12.98783168 -1.81934565 9.18595634 -3 5 C-2.34 5 -1.68 5 -1 5 C-0.67 3.35 -0.34 1.7 0 0 Z " fill="#11ACA6" transform="translate(149,161)"/>
<path d="M0 0 C3.3 0 6.6 0 10 0 C8.02 3.96 6.04 7.92 4 12 C3.67 12 3.34 12 3 12 C2 8 1 4 0 0 Z " fill="#EDEDED" transform="translate(271,212)"/>
<path d="M0 0 C0 0.33 0 0.66 0 1 C-0.90621094 1.15855469 -1.81242187 1.31710938 -2.74609375 1.48046875 C-13.72485212 3.58327855 -21.14668145 7.40710321 -30 14 C-27.41524096 7.81018229 -21.14994268 3.67662802 -15.125 1.0625 C-10.20674637 -0.57028056 -5.11656384 -0.2539471 0 0 Z " fill="#E6F8F8" transform="translate(214,28)"/>
<path d="M0 0 C3.3 0 6.6 0 10 0 C8.55049545 3.7910119 6.84827434 7.3874638 5 11 C0 3.5 0 3.5 0 0 Z " fill="#F2F2F2" transform="translate(38,212)"/>
<path d="M0 0 C3.81382782 1.5537817 6.21023246 4.08531749 9 7 C10.60146833 8.60686048 12.205817 10.21085362 13.8125 11.8125 C15.90625 13.90625 15.90625 13.90625 18 16 C13.61781923 16 11.17910723 13.41239852 7.875 10.8125 C7.22917969 10.32974609 6.58335937 9.84699219 5.91796875 9.34960938 C1.22143423 5.68198022 1.22143423 5.68198022 0.0703125 2.13671875 C0.04710937 1.43160156 0.02390625 0.72648437 0 0 Z " fill="#FDD9D9" transform="translate(375,106)"/>
<path d="M0 0 C2.19671736 2.19671736 2.41170173 3.01303303 3.03515625 5.95703125 C3.20466797 6.74013672 3.37417969 7.52324219 3.54882812 8.33007812 C3.71833984 9.14927734 3.88785156 9.96847656 4.0625 10.8125 C4.23587891 11.62009766 4.40925781 12.42769531 4.58789062 13.25976562 C5.42308343 17.16693198 6.22866193 21.07969413 7 25 C6.01 24.67 5.02 24.34 4 24 C0.66675616 16.53581294 0.37095222 8.04582584 0 0 Z " fill="#3DB6AA" transform="translate(186,152)"/>
<path d="M0 0 C0 0.99 0 1.98 0 3 C-1.42578125 4.38671875 -1.42578125 4.38671875 -3.3125 5.6875 C-3.92738281 6.12449219 -4.54226563 6.56148437 -5.17578125 7.01171875 C-7 8 -7 8 -10 8 C-7.95662621 2.18424383 -6.49689233 -0.52677505 0 0 Z " fill="#EFEFEF" transform="translate(335,241)"/>
<path d="M0 0 C0.66 0 1.32 0 2 0 C0.81139497 4.35821846 -0.23319217 7.35305396 -4 10 C-7.5625 10.4375 -7.5625 10.4375 -11 10 C-11.99 9.01 -12.98 8.02 -14 7 C-10.7 7 -7.4 7 -4 7 C-2.68 4.69 -1.36 2.38 0 0 Z " fill="#2C1B1B" transform="translate(283,63)"/>
<path d="M0 0 C0.6875 1.6875 0.6875 1.6875 1 4 C-1.26153846 8.63076923 -1.26153846 8.63076923 -4 10 C-5.875 10.1328125 -5.875 10.1328125 -8 10.125 C-9.051875 10.12886719 -9.051875 10.12886719 -10.125 10.1328125 C-12 10 -12 10 -14 9 C-14 8.34 -14 7.68 -14 7 C-10.7 7 -7.4 7 -4 7 C-2.68 4.69 -1.36 2.38 0 0 Z " fill="#2B1A1A" transform="translate(305,77)"/>
<path d="M0 0 C1.5 1.375 1.5 1.375 3 3 C3 3.66 3 4.32 3 5 C7.92127034 5.16682272 11.50343896 5.24828052 16 3 C15 6 15 6 13.3125 7.1875 C10.29419526 8.24798545 8.18412795 8.38989322 5 8 C2.125 6.25 2.125 6.25 0 4 C0 2.68 0 1.36 0 0 Z " fill="#032021" transform="translate(187,60)"/>
<path d="M0 0 C0.33 0 0.66 0 1 0 C1.13277344 1.07378906 1.26554688 2.14757812 1.40234375 3.25390625 C1.58069564 4.69010833 1.75908295 6.12630601 1.9375 7.5625 C2.02451172 8.26697266 2.11152344 8.97144531 2.20117188 9.69726562 C2.75384491 14.13911927 3.35394596 18.57074664 4 23 C3.01 22.34 2.02 21.68 1 21 C0.50606315 18.2833473 0.21122393 15.74151064 0 13 C-0.103125 12.04222656 -0.20625 11.08445313 -0.3125 10.09765625 C-1.13531488 2.27062975 -1.13531488 2.27062975 0 0 Z " fill="#38C7CF" transform="translate(239,168)"/>
<path d="M0 0 C0.33 0.66 0.66 1.32 1 2 C0.07265428 3.48555383 -0.86724813 4.96327506 -1.8125 6.4375 C-2.59560547 7.67306641 -2.59560547 7.67306641 -3.39453125 8.93359375 C-5 11 -5 11 -8 12 C-8 7.74190625 -7.7667759 6.97172226 -5 4 C-4.01 3.67 -3.02 3.34 -2 3 C-1.34 2.01 -0.68 1.02 0 0 Z " fill="#56D0D9" transform="translate(147,112)"/>
<path d="M0 0 C3 1 3 1 5 4 C9.54899046 4.42915004 12.89210262 3.99170782 17 2 C16 5 16 5 14.375 6.1875 C10.96606764 7.3537137 8.58139839 7.50265241 5 7 C2.82468398 5.17817283 1.61239265 3.39415878 0 1 C0 0.67 0 0.34 0 0 Z " fill="#021A1A" transform="translate(210,67)"/>
<path d="M0 0 C1.22995949 0.9156026 2.45892386 1.83254203 3.6875 2.75 C4.78771484 3.56984375 4.78771484 3.56984375 5.91015625 4.40625 C7.52250084 5.63585111 9.08545414 6.93038926 10.625 8.25 C13.31150656 10.22953115 15.80178791 11.1074757 19 12 C19 12.33 19 12.66 19 13 C11.99675132 12.42830623 6.71818374 10.23887225 2.0625 4.875 C0 2 0 2 0 0 Z " fill="#F6D8D9" transform="translate(343,149)"/>
<path d="M0 0 C0.66 0 1.32 0 2 0 C2.8353125 1.2684375 2.8353125 1.2684375 3.6875 2.5625 C4.450625 3.366875 5.21375 4.17125 6 5 C9.66499128 4.87140381 12.53421195 4.15526268 16 3 C16 3.66 16 4.32 16 5 C12.32995329 7.4466978 9.26442613 7.83795144 5 7 C2 4.625 2 4.625 0 2 C0 1.34 0 0.68 0 0 Z " fill="#021415" transform="translate(193,86)"/>
<path d="M0 0 C0.33 0 0.66 0 1 0 C2.10914408 6.53162622 1.78441153 12.43507888 1 19 C0.67 19 0.34 19 0 19 C-0.7591914 13.02136775 -1.45790557 7.03357931 -1 1 C-0.67 0.67 -0.34 0.34 0 0 Z " fill="#14A79B" transform="translate(246,56)"/>
<path d="M0 0 C1.0209375 0.433125 1.0209375 0.433125 2.0625 0.875 C5.32893093 2.12597355 8.62846123 3.07447955 12 4 C12 3.34 12 2.68 12 2 C12.99 2.33 13.98 2.66 15 3 C14.01 4.485 14.01 4.485 13 6 C7.57689095 5.56615128 4.29855944 4.35497322 0 1 C0 0.67 0 0.34 0 0 Z " fill="#EA999B" transform="translate(350,158)"/>
<path d="M0 0 C1 4 1 4 -0.21484375 6.140625 C-0.78332031 6.83671875 -1.35179687 7.5328125 -1.9375 8.25 C-2.50339844 8.95640625 -3.06929687 9.6628125 -3.65234375 10.390625 C-4.31943359 11.18726563 -4.31943359 11.18726563 -5 12 C-5.66 11.34 -6.32 10.68 -7 10 C-3.535 5.05 -3.535 5.05 0 0 Z " fill="#17AEA7" transform="translate(185,147)"/>
<path d="M0 0 C3.45201639 1.47721422 5.64961936 3.43794001 8.25 6.125 C8.95640625 6.84945312 9.6628125 7.57390625 10.390625 8.3203125 C11.18726563 9.15175781 11.18726563 9.15175781 12 10 C7.97802227 10 6.92040205 8.7067141 4 6 C2.60644236 4.04148656 1.25717453 2.04872887 0 0 Z " fill="#FDC4C5" transform="translate(381,112)"/>
<path d="M0 0 C4.21814817 3.9700218 7.61227103 8.30840284 11 13 C10.01 13 9.02 13 8 13 C5.95703125 10.6640625 5.95703125 10.6640625 3.8125 7.625 C2.73935547 6.12839844 2.73935547 6.12839844 1.64453125 4.6015625 C0 2 0 2 0 0 Z " fill="#FEE7E8" transform="translate(332,58)"/>
<path d="M0 0 C0.66 0 1.32 0 2 0 C2 0.66 2 1.32 2 2 C2.66 2 3.32 2 4 2 C4.268125 2.7425 4.53625 3.485 4.8125 4.25 C5.94229421 6.86636554 7.20893202 8.80187111 9 11 C4.70073737 9.40768051 2.64994267 6.60686641 0 3 C0 2.01 0 1.02 0 0 Z " fill="#E89395" transform="translate(339,145)"/>
<path d="M0 0 C4.0042343 3.49087093 5.62671065 5.64951939 6 11 C0.86376022 6.04087193 0.86376022 6.04087193 -1 3 C-0.67 2.01 -0.34 1.02 0 0 Z " fill="#E58587" transform="translate(331,134)"/>
<path d="M0 0 C0.66 0.33 1.32 0.66 2 1 C-0.97 3.97 -3.94 6.94 -7 10 C-7 5.69032084 -4.83274712 4.10253255 -2 1 C-1.34 0.67 -0.68 0.34 0 0 Z " fill="#0EAAA2" transform="translate(194,34)"/>
<path d="M0 0 C0.33 0.66 0.66 1.32 1 2 C0.36328125 3.91015625 0.36328125 3.91015625 -0.6875 6.0625 C-1.18830078 7.13177734 -1.18830078 7.13177734 -1.69921875 8.22265625 C-3 10 -3 10 -5.14453125 10.74609375 C-6.06298828 10.87177734 -6.06298828 10.87177734 -7 11 C-5.22054913 6.95579349 -2.60470327 3.53921513 0 0 Z " fill="#E6E6E6" transform="translate(412,218)"/>
<path d="M0 0 C0.66 0.99 1.32 1.98 2 3 C0.35 5.31 -1.3 7.62 -3 10 C-3.66 9.34 -4.32 8.68 -5 8 C-3.35 5.36 -1.7 2.72 0 0 Z " fill="#3DC6CC" transform="translate(209,169)"/>
<path d="M0 0 C2.21399303 3.79541663 3.00980198 7.75629421 4 12 C3.01 11.67 2.02 11.34 1 11 C-0.47694566 7.08609399 -1.60226148 4.00565371 0 0 Z " fill="#6DC7BF" transform="translate(189,165)"/>
<path d="M0 0 C3 1 3 1 4.1875 3.0625 C4.455625 3.701875 4.72375 4.34125 5 5 C3.02 5.99 3.02 5.99 1 7 C0.67 4.69 0.34 2.38 0 0 Z " fill="#F3C9CA" transform="translate(330,138)"/>
<path d="M0 0 C0.66 0.99 1.32 1.98 2 3 C0.625 6.6875 0.625 6.6875 -1 10 C-1.33 10 -1.66 10 -2 10 C-1.125 2.25 -1.125 2.25 0 0 Z " fill="#14B0AD" transform="translate(212,161)"/>
<path d="M0 0 C4.455 0.99 4.455 0.99 9 2 C8.67 2.66 8.34 3.32 8 4 C5.6875 4.25 5.6875 4.25 3 4 C1.1875 2 1.1875 2 0 0 Z " fill="#13A8B0" transform="translate(196,88)"/>
<path d="M0 0 C2.76223278 2.76223278 2.57856291 5.20706617 3 9 C0 7 0 7 -0.75 5.0625 C-1 3 -1 3 0 0 Z " fill="#30B3A9" transform="translate(240,182)"/>
<path d="M0 0 C0.33 0.66 0.66 1.32 1 2 C-0.98 4.97 -0.98 4.97 -3 8 C-3.33 7.34 -3.66 6.68 -4 6 C-4.66 5.67 -5.32 5.34 -6 5 C-5.38125 4.731875 -4.7625 4.46375 -4.125 4.1875 C-1.7004767 3.04443152 -1.7004767 3.04443152 0 0 Z " fill="#6BD6DE" transform="translate(147,112)"/>
<path d="M0 0 C-1 3 -1 3 -2.8125 4.25 C-5.33943414 5.11637742 -6.52221994 4.88492145 -9 4 C-2.25 0 -2.25 0 0 0 Z " fill="#011716" transform="translate(203,63)"/>
<path d="M0 0 C0 3.90838866 -1.50567876 5.11594107 -4 8 C-4 4 -4 4 -2 1.75 C-1.01 0.88375 -1.01 0.88375 0 0 Z " fill="#FCEEED" transform="translate(259,38)"/>
<path d="M0 0 C0.66 0.33 1.32 0.66 2 1 C0.35 2.98 -1.3 4.96 -3 7 C-3.99 6.67 -4.98 6.34 -6 6 C-4 4 -2 2 0 0 Z " fill="#EC888B" transform="translate(267,29)"/>
</svg>
